<svg xmlns="http://www.w3.org/2000/svg" viewBox="0 0 397.44 347.46"><defs><style>.cls-1{fill:#ebebeb;}.cls-2{fill:#f0f0f0;}.cls-3{fill:#f5f5f5;}.cls-4{fill:#263238;}.cls-10,.cls-12,.cls-13,.cls-21,.cls-5,.cls-7,.cls-9{fill:#fff;}.cls-17,.cls-5{opacity:0.3;}.cls-6{opacity:0.6;}.cls-8{fill:#407bff;}.cls-15,.cls-16,.cls-9{opacity:0.2;}.cls-10,.cls-14,.cls-20{opacity:0.5;}.cls-11,.cls-12{opacity:0.9;}.cls-13{opacity:0.4;}.cls-18{fill:#ff8b7b;}.cls-19{fill:#ff5652;}.cls-21,.cls-22{opacity:0.7;}</style></defs><g id="Layer_2" data-name="Layer 2"><g id="Background_Complete" data-name="Background Complete"><rect class="cls-1" x="364.32" y="322.24" width="33.12" height="0.25"/><rect class="cls-1" x="270.07" y="324.95" width="8.69" height="0.25"/><rect class="cls-1" x="344.13" y="312.95" width="19.19" height="0.25"/><rect class="cls-1" y="314.63" width="43.19" height="0.25"/><rect class="cls-1" x="52.1" y="314.63" width="6.33" height="0.25"/><rect class="cls-1" x="79.01" y="318.86" width="93.68" height="0.25"/><path class="cls-1" d="M82.85,103.32a41.58,41.58,0,1,1,41.58-41.58A41.63,41.63,0,0,1,82.85,103.32Zm0-75.16a33.58,33.58,0,1,0,33.58,33.58A33.62,33.62,0,0,0,82.85,28.16Z"/><path class="cls-1" d="M82.85,88.08a26.35,26.35,0,1,1,26.34-26.34A26.38,26.38,0,0,1,82.85,88.08Zm0-44.69a18.35,18.35,0,1,0,18.34,18.35A18.37,18.37,0,0,0,82.85,43.39Z"/><circle class="cls-1" cx="82.85" cy="61.74" r="10.4"/><path class="cls-2" d="M344.81,279.5a41.59,41.59,0,1,1,41.58-41.58A41.64,41.64,0,0,1,344.81,279.5Zm0-75.17a33.59,33.59,0,1,0,33.58,33.59A33.63,33.63,0,0,0,344.81,204.33Z"/><path class="cls-2" d="M344.81,264.26a26.35,26.35,0,1,1,26.34-26.34A26.38,26.38,0,0,1,344.81,264.26Zm0-44.69a18.35,18.35,0,1,0,18.34,18.35A18.37,18.37,0,0,0,344.81,219.57Z"/><circle class="cls-2" cx="344.81" cy="237.92" r="10.4"/><path class="cls-1" d="M77.25,250.25a28.12,28.12,0,0,0-.52-5.38l5.57-4.07a33.77,33.77,0,0,0-3-7.15l-6.82,1.06a28.12,28.12,0,0,0-7.61-7.61L66,220.28a33.77,33.77,0,0,0-7.15-3l-4.07,5.57a27.62,27.62,0,0,0-10.77,0l-4.07-5.57a33.77,33.77,0,0,0-7.15,3l1.06,6.82a28.12,28.12,0,0,0-7.61,7.61l-6.82-1.06a33.77,33.77,0,0,0-3,7.15L22,244.87a28.14,28.14,0,0,0,0,10.77l-5.57,4.07a33.77,33.77,0,0,0,3,7.15l6.82-1.06a28.12,28.12,0,0,0,7.61,7.61l-1.06,6.82a33.77,33.77,0,0,0,7.15,3L44,277.62a28.14,28.14,0,0,0,10.77,0l4.07,5.57a33.77,33.77,0,0,0,7.15-3l-1.06-6.82a28.12,28.12,0,0,0,7.61-7.61l6.82,1.06a33.77,33.77,0,0,0,3-7.15l-5.57-4.07A28.15,28.15,0,0,0,77.25,250.25ZM49.36,264a13.75,13.75,0,1,1,13.75-13.75A13.75,13.75,0,0,1,49.36,264Z"/><path class="cls-2" d="M374.87,32.94a28,28,0,0,0-.53-5.38l5.57-4.07a33.64,33.64,0,0,0-3-7.16l-6.82,1.06a28,28,0,0,0-7.61-7.61L363.59,3a34.61,34.61,0,0,0-7.16-3l-4.07,5.57a28.09,28.09,0,0,0-10.76,0L337.53,0a34.17,34.17,0,0,0-7.16,3l1.06,6.82a28.12,28.12,0,0,0-7.61,7.61L317,16.33a34.17,34.17,0,0,0-3,7.16l5.57,4.07a28.09,28.09,0,0,0,0,10.76L314,42.39a34.61,34.61,0,0,0,3,7.16l6.82-1.07a28,28,0,0,0,7.61,7.61l-1.06,6.82a33.67,33.67,0,0,0,7.16,3l4.07-5.58a27.57,27.57,0,0,0,10.76,0l4.07,5.58a34.1,34.1,0,0,0,7.16-3l-1.07-6.82a27.84,27.84,0,0,0,7.61-7.61L377,49.55a34.07,34.07,0,0,0,3-7.16l-5.57-4.07A28,28,0,0,0,374.87,32.94ZM347,46.69a13.75,13.75,0,1,1,13.75-13.75A13.75,13.75,0,0,1,347,46.69Z"/><path class="cls-2" d="M326.38,77.73a14,14,0,0,0-.26-2.69l2.79-2a17.08,17.08,0,0,0-1.48-3.58L324,70a14.1,14.1,0,0,0-3.81-3.81l.53-3.41a17.08,17.08,0,0,0-3.58-1.48l-2,2.79a14,14,0,0,0-5.38,0l-2-2.79a17.31,17.31,0,0,0-3.58,1.48l.53,3.41a14.06,14.06,0,0,0-3.8,3.81l-3.41-.53A17.08,17.08,0,0,0,296,73l2.79,2a13.54,13.54,0,0,0,0,5.38l-2.79,2A17.54,17.54,0,0,0,297.45,86l3.41-.54a13.92,13.92,0,0,0,3.8,3.81l-.53,3.41a17.31,17.31,0,0,0,3.58,1.48l2-2.79a13.54,13.54,0,0,0,5.38,0l2,2.79a17.08,17.08,0,0,0,3.58-1.48l-.53-3.41A14,14,0,0,0,324,85.5l3.41.54a17.54,17.54,0,0,0,1.48-3.58l-2.79-2A14,14,0,0,0,326.38,77.73Zm-13.94,6.88a6.88,6.88,0,1,1,6.87-6.88A6.88,6.88,0,0,1,312.44,84.61Z"/></g><g id="Shadow"><ellipse id="_Path_" data-name="&lt;Path&gt;" class="cls-3" cx="197.54" cy="336.14" rx="193.89" ry="11.32"/></g><g id="Devices"><path class="cls-4" d="M196.7,293.77a1.93,1.93,0,0,0-1.38,0H161L146.61,336h36.18l.75-2.29h2.18l12.11-37.57A1.93,1.93,0,0,0,196.7,293.77ZM181,313.69l-1.24,3.86a5.82,5.82,0,0,1-5.53,4h-1.74a4.46,4.46,0,0,1-4.25-5.83l1.25-3.87a5.8,5.8,0,0,1,5.53-4h1.74A4.46,4.46,0,0,1,181,313.69Z"/><path class="cls-5" d="M196.7,293.77a1.93,1.93,0,0,0-1.38,0H161L146.61,336h36.18l.75-2.29h2.18l12.11-37.57A1.93,1.93,0,0,0,196.7,293.77ZM181,313.69l-1.24,3.86a5.82,5.82,0,0,1-5.53,4h-1.74a4.46,4.46,0,0,1-4.25-5.83l1.25-3.87a5.8,5.8,0,0,1,5.53-4h1.74A4.46,4.46,0,0,1,181,313.69Z"/><path class="cls-4" d="M225,333.73H189.35a1.92,1.92,0,0,1,1.93,1.93v.73a1.93,1.93,0,0,1-1.93,1.93H225a1.94,1.94,0,0,0,1.93-1.93v-.73A1.93,1.93,0,0,0,225,333.73Z"/><path class="cls-5" d="M225,333.73H189.35a1.92,1.92,0,0,1,1.93,1.93v.73a1.93,1.93,0,0,1-1.93,1.93H225a1.94,1.94,0,0,0,1.93-1.93v-.73A1.93,1.93,0,0,0,225,333.73Z"/><path class="cls-4" d="M189.35,338.32H144.51l14-43.35a1.94,1.94,0,0,1,2.54-1.2h0a1.93,1.93,0,0,1,1.13,2.39l-12.11,37.57h39.3a1.92,1.92,0,0,1,1.93,1.93v.73A1.93,1.93,0,0,1,189.35,338.32Z"/><g class="cls-6"><path class="cls-7" d="M189.35,338.32H144.51l14-43.35a1.94,1.94,0,0,1,2.54-1.2h0a1.93,1.93,0,0,1,1.13,2.39l-12.11,37.57h39.3a1.92,1.92,0,0,1,1.93,1.93v.73A1.93,1.93,0,0,1,189.35,338.32Z"/></g><path class="cls-4" d="M176.73,307.86H175c-.13,0-.25,0-.38,0a4.46,4.46,0,0,1,3.75,5.8l-1.24,3.86a5.81,5.81,0,0,1-5.16,4c.16,0,.33,0,.5,0h1.74a5.82,5.82,0,0,0,5.53-4l1.24-3.86A4.46,4.46,0,0,0,176.73,307.86Z"/><path class="cls-8" d="M99,170.66H81.22a6.07,6.07,0,0,0-6.14,6.74l10,114.94a7.51,7.51,0,0,0,7.33,6.74h17.72Z"/><path class="cls-9" d="M99,170.66H81.22a6.07,6.07,0,0,0-6.14,6.74l10,114.94a7.51,7.51,0,0,0,7.33,6.74h17.72Z"/><path class="cls-8" d="M255.82,299.08H97.05a7.5,7.5,0,0,1-7.33-6.74L79.66,177.4a6.08,6.08,0,0,1,6.15-6.74H244.58a7.51,7.51,0,0,1,7.33,6.74l10,114.94A6.07,6.07,0,0,1,255.82,299.08Z"/><path class="cls-10" d="M255.82,299.08H97.05a7.5,7.5,0,0,1-7.33-6.74L79.66,177.4a6.08,6.08,0,0,1,6.15-6.74H244.58a7.51,7.51,0,0,1,7.33,6.74l10,114.94A6.07,6.07,0,0,1,255.82,299.08Z"/><path class="cls-8" d="M88.7,280.73l1,11.61a7.5,7.5,0,0,0,7.33,6.74H255.82a6.07,6.07,0,0,0,6.14-6.74l-1-11.61Z"/><path class="cls-9" d="M88.7,280.73l1,11.61a7.5,7.5,0,0,0,7.33,6.74H255.82a6.07,6.07,0,0,0,6.14-6.74l-1-11.61Z"/><polygon class="cls-7" points="85.31 176.39 93.94 275 254.71 275 246.09 176.39 85.31 176.39"/><polygon class="cls-4" points="123.18 191.81 93.11 191.81 92.17 180.99 122.23 180.99 123.18 191.81"/><polygon class="cls-4" points="173.72 186.4 155.44 186.4 154.97 180.99 173.24 180.99 173.72 186.4"/><polygon class="cls-4" points="139.04 270.54 109.1 270.54 107.83 256.05 137.77 256.05 139.04 270.54"/><polygon class="cls-4" points="175.22 270.54 145.28 270.54 144.01 256.05 173.95 256.05 175.22 270.54"/><polygon class="cls-4" points="211.4 270.54 181.46 270.54 180.19 256.05 210.13 256.05 211.4 270.54"/><polygon class="cls-4" points="247.58 270.54 217.64 270.54 216.37 256.05 246.31 256.05 247.58 270.54"/><polygon class="cls-4" points="195.88 186.4 177.61 186.4 177.14 180.99 195.41 180.99 195.88 186.4"/><polygon class="cls-4" points="218.05 186.4 199.78 186.4 199.31 180.99 217.58 180.99 218.05 186.4"/><polygon class="cls-4" points="240.22 186.4 221.95 186.4 221.47 180.99 239.74 180.99 240.22 186.4"/><polygon class="cls-4" points="252.58 251.18 91.81 251.18 87.27 199.36 248.05 199.36 252.58 251.18"/><g class="cls-11"><polygon class="cls-7" points="123.18 191.81 93.11 191.81 92.17 180.99 122.23 180.99 123.18 191.81"/><polygon class="cls-7" points="173.72 186.4 155.44 186.4 154.97 180.99 173.24 180.99 173.72 186.4"/><polygon class="cls-7" points="139.04 270.54 109.1 270.54 107.83 256.05 137.77 256.05 139.04 270.54"/><polygon class="cls-7" points="175.22 270.54 145.28 270.54 144.01 256.05 173.95 256.05 175.22 270.54"/><polygon class="cls-7" points="211.4 270.54 181.46 270.54 180.19 256.05 210.13 256.05 211.4 270.54"/><polygon class="cls-7" points="247.58 270.54 217.64 270.54 216.37 256.05 246.31 256.05 247.58 270.54"/><polygon class="cls-7" points="195.88 186.4 177.61 186.4 177.14 180.99 195.41 180.99 195.88 186.4"/><polygon class="cls-7" points="218.05 186.4 199.78 186.4 199.31 180.99 217.58 180.99 218.05 186.4"/><polygon class="cls-7" points="240.22 186.4 221.95 186.4 221.47 180.99 239.74 180.99 240.22 186.4"/><polygon class="cls-7" points="252.58 251.18 91.81 251.18 87.27 199.36 248.05 199.36 252.58 251.18"/></g><path class="cls-8" d="M138.72,41.07H148.9l10.25,117.24H149a9.5,9.5,0,0,1-9.28-8.53L130.93,49.6A7.7,7.7,0,0,1,138.72,41.07Z"/><path class="cls-8" d="M132.43,52.83a.91.91,0,0,0-.89-.82.73.73,0,0,0-.75.82l.69,7.85a.91.91,0,0,0,.89.82.74.74,0,0,0,.74-.82Z"/><path class="cls-10" d="M132.43,52.83a.91.91,0,0,0-.89-.82.73.73,0,0,0-.75.82l.69,7.85a.91.91,0,0,0,.89.82.74.74,0,0,0,.74-.82Z"/><path class="cls-8" d="M151.07,158.31H193a7.7,7.7,0,0,0,7.79-8.53L192,49.6a9.5,9.5,0,0,0-9.28-8.53H140.81A7.69,7.69,0,0,0,133,49.6l8.76,100.18A9.5,9.5,0,0,0,151.07,158.31Z"/><path class="cls-10" d="M151.07,158.31H193a7.7,7.7,0,0,0,7.79-8.53L192,49.6a9.5,9.5,0,0,0-9.28-8.53H140.81A7.69,7.69,0,0,0,133,49.6l8.76,100.18A9.5,9.5,0,0,0,151.07,158.31Z"/><path class="cls-7" d="M141,43h10.89a1.6,1.6,0,0,1,1.52,1.24l.07.34a3.87,3.87,0,0,0,3.7,3h10.36a3.12,3.12,0,0,0,3.17-3v-.34A1.28,1.28,0,0,1,172,43h10.89A7.32,7.32,0,0,1,190,49.6l8.77,100.18a5.93,5.93,0,0,1-6,6.58H150.89a7.33,7.33,0,0,1-7.15-6.58L135,49.6A5.93,5.93,0,0,1,141,43Z"/><path class="cls-4" d="M164.57,44.13a.93.93,0,0,0,.9.84.76.76,0,0,0,.76-.84.93.93,0,0,0-.9-.83A.75.75,0,0,0,164.57,44.13Z"/><path class="cls-4" d="M158.59,43.3h2.86a.93.93,0,0,1,.9.83.76.76,0,0,1-.76.84h-2.85a.94.94,0,0,1-.91-.84A.75.75,0,0,1,158.59,43.3Z"/><polygon class="cls-4" points="195.83 116.08 140.76 116.08 135.95 61.01 191.02 61.01 195.83 116.08"/><path class="cls-4" d="M147.39,54.48A4,4,0,0,1,143.3,59a5,5,0,0,1-4.87-4.48A4,4,0,0,1,142.52,50,5,5,0,0,1,147.39,54.48Z"/><path class="cls-4" d="M184.37,56.54h-8.6a2.29,2.29,0,0,1-2.24-2.06h0a1.86,1.86,0,0,1,1.88-2.07H184a2.3,2.3,0,0,1,2.24,2.07h0A1.86,1.86,0,0,1,184.37,56.54Z"/><path class="cls-4" d="M165.57,123.79h-18.4a2.21,2.21,0,0,1-2.15-2h0a1.78,1.78,0,0,1,1.8-2h18.41a2.21,2.21,0,0,1,2.15,2h0A1.79,1.79,0,0,1,165.57,123.79Z"/><path class="cls-4" d="M189.55,131.49H147.84a2.2,2.2,0,0,1-2.15-2h0a1.79,1.79,0,0,1,1.81-2h41.71a2.2,2.2,0,0,1,2.15,2h0A1.79,1.79,0,0,1,189.55,131.49Z"/><path class="cls-4" d="M179.65,137.51H148.37a2.2,2.2,0,0,1-2.15-2h0a1.78,1.78,0,0,1,1.81-2H179.3a2.2,2.2,0,0,1,2.15,2h0A1.77,1.77,0,0,1,179.65,137.51Z"/><path class="cls-4" d="M185.7,143.53H148.9a2.19,2.19,0,0,1-2.15-2h0a1.77,1.77,0,0,1,1.8-2h36.81a2.2,2.2,0,0,1,2.15,2h0A1.78,1.78,0,0,1,185.7,143.53Z"/><path class="cls-4" d="M160.69,149.55H149.42a2.2,2.2,0,0,1-2.15-2h0a1.79,1.79,0,0,1,1.81-2h11.26a2.19,2.19,0,0,1,2.15,2h0A1.78,1.78,0,0,1,160.69,149.55Z"/><polygon class="cls-12" points="195.83 116.08 140.76 116.08 135.95 61.01 191.02 61.01 195.83 116.08"/><path class="cls-12" d="M147.39,54.48A4,4,0,0,1,143.3,59a5,5,0,0,1-4.87-4.48A4,4,0,0,1,142.52,50,5,5,0,0,1,147.39,54.48Z"/><path class="cls-12" d="M184.37,56.54h-8.6a2.29,2.29,0,0,1-2.24-2.06h0a1.86,1.86,0,0,1,1.88-2.07H184a2.3,2.3,0,0,1,2.24,2.07h0A1.86,1.86,0,0,1,184.37,56.54Z"/><path class="cls-12" d="M165.57,123.79h-18.4a2.21,2.21,0,0,1-2.15-2h0a1.78,1.78,0,0,1,1.8-2h18.41a2.21,2.21,0,0,1,2.15,2h0A1.79,1.79,0,0,1,165.57,123.79Z"/><path class="cls-12" d="M189.55,131.49H147.84a2.2,2.2,0,0,1-2.15-2h0a1.79,1.79,0,0,1,1.81-2h41.71a2.2,2.2,0,0,1,2.15,2h0A1.79,1.79,0,0,1,189.55,131.49Z"/><path class="cls-12" d="M179.65,137.51H148.37a2.2,2.2,0,0,1-2.15-2h0a1.78,1.78,0,0,1,1.81-2H179.3a2.2,2.2,0,0,1,2.15,2h0A1.77,1.77,0,0,1,179.65,137.51Z"/><path class="cls-12" d="M185.7,143.53H148.9a2.19,2.19,0,0,1-2.15-2h0a1.77,1.77,0,0,1,1.8-2h36.81a2.2,2.2,0,0,1,2.15,2h0A1.78,1.78,0,0,1,185.7,143.53Z"/><path class="cls-12" d="M160.69,149.55H149.42a2.2,2.2,0,0,1-2.15-2h0a1.79,1.79,0,0,1,1.81-2h11.26a2.19,2.19,0,0,1,2.15,2h0A1.78,1.78,0,0,1,160.69,149.55Z"/><path class="cls-8" d="M29.14,247.53H22.86a4.17,4.17,0,0,0-4.22,4.62l7,79.94a5.14,5.14,0,0,0,5,4.62h6.28Z"/><path class="cls-9" d="M29.14,247.53H22.86a4.17,4.17,0,0,0-4.22,4.62l7,79.94a5.14,5.14,0,0,0,5,4.62h6.28Z"/><path class="cls-8" d="M131.17,336.71H33.39a5.14,5.14,0,0,1-5-4.62l-7-79.94a4.16,4.16,0,0,1,4.21-4.62h97.78a5.14,5.14,0,0,1,5,4.62l7,79.94A4.16,4.16,0,0,1,131.17,336.71Z"/><path class="cls-10" d="M131.17,336.71H33.39a5.14,5.14,0,0,1-5-4.62l-7-79.94a4.16,4.16,0,0,1,4.21-4.62h97.78a5.14,5.14,0,0,1,5,4.62l7,79.94A4.16,4.16,0,0,1,131.17,336.71Z"/><path class="cls-8" d="M88.57,330.09h107a0,0,0,0,1,0,0v2.16a6,6,0,0,1-6,6h-101a0,0,0,0,1,0,0v-8.15a0,0,0,0,1,0,0Z"/><path class="cls-9" d="M88.57,330.09h107a0,0,0,0,1,0,0v2.16a6,6,0,0,1-6,6h-101a0,0,0,0,1,0,0v-8.15a0,0,0,0,1,0,0Z"/><path class="cls-13" d="M150.89,334.16h-8.56a4.07,4.07,0,0,1-4.07-4.07H155A4.07,4.07,0,0,1,150.89,334.16Z"/><polygon class="cls-7" points="129.24 323.21 123.08 252.88 26.81 252.88 32.96 323.21 129.24 323.21"/><path class="cls-4" d="M79.22,250.25a1.09,1.09,0,0,1-1.09,1.2,1.34,1.34,0,0,1-1.3-1.2,1.08,1.08,0,0,1,1.09-1.19A1.34,1.34,0,0,1,79.22,250.25Z"/><path class="cls-8" d="M28.69,330.09H95.78a0,0,0,0,1,0,0v2.16a6,6,0,0,1-6,6H34.69a6,6,0,0,1-6-6v-2.16a0,0,0,0,1,0,0Z"/><path class="cls-13" d="M39.17,334.93H34.52a1,1,0,0,1-1-1h0a1,1,0,0,1,1-1h4.65a1,1,0,0,1,1,1h0A1,1,0,0,1,39.17,334.93Z"/><path class="cls-13" d="M49.17,334.93H44.52a1,1,0,0,1-1-1h0a1,1,0,0,1,1-1h4.65a1,1,0,0,1,1,1h0A1,1,0,0,1,49.17,334.93Z"/><polygon class="cls-4" points="48.39 264.01 32.14 264.01 31.59 257.71 47.83 257.71 48.39 264.01"/><polygon class="cls-4" points="83.39 260 73.22 260 73.02 257.71 83.19 257.71 83.39 260"/><polygon class="cls-4" points="95.62 260 85.45 260 85.25 257.71 95.42 257.71 95.62 260"/><polygon class="cls-4" points="107.85 260 97.68 260 97.48 257.71 107.65 257.71 107.85 260"/><polygon class="cls-4" points="120.08 260 109.91 260 109.71 257.71 119.88 257.71 120.08 260"/><polygon class="cls-4" points="121.93 281.21 33.65 281.21 32.44 267.45 120.73 267.45 121.93 281.21"/><polygon class="cls-4" points="90.84 310.26 36.19 310.26 33.87 283.7 88.52 283.7 90.84 310.26"/><path class="cls-4" d="M75.74,315.61H37.9a1.38,1.38,0,0,1-1.35-1.24h0a1.12,1.12,0,0,1,1.13-1.24H75.52a1.37,1.37,0,0,1,1.35,1.24h0A1.12,1.12,0,0,1,75.74,315.61Z"/><path class="cls-4" d="M72.07,319.62H38.25a1.37,1.37,0,0,1-1.35-1.24h0A1.12,1.12,0,0,1,38,317.14H71.86a1.38,1.38,0,0,1,1.35,1.24h0A1.12,1.12,0,0,1,72.07,319.62Z"/><path class="cls-4" d="M119.94,300.7H97.75a1.37,1.37,0,0,1-1.35-1.24h0a1.12,1.12,0,0,1,1.13-1.24h22.2a1.39,1.39,0,0,1,1.35,1.24h0A1.12,1.12,0,0,1,119.94,300.7Z"/><path class="cls-4" d="M116.28,304.72H98.1a1.38,1.38,0,0,1-1.35-1.24h0a1.12,1.12,0,0,1,1.13-1.25h18.18a1.38,1.38,0,0,1,1.35,1.25h0A1.12,1.12,0,0,1,116.28,304.72Z"/><polygon class="cls-4" points="121.68 295.74 95.69 295.74 94.63 283.7 120.62 283.7 121.68 295.74"/><polygon class="cls-4" points="123.79 319.91 97.8 319.91 96.75 307.87 122.74 307.87 123.79 319.91"/><g class="cls-11"><polygon class="cls-7" points="48.39 264.01 32.14 264.01 31.59 257.71 47.83 257.71 48.39 264.01"/><polygon class="cls-7" points="83.39 260 73.22 260 73.02 257.71 83.19 257.71 83.39 260"/><polygon class="cls-7" points="95.62 260 85.45 260 85.25 257.71 95.42 257.71 95.62 260"/><polygon class="cls-7" points="107.85 260 97.68 260 97.48 257.71 107.65 257.71 107.85 260"/><polygon class="cls-7" points="120.08 260 109.91 260 109.71 257.71 119.88 257.71 120.08 260"/><polygon class="cls-7" points="121.93 281.21 33.65 281.21 32.44 267.45 120.73 267.45 121.93 281.21"/><polygon class="cls-7" points="90.84 310.26 36.19 310.26 33.87 283.7 88.52 283.7 90.84 310.26"/><path class="cls-7" d="M75.74,315.61H37.9a1.38,1.38,0,0,1-1.35-1.24h0a1.12,1.12,0,0,1,1.13-1.24H75.52a1.37,1.37,0,0,1,1.35,1.24h0A1.12,1.12,0,0,1,75.74,315.61Z"/><path class="cls-7" d="M72.07,319.62H38.25a1.37,1.37,0,0,1-1.35-1.24h0A1.12,1.12,0,0,1,38,317.14H71.86a1.38,1.38,0,0,1,1.35,1.24h0A1.12,1.12,0,0,1,72.07,319.62Z"/><path class="cls-7" d="M119.94,300.7H97.75a1.37,1.37,0,0,1-1.35-1.24h0a1.12,1.12,0,0,1,1.13-1.24h22.2a1.39,1.39,0,0,1,1.35,1.24h0A1.12,1.12,0,0,1,119.94,300.7Z"/><path class="cls-7" d="M116.28,304.72H98.1a1.38,1.38,0,0,1-1.35-1.24h0a1.12,1.12,0,0,1,1.13-1.25h18.18a1.38,1.38,0,0,1,1.35,1.25h0A1.12,1.12,0,0,1,116.28,304.72Z"/><polygon class="cls-7" points="121.68 295.74 95.69 295.74 94.63 283.7 120.62 283.7 121.68 295.74"/><polygon class="cls-7" points="123.79 319.91 97.8 319.91 96.75 307.87 122.74 307.87 123.79 319.91"/></g><path class="cls-8" d="M34.26,62.49H25.63a8,8,0,0,0-8.09,8.88l9.62,110.06a9.88,9.88,0,0,0,9.65,8.87h8.63Z"/><path class="cls-9" d="M34.26,62.49H25.63a8,8,0,0,0-8.09,8.88l9.62,110.06a9.88,9.88,0,0,0,9.65,8.87h8.63Z"/><path class="cls-8" d="M40.25,190.3h75.62a8,8,0,0,0,8.1-8.87L114.34,71.37a9.89,9.89,0,0,0-9.65-8.88H29.07A8,8,0,0,0,21,71.37L30.6,181.43A9.88,9.88,0,0,0,40.25,190.3Z"/><path class="cls-10" d="M40.25,190.3h75.62a8,8,0,0,0,8.1-8.87L114.34,71.37a9.89,9.89,0,0,0-9.65-8.88H29.07A8,8,0,0,0,21,71.37L30.6,181.43A9.88,9.88,0,0,0,40.25,190.3Z"/><polygon class="cls-7" points="120.87 181.43 111.24 71.37 24.07 71.37 33.7 181.43 120.87 181.43"/><path class="cls-8" d="M77.89,188.4a3.1,3.1,0,0,1-3-2.79,2.53,2.53,0,0,1,2.55-2.8,3.11,3.11,0,0,1,3,2.8A2.52,2.52,0,0,1,77.89,188.4Zm-.42-4.9a1.9,1.9,0,0,0-1.92,2.11,2.33,2.33,0,0,0,2.28,2.1,1.9,1.9,0,0,0,1.93-2.1A2.36,2.36,0,0,0,77.47,183.5Z"/><polygon class="cls-4" points="107.46 82.07 101.04 82.07 100.48 75.64 106.9 75.64 107.46 82.07"/><polygon class="cls-4" points="48.3 82.07 29.95 82.07 29.39 75.64 47.74 75.64 48.3 82.07"/><polygon class="cls-4" points="111.68 130.22 34.17 130.22 30.64 89.86 108.15 89.86 111.68 130.22"/><polygon class="cls-4" points="82.98 174.46 38.04 174.46 34.65 135.73 79.6 135.73 82.98 174.46"/><polygon class="cls-4" points="95.27 144.56 84.95 144.56 84.18 135.73 94.5 135.73 95.27 144.56"/><path class="cls-4" d="M109.67,138.71H98.37a1.66,1.66,0,0,1-1.62-1.49h0a1.34,1.34,0,0,1,1.36-1.49h11.3a1.65,1.65,0,0,1,1.62,1.49h0A1.35,1.35,0,0,1,109.67,138.71Z"/><path class="cls-4" d="M111.44,144.55H98.89a1.66,1.66,0,0,1-1.63-1.49h0a1.35,1.35,0,0,1,1.36-1.49h12.56a1.66,1.66,0,0,1,1.62,1.49h0A1.34,1.34,0,0,1,111.44,144.55Z"/><path class="cls-4" d="M110.69,150.4H87a1.65,1.65,0,0,1-1.62-1.49h0a1.34,1.34,0,0,1,1.36-1.49h23.73a1.66,1.66,0,0,1,1.62,1.49h0A1.34,1.34,0,0,1,110.69,150.4Z"/><path class="cls-4" d="M112.46,156.25h-25a1.65,1.65,0,0,1-1.62-1.49h0a1.34,1.34,0,0,1,1.36-1.49h25a1.65,1.65,0,0,1,1.62,1.49h0A1.34,1.34,0,0,1,112.46,156.25Z"/><path class="cls-4" d="M109.76,162.1H88a1.66,1.66,0,0,1-1.62-1.49h0a1.34,1.34,0,0,1,1.36-1.49H109.5a1.66,1.66,0,0,1,1.63,1.49h0A1.35,1.35,0,0,1,109.76,162.1Z"/><path class="cls-4" d="M113.49,168h-25a1.66,1.66,0,0,1-1.62-1.5h0A1.35,1.35,0,0,1,88.23,165h25a1.66,1.66,0,0,1,1.62,1.49h0A1.35,1.35,0,0,1,113.49,168Z"/><path class="cls-4" d="M106.23,173.79H89a1.65,1.65,0,0,1-1.62-1.49h0a1.35,1.35,0,0,1,1.36-1.49H106a1.66,1.66,0,0,1,1.62,1.49h0A1.34,1.34,0,0,1,106.23,173.79Z"/><polygon class="cls-12" points="107.46 82.07 101.04 82.07 100.48 75.64 106.9 75.64 107.46 82.07"/><polygon class="cls-12" points="48.3 82.07 29.95 82.07 29.39 75.64 47.74 75.64 48.3 82.07"/><polygon class="cls-12" points="111.68 130.22 34.17 130.22 30.64 89.86 108.15 89.86 111.68 130.22"/><polygon class="cls-12" points="82.98 174.46 38.04 174.46 34.65 135.73 79.6 135.73 82.98 174.46"/><polygon class="cls-12" points="95.27 144.56 84.95 144.56 84.18 135.73 94.5 135.73 95.27 144.56"/><path class="cls-12" d="M109.67,138.71H98.37a1.66,1.66,0,0,1-1.62-1.49h0a1.34,1.34,0,0,1,1.36-1.49h11.3a1.65,1.65,0,0,1,1.62,1.49h0A1.35,1.35,0,0,1,109.67,138.71Z"/><path class="cls-12" d="M111.44,144.55H98.89a1.66,1.66,0,0,1-1.63-1.49h0a1.35,1.35,0,0,1,1.36-1.49h12.56a1.66,1.66,0,0,1,1.62,1.49h0A1.34,1.34,0,0,1,111.44,144.55Z"/><path class="cls-12" d="M110.69,150.4H87a1.65,1.65,0,0,1-1.62-1.49h0a1.34,1.34,0,0,1,1.36-1.49h23.73a1.66,1.66,0,0,1,1.62,1.49h0A1.34,1.34,0,0,1,110.69,150.4Z"/><path class="cls-12" d="M112.46,156.25h-25a1.65,1.65,0,0,1-1.62-1.49h0a1.34,1.34,0,0,1,1.36-1.49h25a1.65,1.65,0,0,1,1.62,1.49h0A1.34,1.34,0,0,1,112.46,156.25Z"/><path class="cls-12" d="M109.76,162.1H88a1.66,1.66,0,0,1-1.62-1.49h0a1.34,1.34,0,0,1,1.36-1.49H109.5a1.66,1.66,0,0,1,1.63,1.49h0A1.35,1.35,0,0,1,109.76,162.1Z"/><path class="cls-12" d="M113.49,168h-25a1.66,1.66,0,0,1-1.62-1.5h0A1.35,1.35,0,0,1,88.23,165h25a1.66,1.66,0,0,1,1.62,1.49h0A1.35,1.35,0,0,1,113.49,168Z"/><path class="cls-12" d="M106.23,173.79H89a1.65,1.65,0,0,1-1.62-1.49h0a1.35,1.35,0,0,1,1.36-1.49H106a1.66,1.66,0,0,1,1.62,1.49h0A1.34,1.34,0,0,1,106.23,173.79Z"/></g><g id="Check"><path class="cls-4" d="M188.7,237.91H169.9a5.36,5.36,0,0,1-5.24-4.81L163,214.3a4.54,4.54,0,0,1,4.57-5h18.8a5.36,5.36,0,0,1,5.23,4.81l1.65,18.8a4.52,4.52,0,0,1-4.57,5Zm-21.11-26.36a2.28,2.28,0,0,0-2.33,2.56l1.64,18.8a3.07,3.07,0,0,0,3,2.75h18.8A2.28,2.28,0,0,0,191,233.1l-1.65-18.8a3.06,3.06,0,0,0-3-2.75Z"/><g class="cls-14"><path class="cls-7" d="M188.7,237.91H169.9a5.36,5.36,0,0,1-5.24-4.81L163,214.3a4.54,4.54,0,0,1,4.57-5h18.8a5.36,5.36,0,0,1,5.23,4.81l1.65,18.8a4.52,4.52,0,0,1-4.57,5Zm-21.11-26.36a2.28,2.28,0,0,0-2.33,2.56l1.64,18.8a3.07,3.07,0,0,0,3,2.75h18.8A2.28,2.28,0,0,0,191,233.1l-1.65-18.8a3.06,3.06,0,0,0-3-2.75Z"/></g><path class="cls-8" d="M174.24,231.44l-14.35-13.2a2.48,2.48,0,0,1-.14-3.5h0a2.47,2.47,0,0,1,3.49-.14l10.7,9.83,20.72-22.72a2.48,2.48,0,0,1,3.5-.16h0a2.48,2.48,0,0,1,.16,3.5Z"/><g class="cls-15"><path d="M174.24,231.44l-14.35-13.2a2.48,2.48,0,0,1-.14-3.5h0a2.47,2.47,0,0,1,3.49-.14l10.7,9.83,20.72-22.72a2.48,2.48,0,0,1,3.5-.16h0a2.48,2.48,0,0,1,.16,3.5Z"/></g><path class="cls-4" d="M87.2,130.52H70.28a4.82,4.82,0,0,1-4.71-4.33l-1.48-16.92a4.08,4.08,0,0,1,4.12-4.5H85.13a4.82,4.82,0,0,1,4.71,4.33L91.32,126a4.08,4.08,0,0,1-4.12,4.5Zm-19-23.73a2.07,2.07,0,0,0-2.1,2.31L67.59,126a2.77,2.77,0,0,0,2.69,2.48H87.2a2.07,2.07,0,0,0,2.1-2.31l-1.48-16.92a2.76,2.76,0,0,0-2.69-2.48Z"/><g class="cls-14"><path class="cls-7" d="M87.2,130.52H70.28a4.82,4.82,0,0,1-4.71-4.33l-1.48-16.92a4.08,4.08,0,0,1,4.12-4.5H85.13a4.82,4.82,0,0,1,4.71,4.33L91.32,126a4.08,4.08,0,0,1-4.12,4.5Zm-19-23.73a2.07,2.07,0,0,0-2.1,2.31L67.59,126a2.77,2.77,0,0,0,2.69,2.48H87.2a2.07,2.07,0,0,0,2.1-2.31l-1.48-16.92a2.76,2.76,0,0,0-2.69-2.48Z"/></g><path class="cls-8" d="M74.19,124.69,61.28,112.82a2.22,2.22,0,0,1-.13-3.15h0a2.22,2.22,0,0,1,3.15-.13l9.62,8.85L92.57,97.94a2.23,2.23,0,0,1,3.15-.14h0a2.22,2.22,0,0,1,.14,3.14Z"/><g class="cls-15"><path d="M74.19,124.69,61.28,112.82a2.22,2.22,0,0,1-.13-3.15h0a2.22,2.22,0,0,1,3.15-.13l9.62,8.85L92.57,97.94a2.23,2.23,0,0,1,3.15-.14h0a2.22,2.22,0,0,1,.14,3.14Z"/></g><path class="cls-4" d="M93.05,299.84H74.25A5.36,5.36,0,0,1,69,295l-1.64-18.8a4.52,4.52,0,0,1,4.57-5h18.8A5.36,5.36,0,0,1,96,276l1.65,18.8a4.54,4.54,0,0,1-4.57,5ZM71.94,273.47A2.28,2.28,0,0,0,69.61,276l1.64,18.8a3.08,3.08,0,0,0,3,2.76h18.8A2.29,2.29,0,0,0,95.38,295l-1.65-18.8a3.07,3.07,0,0,0-3-2.76Z"/><g class="cls-14"><path class="cls-7" d="M93.05,299.84H74.25A5.36,5.36,0,0,1,69,295l-1.64-18.8a4.52,4.52,0,0,1,4.57-5h18.8A5.36,5.36,0,0,1,96,276l1.65,18.8a4.54,4.54,0,0,1-4.57,5ZM71.94,273.47A2.28,2.28,0,0,0,69.61,276l1.64,18.8a3.08,3.08,0,0,0,3,2.76h18.8A2.29,2.29,0,0,0,95.38,295l-1.65-18.8a3.07,3.07,0,0,0-3-2.76Z"/></g><path class="cls-8" d="M78.59,293.36l-14.35-13.2a2.47,2.47,0,0,1-.14-3.49h0a2.47,2.47,0,0,1,3.49-.14l10.7,9.83L99,263.64a2.47,2.47,0,0,1,3.5-.16h0a2.47,2.47,0,0,1,.16,3.49Z"/><g class="cls-15"><path d="M78.59,293.36l-14.35-13.2a2.47,2.47,0,0,1-.14-3.49h0a2.47,2.47,0,0,1,3.49-.14l10.7,9.83L99,263.64a2.47,2.47,0,0,1,3.5-.16h0a2.47,2.47,0,0,1,.16,3.49Z"/></g><path class="cls-4" d="M177.22,105.64H160.3a4.83,4.83,0,0,1-4.71-4.33l-1.48-16.92a4.09,4.09,0,0,1,4.12-4.5h16.92a4.82,4.82,0,0,1,4.71,4.33l1.48,16.92a4.08,4.08,0,0,1-4.12,4.5Zm-19-23.73a2.07,2.07,0,0,0-2.1,2.31l1.48,16.92a2.76,2.76,0,0,0,2.69,2.48h16.92a2.07,2.07,0,0,0,2.1-2.31l-1.48-16.92a2.77,2.77,0,0,0-2.69-2.48Z"/><g class="cls-14"><path class="cls-7" d="M177.22,105.64H160.3a4.83,4.83,0,0,1-4.71-4.33l-1.48-16.92a4.09,4.09,0,0,1,4.12-4.5h16.92a4.82,4.82,0,0,1,4.71,4.33l1.48,16.92a4.08,4.08,0,0,1-4.12,4.5Zm-19-23.73a2.07,2.07,0,0,0-2.1,2.31l1.48,16.92a2.76,2.76,0,0,0,2.69,2.48h16.92a2.07,2.07,0,0,0,2.1-2.31l-1.48-16.92a2.77,2.77,0,0,0-2.69-2.48Z"/></g><path class="cls-8" d="M164.22,99.81,151.3,87.94a2.24,2.24,0,0,1-.13-3.15h0a2.22,2.22,0,0,1,3.15-.13l9.62,8.85L182.6,73.06a2.22,2.22,0,0,1,3.14-.14h0a2.23,2.23,0,0,1,.15,3.15Z"/><g class="cls-15"><path d="M164.22,99.81,151.3,87.94a2.24,2.24,0,0,1-.13-3.15h0a2.22,2.22,0,0,1,3.15-.13l9.62,8.85L182.6,73.06a2.22,2.22,0,0,1,3.14-.14h0a2.23,2.23,0,0,1,.15,3.15Z"/></g></g><g id="Character"><g id="Chair"><path class="cls-4" d="M321.18,259.84h11.87a12,12,0,0,0,11.93-11l2.16-27.36-4.5-.35-2.16,27.36a7.49,7.49,0,0,1-7.43,6.87H321.18Z"/><path class="cls-5" d="M321.18,259.84h11.87a12,12,0,0,0,11.93-11l2.16-27.36-4.5-.35-2.16,27.36a7.49,7.49,0,0,1-7.43,6.87H321.18Z"/><path class="cls-16" d="M337.67,253.7l-.71,3.22a6.6,6.6,0,0,1-1.24,2.6,11.82,11.82,0,0,1-2.67.32H321.18v-4.51h11.87A7.4,7.4,0,0,0,337.67,253.7Z"/><path class="cls-8" d="M327.17,224.37a5.18,5.18,0,0,1-4.63-5.68l3.59-35a5.18,5.18,0,0,1,5.68-4.63h34.3a3.47,3.47,0,0,1,3.09,3.8l-3.94,38.45a3.44,3.44,0,0,1-3.79,3.08Z"/><path class="cls-17" d="M327.17,224.37a5.18,5.18,0,0,1-4.63-5.68l3.59-35a5.18,5.18,0,0,1,5.68-4.63h34.3a3.47,3.47,0,0,1,3.09,3.8l-3.94,38.45a3.44,3.44,0,0,1-3.79,3.08Z"/><path class="cls-8" d="M365.26,221.29l3.94-38.45a3.47,3.47,0,0,0-3.09-3.8h0a5.18,5.18,0,0,0-5.68,4.63l-3.59,35a5.18,5.18,0,0,0,4.63,5.68h0A3.44,3.44,0,0,0,365.26,221.29Z"/><path class="cls-4" d="M326.47,326.15l-.31-.94a2.89,2.89,0,0,0-2.76-2H291.33a2.92,2.92,0,0,0-2.84,2.28l-.08.37a2.81,2.81,0,0,1-2.75,2.21h0a2.81,2.81,0,0,1-2.76-3.42l.08-.37a8.56,8.56,0,0,1,8.35-6.71H323.4a8.55,8.55,0,0,1,8.12,5.87l.31.93a2.82,2.82,0,0,1-2.68,3.7h0A2.82,2.82,0,0,1,326.47,326.15Z"/><path class="cls-5" d="M326.47,326.15l-.31-.94a2.89,2.89,0,0,0-2.76-2H291.33a2.92,2.92,0,0,0-2.84,2.28l-.08.37a2.81,2.81,0,0,1-2.75,2.21h0a2.81,2.81,0,0,1-2.76-3.42l.08-.37a8.56,8.56,0,0,1,8.35-6.71H323.4a8.55,8.55,0,0,1,8.12,5.87l.31.93a2.82,2.82,0,0,1-2.68,3.7h0A2.82,2.82,0,0,1,326.47,326.15Z"/><rect class="cls-16" x="302.66" y="317.58" width="9.92" height="5.64"/><path class="cls-4" d="M307.62,327.44h0a2.82,2.82,0,0,0,2.82-2.82v-75H304.8v75A2.82,2.82,0,0,0,307.62,327.44Z"/><path class="cls-5" d="M307.62,327.44h0a2.82,2.82,0,0,0,2.82-2.82v-75H304.8v75A2.82,2.82,0,0,0,307.62,327.44Z"/><path class="cls-4" d="M303.67,332.56a3.95,3.95,0,1,0,3.95-3.95A4,4,0,0,0,303.67,332.56Z"/><path class="cls-4" d="M328,332.56a4,4,0,1,0,4-3.95A4,4,0,0,0,328,332.56Z"/><path class="cls-4" d="M278.89,332.56a3.95,3.95,0,1,0,3.95-3.95A3.95,3.95,0,0,0,278.89,332.56Z"/><rect class="cls-16" x="304.8" y="254.02" width="5.64" height="13.34"/><path class="cls-4" d="M289.32,260.44h37.2a6.65,6.65,0,0,0,6.49-5.21l1.11-5h-53l1.88,5.69A6.64,6.64,0,0,0,289.32,260.44Z"/><path class="cls-5" d="M289.32,260.44h37.2a6.65,6.65,0,0,0,6.49-5.21l1.11-5h-53l1.88,5.69A6.64,6.64,0,0,0,289.32,260.44Z"/><path class="cls-8" d="M275.29,245.09h57.9a3.31,3.31,0,0,1,3.31,3.31v.76a5,5,0,0,1-5,5h-54.6a5,5,0,0,1-5-5v-.76A3.31,3.31,0,0,1,275.29,245.09Z" transform="translate(608.47 499.24) rotate(-180)"/><path class="cls-17" d="M275.29,245.09h57.9a3.31,3.31,0,0,1,3.31,3.31v.76a5,5,0,0,1-5,5h-54.6a5,5,0,0,1-5-5v-.76A3.31,3.31,0,0,1,275.29,245.09Z" transform="translate(608.47 499.24) rotate(-180)"/><path class="cls-8" d="M309.13,245.09h35.34a3.31,3.31,0,0,1,3.31,3.31v.76a5,5,0,0,1-5,5h-32a5,5,0,0,1-5-5v-.76A3.31,3.31,0,0,1,309.13,245.09Z" transform="translate(653.6 499.24) rotate(180)"/></g><polygon class="cls-18" points="252.52 310.17 249.19 326.22 242.1 325.26 243.56 308.62 252.52 310.17"/><path class="cls-4" d="M241.61,324.45l8.61.6a.57.57,0,0,1,.53.58h0l-.05,6.92a1.38,1.38,0,0,1-1.44,1.29c-3-.26-4.42-.54-8.21-.83A70.8,70.8,0,0,1,231,331.93c-3.19-.74-2.34-3.87-.94-3.84a20.68,20.68,0,0,0,10.2-3.33A2.15,2.15,0,0,1,241.61,324.45Z"/><path class="cls-4" d="M237.39,325.1a1,1,0,0,1-.15-1,.64.64,0,0,1,.45-.48c1-.3,3,1.35,3.27,1.54a.25.25,0,0,1,0,.19.18.18,0,0,1-.15.13,8.89,8.89,0,0,1-2.06.13A2.08,2.08,0,0,1,237.39,325.1Zm.4-1.13a.36.36,0,0,0-.22.23.68.68,0,0,0,.08.66c.34.39,1.34.5,2.74.32-.86-.63-2.09-1.38-2.6-1.21Z"/><path class="cls-4" d="M240.73,325.43c-.73-.5-1.76-2.21-1.54-3.05a.71.71,0,0,1,.7-.49.91.91,0,0,1,.74.3c.71.82.38,3.06.38,3.13a.17.17,0,0,1-.1.13.06.06,0,0,1-.08,0A.12.12,0,0,1,240.73,325.43Zm-.83-3.14c-.26,0-.35.12-.35.23a3.79,3.79,0,0,0,1.13,2.45,4,4,0,0,0-.33-2.49.45.45,0,0,0-.37-.19Z"/><polygon class="cls-16" points="243.56 308.62 252.52 310.17 250.84 318.28 242.79 317.45 243.56 308.62"/><path class="cls-4" d="M312.22,205s-.92,15-4.92,15.69-54.91,11.08-58.58,23.08S242,315.6,242,315.6l10.18.92s14-50.76,13.34-64.26c0,0,44.5,0,59.33-8.16s7.7-37.32,7.7-37.32Z"/><path class="cls-10" d="M312.22,205s-.92,15-4.92,15.69-54.91,11.08-58.58,23.08S242,315.6,242,315.6l10.18.92s14-50.76,13.34-64.26c0,0,44.5,0,59.33-8.16s7.7-37.32,7.7-37.32Z"/><path class="cls-16" d="M266.81,252.25c1.87,0,5.68-.08,10.55-.28l6.4-4.94,37.5-7.56,1.42-12.08s-36.92,2.58-46.82,8.08C268.44,239.59,267.05,248.19,266.81,252.25Z"/><polygon class="cls-18" points="276.39 313.33 273.08 329.62 265.96 328.91 267.38 312.08 276.39 313.33"/><path class="cls-4" d="M265.34,326.81l8.58.94a.55.55,0,0,1,.5.58h0l-.31,6.93a1.35,1.35,0,0,1-1.44,1.27h0c-3-.38-4.37-.71-8.17-1.15a69.35,69.35,0,0,1-10-1.4c-3.11-.86-2.19-4-.8-3.86,3.3.18,8-1.49,10.35-3A2.13,2.13,0,0,1,265.34,326.81Z"/><path class="cls-4" d="M261.15,327.34a1,1,0,0,1-.13-1.07.68.68,0,0,1,.46-.47c1-.22,3,1.47,3.21,1.67a.22.22,0,0,1,0,.19.17.17,0,0,1-.16.12,9,9,0,0,1-2.07.06A2.13,2.13,0,0,1,261.15,327.34Zm.37-1.15a.3.3,0,0,0-.22.23.63.63,0,0,0,.08.66c.31.39,1.32.54,2.72.42-.83-.67-2-1.46-2.56-1.31Z"/><path class="cls-4" d="M264.44,327.72c-.73-.51-1.69-2.26-1.44-3.08a.68.68,0,0,1,.71-.48,1,1,0,0,1,.73.33c.69.84.25,3.09.26,3.15a.19.19,0,0,1-.11.14.06.06,0,0,1-.06,0A.11.11,0,0,1,264.44,327.72Zm-.73-3.1c-.25,0-.38.12-.36.23a3.83,3.83,0,0,0,1.06,2.48,4.15,4.15,0,0,0-.24-2.51.62.62,0,0,0-.37-.2Z"/><polygon class="cls-16" points="276.26 313.97 274.95 320.38 266.81 318.88 267.38 312.11 276.26 313.97"/><path class="cls-18" d="M327.67,157.49c-8.13-1.08-1.81-3.79-1.81-3.79,5.52-1,5.85-5,5.37-8.77l10.1-7.39c-1.52,4.75-3.51,13.49-.53,16.83,0,0,2.06,4.32-10.61,3.37Z"/><path class="cls-16" d="M337.21,140.56l-6,4.37a14,14,0,0,1,.14,2.66c2.09-.2,5.17-2.31,5.64-4.44A7,7,0,0,0,337.21,140.56Z"/><path class="cls-18" d="M345.87,128.08c-1.81,7.7-2.41,11-7,14.51-6.91,5.3-15.93,1.92-16.45-6C322,129.4,325,118,333.09,115.82A10.12,10.12,0,0,1,345.87,128.08Z"/><path class="cls-4" d="M333.52,128.82c-.13.65-.57,1.14-1,1.09s-.65-.62-.53-1.27.56-1.14,1-1.09S333.64,128.17,333.52,128.82Z"/><path class="cls-4" d="M325.61,128c-.12.65-.56,1.14-1,1.09s-.66-.62-.54-1.27.57-1.14,1-1.09S325.74,127.34,325.61,128Z"/><path class="cls-4" d="M325.26,126.78l-1.46-.63S324.36,127.47,325.26,126.78Z"/><path class="cls-19" d="M327.61,129.33a19.3,19.3,0,0,1-3.08,3.89,2.62,2.62,0,0,0,2.2.71Z"/><path class="cls-4" d="M330,136.78a6.74,6.74,0,0,1-1.09,0,.19.19,0,0,1-.15-.22.21.21,0,0,1,.22-.17,5.56,5.56,0,0,0,4.53-1.52.18.18,0,0,1,.27,0,.19.19,0,0,1,0,.27A5.8,5.8,0,0,1,330,136.78Z"/><path class="cls-4" d="M335.89,125.39a.34.34,0,0,1-.27-.13,2.79,2.79,0,0,0-2.46-1.07.37.37,0,0,1-.42-.33.43.43,0,0,1,.36-.44,3.54,3.54,0,0,1,3.13,1.33.39.39,0,0,1-.07.54A.41.41,0,0,1,335.89,125.39Z"/><path class="cls-4" d="M324,124.15a.35.35,0,0,1-.26-.1.38.38,0,0,1,0-.54,4.07,4.07,0,0,1,3.35-1.32.35.35,0,0,1,.29.44.42.42,0,0,1-.46.32,3.25,3.25,0,0,0-2.65,1.07A.45.45,0,0,1,324,124.15Z"/><path class="cls-4" d="M333.16,127.61l-1.45-.64S332.26,128.29,333.16,127.61Z"/><path class="cls-18" d="M279.34,192.57l.44,0c.85-.06,2-.09,2.92-.2s2-.25,2.91-.43a19.13,19.13,0,0,0,5-1.57,10.12,10.12,0,0,0,1.86-1.14,7.89,7.89,0,0,0,.74-.66c.11-.11.23-.22.33-.34l.39-.43,2-2.18,2-2.22c2.59-3,5-6.06,7.37-9.2,1.17-1.57,2.3-3.16,3.41-4.74.55-.8,1.09-1.6,1.61-2.4s1.07-1.64,1.48-2.32l.08-.12a6.16,6.16,0,0,1,7.61-2.14c2.85,1.22,4,4.22,2.6,6.7-.6,1-1.1,1.9-1.69,2.81s-1.16,1.78-1.77,2.65c-1.18,1.75-2.45,3.44-3.76,5.11a116.23,116.23,0,0,1-8.49,9.61c-1.51,1.54-3.1,3-4.7,4.48-.17.16-.46.41-.75.64a9.71,9.71,0,0,1-.88.67,14,14,0,0,1-1.88,1.16,19.53,19.53,0,0,1-4,1.62,25.35,25.35,0,0,1-8.06.84,27.64,27.64,0,0,1-3.79-.44,28.08,28.08,0,0,1-3.72-.93,2.57,2.57,0,0,1-1.84-2.13A2.62,2.62,0,0,1,279.34,192.57Z"/><path class="cls-4" d="M315.53,158.08s-2.31,0-11,14.91c0,0,3.57,8.72,12.86,9.16C317.36,182.15,335.54,157.08,315.53,158.08Z"/><path class="cls-20" d="M313,162.77l4.81-1.15,5.67,3,1.12,2.82c-1.46,6.77-7.23,14.73-7.23,14.73a14,14,0,0,1-9.48-4.31A97,97,0,0,0,313,162.77Z"/><path class="cls-18" d="M270.61,191.05l2.64-1.29a4,4,0,0,1,3.23-.1l4.82,2a5.89,5.89,0,0,1,3.66,4.17l.23,1.13c-4.21,2.4-10.8,2.28-10.8,2.28l-1.88.15a2.86,2.86,0,0,1-3.27-2.26l-.39-3.24A2.88,2.88,0,0,1,270.61,191.05Z"/><path class="cls-4" d="M321.3,205s1.08,23-2.93,23.69-40.91,4.08-44.57,16.08-7.69,71.84-7.69,71.84l10.19,1.92s16-52.76,15.33-66.26c0,0,40.61,1.21,49.33-7.16s6.71-38.32,6.71-38.32Z"/><path class="cls-10" d="M321.3,205s1.08,23-2.93,23.69-40.91,4.08-44.57,16.08-7.69,71.84-7.69,71.84l10.19,1.92s16-52.76,15.33-66.26c0,0,40.61,1.21,49.33-7.16s6.71-38.32,6.71-38.32Z"/><path class="cls-4" d="M327.76,153.57c-.27.17-6.71,4.36,1.69,4.36s11.07-3.65,11.13-3.74c3,.44,6.38,1.09,10.11,2L348,212.54s-23.61,2.13-36.8-3.82c0,0-1.68-41.46,2.23-48C313.38,160.71,315.33,154.54,327.76,153.57Z"/><path class="cls-20" d="M350.15,166.6,349,188.51c-4.7-15.59-4.55-23.65-4.55-23.65l1.25-2.93Z"/><path class="cls-18" d="M377.56,170.25a2.44,2.44,0,0,0-2.49,1.06l0,.06c-1.17,1.71-2.36,3.5-3.59,5.2s-2.43,3.4-3.7,5c-.81,1-1.67,2-2.51,2.91a1.18,1.18,0,0,1-1.91-.31c-1.3-2.71-2.51-5.5-3.66-8.34-.82-2.08-1.64-4.18-2.41-6.29s-1.53-4.28-2.22-6.29l0-.11a5,5,0,0,0-6.63-3,5.12,5.12,0,0,0-2.84,6.19c.69,2.35,1.47,4.49,2.28,6.71s1.76,4.46,2.75,6.65,2.05,4.37,3.19,6.51,2.39,4.26,3.72,6.33l.17.27a3.74,3.74,0,0,0,.41.5,7.24,7.24,0,0,0,1.77,1.33,6.39,6.39,0,0,0,2.4.73,7.11,7.11,0,0,0,3.9-.74,13.07,13.07,0,0,0,3.71-3,34.79,34.79,0,0,0,4.16-5.92c1.13-2,2.13-4,3.05-6s1.73-4.06,2.46-6.21A2.52,2.52,0,0,0,377.56,170.25Z"/><path class="cls-4" d="M364.45,176.07A22,22,0,0,1,349,182.4s-10.1-23.89-1.3-26.37C356,153.68,364.45,176.07,364.45,176.07Z"/><path class="cls-18" d="M376,162.94,374,164.72a3.06,3.06,0,0,0-1,2.64l.58,4.61a5.69,5.69,0,0,0,3,4.32l1,.55c3.42-2.75,5.1-8.23,5.1-8.23l.65-1.52a2.55,2.55,0,0,0-1.27-3.4l-3-1.33A2.94,2.94,0,0,0,376,162.94Z"/><path class="cls-8" d="M329,221.77l-56.57,5.31a1.54,1.54,0,0,0,.29,3.07l56.57-5.31a1.54,1.54,0,0,0-.29-3.07Z"/><path class="cls-8" d="M273.43,229.13l26.15-2.45a.73.73,0,0,0,.6-1l-13.37-29.13a2.08,2.08,0,0,0-2.08-1.2l-26.16,2.45a.73.73,0,0,0-.59,1l13.36,29.12A2.08,2.08,0,0,0,273.43,229.13Z"/><path class="cls-8" d="M272.5,229.22l26.15-2.45a.74.74,0,0,0,.6-1l-13.37-29.12a2.07,2.07,0,0,0-2.08-1.2l-26.15,2.45a.73.73,0,0,0-.6,1L270.42,228A2.07,2.07,0,0,0,272.5,229.22Z"/><path class="cls-21" d="M272.5,229.22l26.15-2.45a.74.74,0,0,0,.6-1l-13.37-29.12a2.07,2.07,0,0,0-2.08-1.2l-26.15,2.45a.73.73,0,0,0-.6,1L270.42,228A2.07,2.07,0,0,0,272.5,229.22Z"/><path class="cls-21" d="M302.14,227.39a1.55,1.55,0,0,1-.29-3.08L329,221.77a1.54,1.54,0,0,1,.29,3.07Z"/><rect class="cls-20" x="306.58" y="224.96" width="2.2" height="0.72" transform="translate(635.08 420.9) rotate(174.64)"/><rect class="cls-20" x="303.22" y="225.27" width="2.2" height="0.72" transform="translate(628.38 421.85) rotate(174.64)"/><path class="cls-4" d="M343.47,134a10.2,10.2,0,0,1-2.7-11.78,16.83,16.83,0,0,0-6.52-1.49c-5,0-10.72,1.06-9.19-2.76,0,0-5.31-6.76,3.73-7.71,0,0-.46-8.51,6.84-3,0,0,6.07-7.22,9.09,2.56,0,0,9.14-4.77,6.75,7,0,0,6.46.12,2.39,7.65,0,0,3.37,4.58-3.34,8.62,0,0,.54,6.55-4.35,5.37,0,0-5.61,7.86-6.37,4.2C339.09,139.18,343.47,134,343.47,134Z"/><path class="cls-18" d="M346.29,135.6a5.45,5.45,0,0,1-3.43,2.74c-1.83.4-2.52-1.71-1.83-3.75.63-1.83,2.33-4.26,4.08-3.73S347.28,133.82,346.29,135.6Z"/><polygon class="cls-8" points="342.38 137.54 340.48 141.01 344.81 141.01 342.9 137.54 342.38 137.54"/><polygon class="cls-16" points="342.38 137.54 340.48 141.01 344.81 141.01 342.9 137.54 342.38 137.54"/><polygon class="cls-8" points="340.48 141.01 342.38 137.54 344.29 141.01 340.48 141.01"/><polygon class="cls-4" points="241.36 316.05 252.51 317.21 253.38 314.05 241.36 312.71 241.36 316.05"/><polygon class="cls-4" points="265.55 317.22 276.6 319.1 277.67 315.99 265.76 313.89 265.55 317.22"/></g><g id="Target"><path class="cls-4" d="M253.87,150c-19.17,0-36.13-15.59-37.81-34.76s12.56-34.76,31.72-34.76S283.91,96,285.59,115.21,273,150,253.87,150Z"/><path class="cls-8" d="M255.54,149.14c-19.17,0-36.13-15.6-37.8-34.77s12.55-34.76,31.72-34.76,36.12,15.6,37.8,34.76S274.71,149.14,255.54,149.14Z"/><g class="cls-22"><path class="cls-7" d="M255.54,149.14c-19.17,0-36.13-15.6-37.8-34.77s12.55-34.76,31.72-34.76,36.12,15.6,37.8,34.76S274.71,149.14,255.54,149.14Z"/></g><path class="cls-8" d="M255.54,149.14c-19.17,0-36.13-15.6-37.8-34.77s12.55-34.76,31.72-34.76,36.12,15.6,37.8,34.76S274.71,149.14,255.54,149.14ZM250,86.3c-15.48,0-27,12.59-25.62,28.07s15.05,28.08,30.53,28.08,27-12.6,25.62-28.08S265.52,86.3,250,86.3Z"/><path class="cls-8" d="M254.42,136.4a24.54,24.54,0,0,1-23.94-22,19.87,19.87,0,0,1,20.09-22,24.55,24.55,0,0,1,23.95,22A19.88,19.88,0,0,1,254.42,136.4ZM251.16,99a13.84,13.84,0,0,0-14,15.33,17.09,17.09,0,0,0,16.68,15.34,13.84,13.84,0,0,0,14-15.34A17.09,17.09,0,0,0,251.16,99Z"/><path class="cls-8" d="M261.2,114.37a7.85,7.85,0,0,1-7.94,8.7,9.68,9.68,0,0,1-9.46-8.7,7.84,7.84,0,0,1,7.94-8.69A9.68,9.68,0,0,1,261.2,114.37Z"/><polygon class="cls-4" points="276.89 90.07 275.19 83.46 282.09 76.57 283.78 83.18 276.89 90.07"/><polygon class="cls-4" points="276.89 90.07 283.5 91.76 290.39 84.87 283.78 83.18 276.89 90.07"/><rect class="cls-4" x="264.75" y="81.26" width="1.88" height="40.02" transform="translate(149.43 -158.21) rotate(45)"/></g></g></svg>