<svg xmlns="http://www.w3.org/2000/svg" viewBox="0 0 1764.72 1087.71"><defs><style>.cls-2{fill:#fff}.cls-3{fill:#0e2549}.cls-4{fill:#a1c5e2}.cls-5{fill:#d2ebfc}.cls-6{fill:#2e6b99}.cls-7{fill:#e2474b}.cls-8{fill:#1e5272}</style></defs><g id="Layer_2" data-name="Layer 2"><g id="abs" data-name="abs"><path d="M252 1086.08S-52.83 1049.69 8 797.29 351.33 539.81 458.22 368.4 711.88-64.53 1116.93 14.52c481.53 94 275.85 458.23 366.4 562.19s229.6 97.71 268.15 236.53c72 259.36-180.8 268-249.85 272.84Z" fill="#d7e9f4"/><path class="cls-2" d="M705.5 851.62c-23.43-31-175.29 116.25-160.72 83.32s63.32-183.37 15.72-198.61-57.57 74.29-102.28 41.18 13.16-182.23-21.29-187.93-22 129-77.16 91.78c-48-32.4-91.78-105.77-117.21-95.43 15.3 22.83 59.21 89.35 106.89 170.73 54.4 92.84 125 224.56 152.24 324.81a1.51 1.51 0 0 1-1.06 1.84 1.31 1.31 0 0 1-.39 0 1.51 1.51 0 0 1-1.45-1.1c-27.17-99.93-97.61-231.39-151.92-324.07-47.81-81.6-91.83-148.26-107-170.83-2.76 1.89-5.27 4.91-7.51 9.29-22.54 44 91.53 172 59.33 192.52s-136.8 32.45-103.8 68.1 197.68 68.45 189.69 108.24-97.75-23.46-126.65 9.43 165 109.34 165 109.34 37 6.39 98.45 1.85S728.93 882.62 705.5 851.62ZM1179.93 941.88c-28.52-11.2-80.17 78.7-98.31 112.38 3.59-18.41 8.89-39.68 15-61.58 10.54-10.46 145.27-145.07 111.63-158.27-28.37-11.14-79.62 77.75-98 111.84 18-58.46 36.49-110 36.82-111l-2.83-1c-.34 1-20.74 57.73-39.49 119.75 3.5-16.32 10.28-69.65-29.48-137.44-44.07-75.15 10.25 136.7 19.44 171.87-7.56 27-14.05 53.25-17.7 74.61-1.2 2.31-1.86 3.6-1.86 3.6s19.84-60.76-28.16-142.61 0 152.57 0 152.57l30.01-3.6 1.4.2.06-.37 24.29-3s112.18-114.21 77.18-127.95ZM1418.55 383.62c-18-13.25-52.78 26.42-78.15 60.89 6.57-19.71 12.93-40.95 18.2-59.41 21.44-36.54 76.24-136.42 42.13-148.51-33.3-11.81-47.19 127.6-49.72 156.61-6.23 21.38-13.6 45.27-20.9 65.69l-1.25 1.81c9.77-22.13 17.13-57.28 3.66-106.2-25.2-91.5-38.52 165.88-38.52 165.88S1448.8 406 1418.55 383.62Z"/><path class="cls-2" d="M1268.77 468.07h416.4v617.71h-416.4z"/><path class="cls-3" d="M1686.68 1087.28h-419.41V466.57h419.41Zm-416.41-3h413.41V469.57h-413.41Z"/><circle class="cls-4" cx="1380.68" cy="573.55" r="37.47" transform="rotate(-22.5 1380.674 573.549)"/><path class="cls-3" d="m1374.78 582.35-30-32.19a1.5 1.5 0 1 1 2.19-2l28.07 30.11 56.44-46.52a1.5 1.5 0 1 1 1.9 2.31ZM1380.68 805a39 39 0 1 1 39-39 39 39 0 0 1-39 39Zm0-75a36 36 0 1 0 36 36 36 36 0 0 0-36-36ZM1380.68 997.38a39 39 0 1 1 39-39 39 39 0 0 1-39 39Zm0-75a36 36 0 1 0 36 36 36 36 0 0 0-36-35.95ZM1650.26 546.12h-201a1.5 1.5 0 0 1 0-3h201a1.5 1.5 0 0 1 0 3ZM1509.47 587.76h-57a1.5 1.5 0 0 1 0-3h57a1.5 1.5 0 0 1 0 3ZM128.1 629.69l3.56-2.93a1.5 1.5 0 1 0-1.91-2.31l-4.2 3.46c-11.31-7.43-26.91-12-44.12-12-34.46 0-62.5 18.46-62.5 41.15s28 41.14 62.5 41.14c1.41 0 2.88 0 4.47-.11 7.32 11.85 19.16 29.32 19.28 29.5l1.81 2.66 11.4-40c16-7.72 25.54-20.09 25.54-33.19 0-10.52-6-20.06-15.83-27.37Zm-11.6 58.1-.62.29-10 35.12c-3.71-5.51-12.31-18.39-17.88-27.48l-.47-.76h-.89c-1.88.11-3.58.16-5.2.16-32.81 0-59.5-17.11-59.5-38.14s26.69-38.15 59.5-38.15c16.25 0 31 4.21 41.74 11L73.31 671l-28.07-30.14a1.5 1.5 0 1 0-2.19 2l30 32.19 52.72-43.47c9.42 6.75 15.16 15.65 15.16 25.4 0 12.11-9.14 23.62-24.43 30.81Z"/><path class="cls-4" d="M794.68 857.27h167.34v155.33H794.68z"/><rect class="cls-5" x="424.44" y="238.83" width="897.23" height="645.37" rx="27.14"/><path class="cls-3" d="M1294.53 885.69H451.58a28.67 28.67 0 0 1-28.64-28.64V266a28.68 28.68 0 0 1 28.64-28.64h843a28.68 28.68 0 0 1 28.59 28.64v591.05a28.67 28.67 0 0 1-28.64 28.64ZM451.58 240.33A25.67 25.67 0 0 0 425.94 266v591.05a25.67 25.67 0 0 0 25.64 25.64h843a25.67 25.67 0 0 0 25.64-25.64V266a25.67 25.67 0 0 0-25.64-25.64Z"/><path class="cls-2" d="M478.52 282.95h796.67v517.62H478.52z"/><path class="cls-3" d="M1276.69 802.07H477V281.45h799.67Zm-796.67-3h793.67V284.45H480Z"/><path class="cls-6" d="M705.5 1010.66h345.69v75.42H705.5z"/><circle class="cls-4" cx="1147.72" cy="320.15" r="9.71" transform="rotate(-76.72 1147.679 320.167)"/><circle class="cls-4" cx="1182.8" cy="319.99" r="9.71"/><path class="cls-4" d="M1227.58 320a9.71 9.71 0 1 1-9.71-9.7 9.7 9.7 0 0 1 9.71 9.7Z"/><path class="cls-7" d="M691.49 618.85h361.42v180.19H691.49z"/><path class="cls-4" d="M1041.39 510.29H706.16l-39.81 82.82v52.32h402.28v-52.32l-27.24-82.82z"/><path class="cls-3" d="M983.76 531.59a12.34 12.34 0 0 1-12.31 12.3H766.12a12.31 12.31 0 0 1 0-24.61h205.33a12.35 12.35 0 0 1 12.31 12.31Z"/><path class="cls-2" d="m947.73 483.39-7.24 34.62-5.06 24.19H806.56l5.06-24.19 12.45-59.58 123.66 24.96z"/><path class="cls-3" d="M936.65 543.7H804.71l18.2-87 126.6 25.55Zm-128.25-3h125.82L946 484.56 825.24 460.2Z"/><path class="cls-4" d="M857.29 502.42a14.14 14.14 0 1 1-11-16.7 14.14 14.14 0 0 1 11 16.7Z"/><path class="cls-3" d="M820.74 543.7a1.46 1.46 0 0 1-.84-.26 1.5 1.5 0 0 1-.4-2.08 15.66 15.66 0 0 1 25.88 0 1.5 1.5 0 0 1-2.48 1.69 12.64 12.64 0 0 0-20.92 0 1.51 1.51 0 0 1-1.24.65ZM924.91 507.92a1.53 1.53 0 0 1-.3 0l-53.87-11.07a1.5 1.5 0 1 1 .6-2.94L925.21 505a1.5 1.5 0 0 1-.3 3ZM893.07 519.74h-.3l-25.65-5.27a1.5 1.5 0 1 1 .6-2.94l25.65 5.27a1.5 1.5 0 0 1-.3 3ZM841.78 503.7l-10.33-17.12A1.5 1.5 0 0 1 834 485l8.81 14.61L873.67 482a1.5 1.5 0 1 1 1.49 2.61Z"/><rect class="cls-2" x="774.48" y="678.37" width="181.67" height="66" rx="28.34"/><path class="cls-3" d="M927.8 745.87h-125A29.88 29.88 0 0 1 773 716v-9.32a29.88 29.88 0 0 1 29.85-29.84h125a29.88 29.88 0 0 1 29.85 29.84V716a29.88 29.88 0 0 1-29.9 29.87Zm-125-66a26.87 26.87 0 0 0-26.8 26.84V716a26.87 26.87 0 0 0 26.85 26.84h125a26.87 26.87 0 0 0 26.8-26.84v-9.32a26.87 26.87 0 0 0-26.85-26.84ZM876.85 864.42a21.1 21.1 0 1 1 21.1-21.1 21.12 21.12 0 0 1-21.1 21.1Zm0-39.2a18.1 18.1 0 1 0 18.1 18.1 18.12 18.12 0 0 0-18.1-18.1ZM1261.51 855.07a12.77 12.77 0 1 1 12.77-12.77 12.79 12.79 0 0 1-12.77 12.77Zm0-22.54a9.77 9.77 0 1 0 9.77 9.77 9.79 9.79 0 0 0-9.77-9.77Z"/><path d="M803.41 710.68c.05 1.85.67 2.77 1.85 2.77h.06v2.91H805a3.86 3.86 0 0 1-3.23-1.27 4.25 4.25 0 0 1-2.07 1 24.08 24.08 0 0 1-4.48.3h-2.76a13.16 13.16 0 0 1-2.33-.24 6.36 6.36 0 0 1-2.18-.8 4.18 4.18 0 0 1-1.63-1.84 3.58 3.58 0 0 1-.26-1.36 6.32 6.32 0 0 1 .89-3l2.59 1.22a4.3 4.3 0 0 0-.23 1.3 2.74 2.74 0 0 0 .12.81c.17.63.83 1 2 1h6.18c1.94 0 2.94-.82 3-2.46v-1.87h2.86ZM792 708.85c.51-.06 1-.1 1.55-.13s1.08 0 1.66 0h1.39c.51 0 1.08 0 1.7.08l-.28 2.34c-1.22-.08-2.14-.11-2.78-.11a16.59 16.59 0 0 0-2.11.12h-.53Z"/><path d="M816.3 716.37h-.11a3.64 3.64 0 0 1-2.77-1.06 2.79 2.79 0 0 1-2.37 1.06 2.76 2.76 0 0 1-2.36-1.06 5.29 5.29 0 0 1-3.49 1.06v-2.92c1.29 0 2-.91 2-2.68v-1.68h2.9v1.68q.21 2.64 1 2.64c.5 0 .8-.88.9-2.65v-1.68h2.9v1.68c0 1.35.19 2.17.58 2.47a.74.74 0 0 0 .49.19 1.1 1.1 0 0 0 .74-.36 1.07 1.07 0 0 0 .26-.8 6.79 6.79 0 0 0-.55-2.2l2.54-1.42a8.34 8.34 0 0 1 1 2.62v.88a3.75 3.75 0 0 1-.49 2.1 4 4 0 0 1-3.17 2.13ZM823.5 705.92c0 .42.08.9.1 1.44s0 1.14 0 1.77c0 1.31.06 2.45.07 3.41s0 1.76 0 2.4v1.43h-2.87V714c0-2.09 0-3.72-.06-4.86a35.74 35.74 0 0 0-.36-5.43l2.77-.46a18.17 18.17 0 0 1 .35 2.67ZM846.13 710.68c0 1.85.67 2.77 1.85 2.77h.02v2.91h-.33a3.86 3.86 0 0 1-3.23-1.27 4.25 4.25 0 0 1-2.07 1 24.08 24.08 0 0 1-4.48.3h-2.76a13.16 13.16 0 0 1-2.33-.24 6.28 6.28 0 0 1-2.18-.8 4.12 4.12 0 0 1-1.63-1.84 3.58 3.58 0 0 1-.26-1.36 6.32 6.32 0 0 1 .89-3l2.59 1.22a4.3 4.3 0 0 0-.23 1.3 2.74 2.74 0 0 0 .12.81c.17.63.83 1 2 1h6.18c1.94 0 2.93-.82 3-2.46v-1.87h2.86Zm-11.46-1.83c.51-.06 1-.1 1.55-.13s1.08 0 1.66 0h1.39c.51 0 1.08 0 1.7.08l-.28 2.34c-1.22-.08-2.15-.11-2.78-.11a16.59 16.59 0 0 0-2.11.12h-.53Z"/><path d="M853.05 712.13a4.79 4.79 0 0 0 .22 1l.07.13v-.11l.05.1.07.08h1.07v2.92a6.82 6.82 0 0 1-1.81-.21 2.84 2.84 0 0 1-1.2-.62l-.12-.11a1.14 1.14 0 0 0-.11-.11 4.58 4.58 0 0 1-1.52.73 6.23 6.23 0 0 1-1.94.28h-.09v-2.91h.8a1.84 1.84 0 0 0 .34 0l.26-.06h.07l.08-.05.1-.1.06-.07.11-.17.11-.23v.1-.09a5.94 5.94 0 0 0 .17-.7 7.06 7.06 0 0 0 .12-.81c0-.31 0-.66.06-1.07s0-.89 0-1.46v-2.94c0-.65 0-1.51-.06-2.49h2.9c0 1 .07 2.27.12 3.65v3.33a2.35 2.35 0 0 0 0 .26v1.46Z"/><path d="M861.23 708.73a3.69 3.69 0 0 1 2 .9 5 5 0 0 1 .68.77 5.27 5.27 0 0 1 .51.94 4.07 4.07 0 0 1 .29 1.53 3.69 3.69 0 0 1-.84 2.39 2.88 2.88 0 0 1-2.35 1.11 5.64 5.64 0 0 1-2.16-.51l-.26-.12-.24-.1-.3-.16-.44-.25a5.45 5.45 0 0 1-3.8 1.14v-2.93a7.87 7.87 0 0 0 1.08-.05 1.38 1.38 0 0 0 .54-.13l.17-.17.16-.21a2.43 2.43 0 0 1 .2-.25l.2-.26.11-.13.07-.11s.07-.11.11-.19c.3-.49.57-.89.81-1.23a7 7 0 0 1 .6-.77 3.37 3.37 0 0 1 2.51-1.23h.36ZM878.58 715.19a2.27 2.27 0 0 1-1.56-2.42v-.11a3.52 3.52 0 0 1 .74-2.07 8.46 8.46 0 0 1 2.1-1.94 12.83 12.83 0 0 1 2-1.09 7.29 7.29 0 0 1 1.79-.53l.57 2.83a5.78 5.78 0 0 0-1.36.42 9.6 9.6 0 0 0-1.52.87c-.21.15-.4.3-.58.45a2.89 2.89 0 0 0-.72.77.93.93 0 0 0-.12.25l.34.17h.09l.46.17c.34.11.69.23 1 .37a2.06 2.06 0 0 1 1.34 1.24 6.09 6.09 0 0 1 .26 1.72 4.11 4.11 0 0 1-.87 2.62 8.06 8.06 0 0 1-3.11 2.45 6.83 6.83 0 0 1-3.09.74 6.33 6.33 0 0 1-.76 0 5.92 5.92 0 0 1-4.37-2.75 6.46 6.46 0 0 1-.95-3.4V715.37a13.4 13.4 0 0 1 1-3.89l2.66 1.06-.43 1.49a10.14 10.14 0 0 0-.3 1.6s0 .1 0 .17v.39a1.1 1.1 0 0 0 0 .18v-.08c0 .17 0 .33.09.48s.08.3.12.43v.09c.06.13.12.24.18.35a1.17 1.17 0 0 0 .15.27l.33.36c.12.12.24.24.37.35a3.72 3.72 0 0 0 1.94.63h.2a4.78 4.78 0 0 0 1.65-.38 5.23 5.23 0 0 0 1.14-.69 4.75 4.75 0 0 0 .38-.33c.11-.11.21-.22.31-.34l.16-.22.17-.3a1 1 0 0 0 .19-.54q.05-.92-1.99-1.26ZM888.54 705.92c0 .42.08.9.1 1.44s0 1.14.05 1.77c0 1.31.06 2.45.07 3.41s0 1.76 0 2.4v1.43h-2.92V714c0-2.09 0-3.72-.07-4.86a35.74 35.74 0 0 0-.36-5.43l2.77-.46a18.17 18.17 0 0 1 .36 2.67ZM892.77 715.49a2.38 2.38 0 0 0 .07-.63 12 12 0 0 0-1-4l2.67-1.2a13.7 13.7 0 0 1 1.32 5.2 4.81 4.81 0 0 1-.52 2.29c-.87 1.67-2.92 2.85-6.17 3.54l-.74-2.66q3.8-.42 4.37-2.54ZM906.73 722.08a5.88 5.88 0 0 1-4.36-2.75 6.38 6.38 0 0 1-1-3.4V715.35a13.4 13.4 0 0 1 1-3.89l2.66 1.06-.43 1.49a10.14 10.14 0 0 0-.3 1.6s0 .1 0 .17v.39a.57.57 0 0 0 0 .18v-.08c0 .17 0 .33.08.48s.08.3.12.43v.09c.06.13.12.24.18.35a1.17 1.17 0 0 0 .15.27l.33.36c.12.12.24.24.37.35a3.75 3.75 0 0 0 1.94.63h.2a4.78 4.78 0 0 0 1.65-.38 5.56 5.56 0 0 0 1.15-.69l.38-.33.3-.34.16-.22c.06-.1.12-.2.17-.3l.2-.35a4 4 0 0 0 .26-1.22 6.65 6.65 0 0 0-.26-1.67c-.06-.22-.45-1.11-1.17-2.68l2.68-1.44a13.83 13.83 0 0 1 1.64 5.34 1.62 1.62 0 0 1 0 .23v.23a6.07 6.07 0 0 1-1.21 3.74 8 8 0 0 1-3.11 2.45 6.83 6.83 0 0 1-3.09.74 6.33 6.33 0 0 1-.69-.26Zm-.07-8.44a5.55 5.55 0 0 1 .71-.13 6.19 6.19 0 0 1 .76 0h.63l.78.08-.13 2.34a11 11 0 0 0-1.26-.11 3.7 3.7 0 0 0-1 .12h-.24ZM918.58 705.92c0 .42.08.9.1 1.44s0 1.14.05 1.77c0 1.31.06 2.45.08 3.41s0 1.76 0 2.4v1.43h-2.92V714c0-2.09 0-3.72-.07-4.86a37.2 37.2 0 0 0-.35-5.43l2.77-.46a18.42 18.42 0 0 1 .34 2.67ZM926.79 716.37h-1.06l-.17.46q-1 2.64-5.73 4.22l-1-2.56q3.71-.88 4.05-3v-.25a10.54 10.54 0 0 0-1.46-4.22l2.51-1.49a18.7 18.7 0 0 1 1.56 3.41c.18.35.63.54 1.33.56Zm-6.1-10.91c.24-.05.47-.1.71-.13s.5 0 .76 0h.63c.23 0 .49 0 .78.08l-.13 2.34a11 11 0 0 0-1.26-.11 3.7 3.7 0 0 0-1 .12H921Z"/><path d="M926.65 713.45c1.29 0 2-.91 2-2.66v-1.68h2.91v1.68c0 1.78.56 2.66 1.55 2.66h.07v2.92c-1.57 0-2.59-.36-3.08-1a5.35 5.35 0 0 1-3.48 1Zm.18 4.28c.51-.06 1-.1 1.55-.13s1.08 0 1.66 0h1.39l1.7.08-.28 2.34c-1.22-.07-2.15-.1-2.78-.1a16.73 16.73 0 0 0-2.07.08h-.53Z"/><path d="M940 708.73a3.72 3.72 0 0 1 2 .9 4.94 4.94 0 0 1 .67.77 5.3 5.3 0 0 1 .52.94 4.28 4.28 0 0 1 .29 1.53 3.65 3.65 0 0 1-.85 2.39 2.86 2.86 0 0 1-2.34 1.11 5.6 5.6 0 0 1-2.16-.51l-.26-.12-.24-.1-.3-.16-.44-.25a5.46 5.46 0 0 1-3.8 1.14v-2.93a8 8 0 0 0 1.08-.05 1.38 1.38 0 0 0 .54-.13l.16-.17.17-.21a2.43 2.43 0 0 1 .2-.25c.06-.09.13-.17.2-.26l.1-.13a.72.72 0 0 0 .07-.11 2.2 2.2 0 0 0 .12-.19c.3-.49.57-.89.8-1.23a8.28 8.28 0 0 1 .61-.77 3.35 3.35 0 0 1 2.51-1.23h.35Z"/><path class="cls-3" d="M1763.22 1087.28H8a1.5 1.5 0 1 1 0-3h1755.22a1.5 1.5 0 0 1 0 3Z"/><path class="cls-5" d="M974.43 1028.27h320.28v57.51H974.14v-57.22a.29.29 0 0 1 .29-.29Z"/><path class="cls-2" d="m920.8 1060.43 53.2 25.25a.14.14 0 0 0 .21-.13v-57.06a.15.15 0 0 0-.21-.13l-53.16 25.26a3.77 3.77 0 0 0-.04 6.81Z"/><path class="cls-3" d="M974.43 1026.77a5.1 5.1 0 0 0-1.11.24l-53.16 25.26a5.26 5.26 0 0 0 0 9.51l52.48 25.5h323.57v-60.51Zm-1.79 56.63-29.17-13.87c-.42-2.71-.4-21.58-.4-24.83l29.57-14Zm3-53.63h281.96v16.28H975.66Zm0 19.28h281.96v16.11H975.66Zm0 19.11h281.96v16.12H975.66ZM838 1083.82 697.5 579.75l-13.78 49.41h-80.33l12.1-43.42a1.5 1.5 0 1 0-2.89-.81l-12.33 44.23h-14.09a1.5 1.5 0 0 0 0 3h13.25L585.54 682h-13.33a1.5 1.5 0 0 0 0 3h12.49l-13.89 49.83H560.5a1.5 1.5 0 0 0 0 3h9.5l-13.89 49.84h-11.3a1.5 1.5 0 0 0 0 3h10.46l-13.9 49.83h-8.71a1.5 1.5 0 0 0 0 3h7.88l-13.9 49.84h-9.69a1.5 1.5 0 0 0 0 3h8.86l-13.9 49.83h-10.18a1.5 1.5 0 0 0 0 3H511L497.15 999h-10.61a1.5 1.5 0 1 0 0 3h9.77l-13.89 49.83H470.3a1.5 1.5 0 1 0 0 3h11.28l-8.08 29a1.51 1.51 0 0 0 1 1.85 1.45 1.45 0 0 0 .41.06 1.5 1.5 0 0 0 1.44-1.1l8.31-29.79H565l-8.08 29a1.5 1.5 0 0 0 2.89.81l8.31-29.79h9.24a1.5 1.5 0 1 0 0-3H569l13.9-49.83h10.75a1.5 1.5 0 0 0 0-3h-9.92l13.9-49.84h11.21a1.5 1.5 0 0 0 0-3h-10.39l13.89-49.83H624a1.5 1.5 0 0 0 0-3h-10.82l13.89-49.84h12.66a1.5 1.5 0 0 0 0-3h-11.82l13.89-49.83h10.07a1.5 1.5 0 0 0 0-3h-9.23l13.9-49.84h11.05a1.5 1.5 0 0 0 0-3h-10.22l13.9-49.86h8a1.5 1.5 0 0 0 0-3h-7.2L686 632.16h7.27a1.5 1.5 0 0 0 0-3h-6.44l10.67-38.24 137.65 493.71a1.52 1.52 0 0 0 1.45 1.1 1.39 1.39 0 0 0 .4-.06 1.5 1.5 0 0 0 1-1.85Zm-272.17-32h-80.3l13.9-49.83h80.33ZM580.6 999h-80.34l13.9-49.84h80.33Zm14.73-52.84H515l13.89-49.83h80.34Zm14.73-52.83h-80.33l13.89-49.84H624Zm14.73-52.84h-80.33l13.89-49.83h80.34Zm14.74-52.83h-80.34l13.9-49.84h80.33Zm14.73-52.84h-80.34l13.9-49.82h80.33ZM669 682h-80.35l13.9-49.84h80.33ZM1628.44 1083.14l-9.61-34.09h7.92a1.5 1.5 0 0 0 0-3H1618l-14-49.84h7a1.5 1.5 0 0 0 0-3h-7.94l-14-49.83h9.84a1.5 1.5 0 0 0 0-3h-10.7l-14-49.84h9a1.5 1.5 0 0 0 0-3h-9.86l-14-49.84h12.18a1.5 1.5 0 0 0 0-3h-13l-14-49.83h13.11a1.5 1.5 0 0 0 0-3h-14l-12.47-44.23a1.5 1.5 0 1 0-2.88.81l12.23 43.42h-80.33l-12.47-44.23-1.26-4.48L1319.1 1083a1.5 1.5 0 0 0 2.82 1L1446 742.93l11 38.94h-6.57a1.5 1.5 0 0 0 0 3h7.42l14 49.83h-7.49a1.5 1.5 0 0 0 0 3h8.34l14 49.84h-10.68a1.5 1.5 0 1 0 0 3h11.52l14.05 49.84h-9.84a1.5 1.5 0 0 0 0 3h10.68l14 49.83h-12.59a1.5 1.5 0 0 0 0 3h13.43l14.05 49.84h-11.77a1.5 1.5 0 0 0 0 3h12.62l9.83 34.9a1.5 1.5 0 0 0 1.44 1.09 1.4 1.4 0 0 0 .41 0 1.51 1.51 0 0 0 1-1.85l-9.61-34.09h80.33l9.84 34.9a1.5 1.5 0 0 0 1.59 1 1.4 1.4 0 0 0 .41 0 1.51 1.51 0 0 0 1.03-1.86Zm-167.51-298.27h80.33l14 49.83H1475Zm14.89 52.83h80.33l14 49.84h-80.34Zm14.89 52.84H1571l14 49.84h-80.34Zm14.89 52.84h80.33l14 49.83h-80.34Zm28.94 102.67-14-49.84h80.33l14 49.84Z"/><path class="cls-7" d="M631.65 394.9c-.16.63-.33 1.25-.49 1.85-7.09 25.73-19.23 33.83-25.58 31.46a6.51 6.51 0 0 1-4-5.36c-2-11.33 12.54-34.89 12.54-34.89s26.74-28.85 17.53 6.94Z"/><path class="cls-7" d="M651.83 406.73c-.48 2.76-2.07 4.56-4.29 5.09-6 1.42-16.64-6.39-22.85-29.44-.11-.38-.21-.78-.31-1.17-8.38-32.69 14.07-9.21 14.07-9.21s15.17 24.38 13.38 34.73Z"/><path class="cls-3" d="M647.54 411.82c-6 1.42-16.64-6.39-22.85-29.44l4.25-1.13s.29 18.19 18.6 30.57Z"/><path class="cls-3" d="M631.16 396.75c-7.09 25.73-19.23 33.83-25.58 31.46 19.8-11 22.19-34.43 22.19-34.43Z"/><path class="cls-6" d="M697.83 251.23a31.91 31.91 0 0 0-12.06-14c-1.16-.75-17.52-13-18.84-13.65-10.28-5.2-92 10.53-105.88 11.17-1.08 0-6.65 6.53-9.12 13.9-1.49 4.42-2.06 9.17-.1 13 .63 1.23 3 5.27 5.43 9.39l54.11 93.49 5.21 9-1.88 5.63-2.63 7.82 20.13 11.25 66.33-122.58c2.22-4.37 3.61-14.65-.7-24.42Zm-67 79.81-3.64 10.88-2.51-8.23-19.78-69.9 23-16.55 25.32 21.38Z"/><path class="cls-8" d="m633.05 251.55-5.62-3.43-5.54 3.46c-14.18-10.16-42.74-13.94-61.74-16.23a59.13 59.13 0 0 1 13.93-13.64s12.81-.75 13.89-.8c13.9-.63 68.68-2.49 79 2.71 1.32.67 17.68 12.9 18.84 13.65 5.98 3.92-46.81 7.21-52.76 14.28Z"/><path class="cls-2" d="M628.49 61.07s-3.21 24.28-5.82 26.66-14.86 6.75-14.86 6.75l34 30.52 26.86-19.65s-11.32-7.45-11.94-10.83c-.85-4.68 3.43-28.06 3.43-28.06Z"/><path class="cls-3" d="m641.71 126.93-36.78-33 2.38-.84c4.62-1.65 12.61-4.85 14.34-6.44 1.39-1.46 3.87-14.51 5.36-25.76l3 .39c-.77 5.83-3.51 25-6.3 27.58-2.1 1.92-9.2 4.75-13 6.19l31.24 28 24.16-17.67c-3.73-2.58-10.25-7.49-10.82-10.61-.87-4.81 3-26.18 3.44-28.6l2.95.55c-1.7 9.28-4 24.28-3.43 27.51.3 1.64 6.08 6.42 11.29 9.85l1.8 1.19ZM643 13s-15.44-.3-17 8.73c-1.75 10.3-2.27 23.84-2.42 31a5.69 5.69 0 0 0 4.74 5.73l31.17 5.32a5.7 5.7 0 0 0 6.43-4c2.73-9.36 8.31-29.22 7.69-32.46C671.53 16.24 643 13 643 13Z"/><path class="cls-2" d="M636 70.69c8.66 2.53 20 2.74 23.57.2 2.11-1.49 4-8.47 5.62-16.54a.69.69 0 0 1 .44-.51c2.4-.88 6-3 6.61-7.05.51-3.5-2.23-3.22-4.48-2.45a.56.56 0 0 1-.73-.62c1.5-9.8 2.4-18.46 2.4-18.46l-39.54-6.74s-1.41 8.73-2.69 18.57a.57.57 0 0 1-.92.36c-1.89-1.57-4.6-3-5.3.6-.88 4.54 2.71 8.07 4.63 9.41a.67.67 0 0 1 .29.62c-.72 7-1.07 13.05-.48 15.32a6.67 6.67 0 0 0 2.35 3.36Z"/><path class="cls-3" d="M650.21 74.18a55.16 55.16 0 0 1-14.66-2.05 1.5 1.5 0 0 1 .84-2.88c9.12 2.66 19.47 2.41 22.29.42.53-.38 2.46-2.62 5-15.61a2.23 2.23 0 0 1 1.39-1.63c1.52-.55 5.11-2.24 5.64-5.86.12-.8 0-1.1-.05-1.13s-.81-.24-2.45.32a2.06 2.06 0 0 1-2.71-2.26c1.13-7.37 1.93-14.16 2.25-17l-36.65-6.25c-.46 2.91-1.5 9.7-2.45 17a2.06 2.06 0 0 1-3.37 1.32c-1.5-1.25-2.29-1.37-2.45-1.31s-.27.25-.42 1.05c-.85 4.36 3.52 7.54 4 7.89a2.17 2.17 0 0 1 .92 2c-1.08 10.48-.79 13.76-.52 14.79a5.23 5.23 0 0 0 1.86 2.59 1.5 1.5 0 1 1-1.93 2.3 8.11 8.11 0 0 1-2.83-4.13c-.57-2.17-.44-7.2.39-15.38-2.87-2.16-5.73-6.12-4.86-10.64.34-1.75 1.14-2.86 2.36-3.29s2.51-.14 4.06.85c1.21-9.1 2.48-17 2.49-17l.24-1.49L671 24l-.15 1.39c0 .09-.83 8-2.2 17.11a4.48 4.48 0 0 1 3.9.62 3.93 3.93 0 0 1 1.1 3.86c-.72 4.88-4.94 7.2-7.14 8.08-2.64 13.23-4.76 16.06-6.14 17-1.99 1.49-5.81 2.12-10.16 2.12Z"/><path class="cls-3" d="M628.86 19.4c4.93 8.84 31.2 21.18 48.71-2.5s-23.11-9.6-35.9-8c-5.48.68-17.02 2.93-12.81 10.5Z"/><path class="cls-2" d="M505.43 211.62S498 221.87 492 225.87s-33 3.16-33 9.95 37 3.48 41.25 0S518 220.07 518 220.07Z"/><path class="cls-3" d="M473.52 241.24c-5.62 0-10.63-.52-13.33-1.81-2.28-1.09-2.76-2.56-2.76-3.61 0-5.34 9.64-6.7 19.86-8.13 5.74-.8 11.69-1.64 13.85-3.07 5.75-3.81 13-13.78 13.07-13.88l.85-1.18 15.29 10.33-1.41 1.28c-.55.51-13.55 12.36-17.82 15.82-2.68 2.17-16.36 4.25-27.6 4.25Zm32.26-27.58c-2.17 2.86-7.95 10.13-13 13.46-2.73 1.81-8.46 2.61-15.1 3.54-6.46.91-17.27 2.43-17.27 5.16 0 .25.4.59 1.05.9 7.11 3.39 34.38.67 37.75-2.06s12.71-11.18 16.28-14.42ZM631.66 239.59l3.34-7.29-10.55-15.36a1.5 1.5 0 1 0-2.47 1.69l9.59 14-3.2 7L588.75 258l27.12 81.67a1.51 1.51 0 0 0 1.43 1 1.33 1.33 0 0 0 .47-.08 1.49 1.49 0 0 0 1-1.89l-26.28-79.14 34.16-15.82a1.49 1.49 0 0 0 .87 1.43 1.55 1.55 0 0 0 .62.14 1.51 1.51 0 0 0 1.37-.88l.91-2 28.14 23.85-39.86 117.16a1.5 1.5 0 0 0 .93 1.9 1.4 1.4 0 0 0 .49.08 1.51 1.51 0 0 0 1.42-1L662 265.3Z"/><path class="cls-7" d="M726 261.58s-20 5.28-22.26 6.13c-5.19 2-8.07-66.32-12.11-71.76-2.09-2.81-15.92-30.8-17-30.66-3 .38-2.5 59.07-6.34 59.21-25.79 1-93-2.36-94.18-2.79-2.28-.84 7.85-62.59 7.85-62.59-4.31 5.35-14.46 30.86-26.5 43.5a120.56 120.56 0 0 1-41.17 28c-2.22-2.23-14.58-14.11-15.33-17-1.16-4.4 28.18-33.38 30.63-37.5L571.78 106l31.4-14.6a9.8 9.8 0 0 1 8 2.39c21.68 19.37 47.15 12.14 56.43 8.49a9.7 9.7 0 0 1 7.55.2l22.23 17.88 33 63.49c1.85 8.7 4.08 75.02-4.39 77.73Z"/><path class="cls-3" d="M375.67 515a1.51 1.51 0 0 1-1.5-1.51l.11-25.28a1.5 1.5 0 0 1 1.5-1.5 1.51 1.51 0 0 1 1.49 1.51l-.11 25.28a1.5 1.5 0 0 1-1.49 1.5ZM941.68 189.69a1.47 1.47 0 0 1-.73-.19 1.5 1.5 0 0 1-.57-2.05l19.12-33.92a1.5 1.5 0 1 1 2.61 1.47L943 188.92a1.5 1.5 0 0 1-1.32.77ZM917.82 195.27a1.51 1.51 0 0 1-1.37-.88l-10.38-23.06a1.5 1.5 0 0 1 2.74-1.23l10.38 23.06a1.5 1.5 0 0 1-.76 2 1.42 1.42 0 0 1-.61.11ZM353.09 528.64a1.48 1.48 0 0 1-.89-.29l-31.37-23.08a1.5 1.5 0 0 1 1.78-2.42L354 525.93a1.5 1.5 0 0 1 .31 2.1 1.47 1.47 0 0 1-1.22.61Z"/><path class="cls-8" d="m626.89 341.5-10.62 31.7-5.22-9.01 13.33-30.91 2.51 8.22z"/><path class="cls-3" d="M615.12 417.87a1.51 1.51 0 0 1-.62-.14l-9.5-4.39a1.5 1.5 0 0 1 1.26-2.72l9.54 4.39a1.5 1.5 0 0 1 .74 2 1.52 1.52 0 0 1-1.42.86ZM617.49 411a1.51 1.51 0 0 1-.62-.14l-9.55-4.39a1.5 1.5 0 1 1 1.26-2.72l9.54 4.39a1.5 1.5 0 0 1 .74 2 1.52 1.52 0 0 1-1.37.86ZM619.9 404.19a1.56 1.56 0 0 1-.63-.14l-9.55-4.39a1.5 1.5 0 1 1 1.26-2.72l9.54 4.39a1.49 1.49 0 0 1 .74 2 1.51 1.51 0 0 1-1.36.86ZM638.86 402.27a1.5 1.5 0 0 1-.63-2.86l9.55-4.39a1.5 1.5 0 1 1 1.25 2.72l-9.54 4.39a1.44 1.44 0 0 1-.63.14ZM636.32 395.76a1.5 1.5 0 0 1-.62-2.87l9.54-4.39a1.5 1.5 0 0 1 1.25 2.73l-9.49 4.39a1.56 1.56 0 0 1-.68.14ZM656.61 46.53a1.24 1.24 0 0 1-.27 0 1.49 1.49 0 0 1-1.21-1.74l.17-.92a1.5 1.5 0 1 1 3 .53l-.17.93a1.5 1.5 0 0 1-1.52 1.2ZM638.28 43.41h-.24a1.5 1.5 0 0 1-1.24-1.72l.15-.93a1.5 1.5 0 0 1 3 .47l-.15.93a1.51 1.51 0 0 1-1.52 1.25ZM641.74 38.68a1.6 1.6 0 0 1-.63-.14 7.8 7.8 0 0 0-5.51-.13 1.5 1.5 0 1 1-1.08-2.8 10.74 10.74 0 0 1 7.86.21 1.5 1.5 0 0 1-.64 2.86ZM661.21 43a1.49 1.49 0 0 1-1-.35 7.75 7.75 0 0 0-5.25-1.7 1.5 1.5 0 0 1-.29-3 10.78 10.78 0 0 1 7.49 2.4 1.5 1.5 0 0 1 .16 2.12 1.46 1.46 0 0 1-1.11.53ZM645.6 54.78h-.13a1.5 1.5 0 0 1 0-3h.06a20.73 20.73 0 0 0 3.1-.22 19.77 19.77 0 0 1-2-5.89 1.5 1.5 0 1 1 2.94-.59 15.81 15.81 0 0 0 1.85 5.36 2.69 2.69 0 0 1 .42 2.42c-.17.58-.66 1.92-6.24 1.92Zm3.46-2.48ZM652.17 57.61c.45 1-3.13 3.51-6.67 2.75-5.77-1.25-6.9-5.54-5.54-5a17.93 17.93 0 0 0 5.91 2.44c3.74.71 6-.8 6.3-.19Z"/><path class="cls-2" transform="rotate(-20.45 753.484 366.543)" d="M690.4 281.68h126.24v169.71H690.4z"/><path class="cls-3" d="M723.14 470 662.8 308.2l121.09-45.15 60.34 161.83Zm-56.48-160 58.24 156.2 115.47-43.05-58.24-156.24Z"/><path class="cls-2" d="M716.22 328.74a14.14 14.14 0 1 1-18.22-8.31 14.14 14.14 0 0 1 18.22 8.31Z"/><path class="cls-3" d="M703 349.32a15.64 15.64 0 1 1 14.64-21.11A15.65 15.65 0 0 1 703 349.32Zm0-28.32a12.65 12.65 0 0 0-11.85 17.07 12.64 12.64 0 1 0 23.69-8.84A12.67 12.67 0 0 0 703 321Z"/><path class="cls-4" d="M734.79 378.55a14.14 14.14 0 1 1-18.19-8.31 14.15 14.15 0 0 1 18.19 8.31Z"/><path class="cls-2" d="M752.73 426.65a14.15 14.15 0 1 1-18.19-8.31 14.14 14.14 0 0 1 18.19 8.31Z"/><path class="cls-3" d="M739.49 447.24a15.65 15.65 0 1 1 14.64-21.11 15.65 15.65 0 0 1-14.64 21.11Zm0-28.29a12.38 12.38 0 0 0-4.4.8 12.64 12.64 0 1 0 16.26 7.42 12.66 12.66 0 0 0-11.89-8.17Z"/><path class="cls-2" d="m724.12 315.45 51.53-19.22Z"/><path class="cls-3" d="M724.12 317a1.48 1.48 0 0 1-1.4-1 1.5 1.5 0 0 1 .88-1.93l51.53-19.21a1.5 1.5 0 1 1 1 2.81l-51.53 19.21a1.42 1.42 0 0 1-.48.12Z"/><path class="cls-2" d="m730.4 332.3 24.54-9.15Z"/><path class="cls-3" d="M730.4 333.8a1.5 1.5 0 0 1-.52-2.91l24.54-9.15a1.5 1.5 0 0 1 1.05 2.81l-24.54 9.15a1.39 1.39 0 0 1-.53.1Z"/><path class="cls-2" d="m740.07 362 51.53-19.22Z"/><path class="cls-3" d="M740.07 363.46a1.5 1.5 0 0 1-.53-2.91l51.54-19.21a1.5 1.5 0 1 1 1 2.81l-51.53 19.21a1.37 1.37 0 0 1-.48.1Z"/><path class="cls-2" d="m746.35 378.81 24.54-9.15Z"/><path class="cls-3" d="M746.35 380.31a1.5 1.5 0 0 1-.52-2.91l24.54-9.15a1.5 1.5 0 0 1 1 2.81l-24.54 9.15a1.37 1.37 0 0 1-.48.1Z"/><path class="cls-2" d="m761.52 415.73 51.53-19.21Z"/><path class="cls-3" d="M761.52 417.23a1.5 1.5 0 0 1-.53-2.9l51.53-19.22a1.5 1.5 0 0 1 1.05 2.81L762 417.14a1.58 1.58 0 0 1-.48.09Z"/><path class="cls-2" d="m767.8 432.58 24.54-9.15Z"/><path class="cls-3" d="M767.8 434.09a1.5 1.5 0 0 1-.53-2.91l24.54-9.18a1.5 1.5 0 0 1 1.05 2.81L768.32 434a1.6 1.6 0 0 1-.52.09ZM721.37 387.84l-17.84-9a1.5 1.5 0 1 1 1.35-2.67l15.23 7.7 16.78-31.31a1.5 1.5 0 0 1 2.65 1.42Z"/><path class="cls-2" d="M710.43 289.94c.58 4.35 10.05 15.85 13.69 15.9s10.64-16.93 9.48-19.89c-2.8-7.1-3.05-7.53-13.8-24.71-.3-.47-9.13.95-11 1.19-2.93.38-1.93 4-1.25 10.44.64 5.98 2.45 14.13 2.88 17.07Z"/><path class="cls-3" d="M724.14 307.34c-4.75-.06-14.56-12.73-15.16-17.2-.14-1-.48-2.82-.87-4.89-.71-3.73-1.6-8.38-2-12.22-.1-1-.22-1.93-.32-2.78-.61-4.92-1.08-8.8 2.87-9.31l1.8-.26c9.63-1.4 10-1.27 10.67-.23 10.82 17.3 11.08 17.77 13.91 24.95 1.2 3.05-3.09 13.74-6.35 18.47-1.69 2.37-3.12 3.47-4.55 3.47Zm-5.23-44.69c-1.66.07-6.22.73-8.07 1l-1.84.27c-.87.11-.84 1.44-.29 6 .11.87.23 1.82.34 2.83.39 3.72 1.27 8.3 2 12 .4 2.11.75 3.94.9 5.05.55 4.14 9.79 14.57 12.22 14.6.23-.06 1.31-.83 3-3.67 3.19-5.42 5.49-12.8 5.07-14.18-2.76-6.96-2.92-7.27-13.33-23.9Z"/><path class="cls-7" d="m723.39 252.99 1.52 8.87-20.92 5.75-2.49-9.89 21.89-4.73z"/><path class="cls-2" d="m309.5 939.9-15.92 137.62-19.02-9.83-9.1-125.88 44.04-1.91z"/><path class="cls-3" d="m294.82 1079.85-21.7-11.21-9.26-128.26 47.33-2Zm-18.82-13.1 16.35 8.44 15.47-133.71-40.74 1.76Z"/><path class="cls-7" d="M296 1066.18s30.92 9.92 32 18l-55.49-.17v-17.92Z"/><path class="cls-2" d="m188.55 918.72-133.9-15.3-2.81-21.23 115.18-2.28 21.53 38.81z"/><path class="cls-3" d="m191.28 920.54-138-15.76-3.19-24 117.76-2.34ZM56 902.06l129.83 14.83-19.68-35.46-112.6 2.23Z"/><path class="cls-7" d="M56.22 903.05s-8.4 31.37-16.44 32.81l-2.54-55.44 17.9-.82Z"/><path class="cls-4" d="M267 832.38s-57.53 81.39-68.78 90.5c-21 17-127.54-11.23-127.54-11.23l2.55-37.24 100.24-.41s28.9-52.41 33.36-80.39 39.87-51.44 39.87-51.44l54.92 62.91S313.68 907 314 947.27l-7 105.42h-39.93l-6.47-104.1-15.52-104.53Z"/><path class="cls-2" d="M348.12 649.17s-10.31 23.61-9.37 27.14 9.84 15.14 9.84 15.14l-43.34 47-39.85-19.73 13.47-43.38s24.76-8.18 27.1-10.9c3.25-3.77 12.16-27.13 12.16-27.13Z"/><path class="cls-3" d="m305.59 740.35-42-20.85 14.08-45.34.73-.24c12-3.95 25.11-8.94 26.44-10.46 2.52-2.93 9.44-20.26 11.89-26.68a1.5 1.5 0 0 1 2.81 1.07c-.93 2.41-9.11 23.71-12.43 27.57-2.33 2.71-20.41 8.9-27 11.1l-12.87 41.42 37.7 18.72 41.73-45.3c-2.29-3-8.48-11.47-9.34-14.67-1-3.74 7-22.47 9.44-28.12a1.5 1.5 0 1 1 2.75 1.2c-4.8 11-9.72 24.12-9.29 26.15.63 2.36 6.21 10.22 9.58 14.62l.77 1Z"/><path class="cls-2" d="M255.42 694.64c-10.44-2.11-29.72-8.48-40.62-6.29-4.7.95-42.68 46.26-42 49.13s3.07 18.68-.05 14.55a63.58 63.58 0 0 1-5.1-8.33.59.59 0 0 0-1.08.09c-1.6 4.94-9.51 17.34-13.64 18.77-5.5 1.9-4.47-23.27 6.44-33.52 3.7-3.47 23.17-73.69 48-76.8s68.51 2.42 68.51 2.42-6.2 42.84-20.46 39.98Z"/><path class="cls-3" d="M152.33 764.17a3.29 3.29 0 0 1-2.81-1.78c-3.15-5.22-1-25.28 8.79-34.44.7-.77 2.83-6.3 4.88-11.66 8.46-22 24.21-63.06 44-65.54 24.75-3.11 68.44 2.36 68.88 2.42l1.52.19-.22 1.51c-.19 1.31-4.75 32.13-15.41 39.66a8.6 8.6 0 0 1-6.82 1.58c-2.56-.52-5.67-1.29-9-2.12-10.31-2.57-23.14-5.76-31.07-4.17-4.05 1.34-39 42.1-40.8 47.59.32 1.51.88 5 1.21 8.19.66 6.35.11 7.86-1.14 8.44-.55.26-1.66.46-2.83-1.11a57.63 57.63 0 0 1-4.3-6.79c-2.62 5.9-9.58 16.37-13.84 17.84a3.13 3.13 0 0 1-1.04.19Zm73.38-111.38a148.74 148.74 0 0 0-18.16.94c-18 2.25-33.91 43.71-41.56 63.64-3.19 8.32-4.53 11.74-5.63 12.77-7.2 6.76-10.1 21-9 28.24.3 2 .84 2.71 1 2.79 3.48-1.21 11.17-13 12.74-17.84a2.09 2.09 0 0 1 3.9-.33 70.77 70.77 0 0 0 3.83 6.52 83.39 83.39 0 0 0-1.47-11.71c-.17-.74 0-1.59 1.58-4 5.71-8.82 36.43-45.92 41.61-47 8.6-1.73 21.79 1.56 32.39 4.2 3.26.82 6.33 1.58 8.83 2.08a5.55 5.55 0 0 0 4.5-1.09c8.37-5.9 12.87-29.83 13.93-36.11-6.05-.63-28.49-3.1-48.49-3.1ZM358.19 595.9c4.94 2.59 17 8.72 13.37 17.94-4.16 10.52-11.28 23.35-15.16 30.06a6.16 6.16 0 0 1-7.59 2.65L317 634a6.16 6.16 0 0 1-3.68-7.33c2.75-10.19 8.73-31.71 11.12-34.36 8.17-9.06 25.93-.51 33.75 3.59Z"/><path class="cls-2" d="M316.78 641.83c-1-2.46 1.09-9.78 4.08-17.91a.72.72 0 0 0-.11-.68c-1.59-2.07-3.56-5.92-1.89-9.88 1.44-3.42 3.65-1.71 5.18.18a.57.57 0 0 0 1-.17c4-9.64 7.88-17.93 7.88-17.93l37.75 14.93s-3.52 8.63-7.67 18.17c-.19.43-10.92 22.94-12.66 24.68a7 7 0 0 1-3.84 1.78s-3.2 1-16.92-4.4Z"/><path class="cls-3" d="M345.59 656.58c-2 0-6.72-.67-16.62-4.59a1.5 1.5 0 1 1 1.11-2.78c12.53 4.95 15.87 4.37 16 4.34h.1a5.45 5.45 0 0 0 3-1.36c1.52-1.64 11.62-22.6 12.35-24.23 3.15-7.18 5.94-13.9 7.1-16.72l-35-13.85c-1.24 2.68-4.24 9.28-7.27 16.59a2.09 2.09 0 0 1-1.63 1.27 2 2 0 0 1-1.89-.74c-1.09-1.36-1.76-1.6-1.92-1.58s-.36.22-.71 1.05c-1.52 3.6.68 7 1.7 8.37a2.22 2.22 0 0 1 .33 2.12c-4.83 13.12-4.36 16.19-4.1 16.82a1.5 1.5 0 0 1-2.78 1.14c-.65-1.6-.95-5.27 3.91-18.6-1.41-1.94-3.82-6.27-1.82-11 .72-1.71 1.74-2.67 3-2.85a4.42 4.42 0 0 1 3.64 1.54c3.77-9 7.33-16.59 7.37-16.67l.59-1.27 40.47 16-.57 1.4c0 .09-3.55 8.75-7.71 18.22-.09.21-10.93 23.09-13 25.13a8.33 8.33 0 0 1-4.59 2.19 5.1 5.1 0 0 1-1.06.06Z"/><path class="cls-3" d="M337.4 623.68a1.57 1.57 0 0 1-.62-.13 1.51 1.51 0 0 1-.74-2l.35-.76a1.5 1.5 0 1 1 2.73 1.24l-.35.76a1.51 1.51 0 0 1-1.37.89ZM353.65 630.06a1.4 1.4 0 0 1-.56-.11 1.5 1.5 0 0 1-.83-2l.38-.92a1.5 1.5 0 1 1 2.78 1.13l-.38.91a1.48 1.48 0 0 1-1.39.99ZM340.84 618.2a1.48 1.48 0 0 1-1.11-.49s-2.65-2.86-5.15-1.74a1.5 1.5 0 1 1-1.23-2.73c4.51-2 8.44 2.28 8.61 2.46a1.5 1.5 0 0 1-.12 2.12 1.46 1.46 0 0 1-1 .38ZM340.73 591.63s-15.89-11.34-19.89 14.21c-2.28 14.61-1.83-5.22 17.19-9.07 1.97-.4 2.7-5.14 2.7-5.14ZM42.95 937.74l-4.65.21-2.71-58.9 5.32-.25 2.04 58.94zM270.74 1080.63l-.01 4.96 58.96.19.02-5.32-58.97.17z"/><path class="cls-3" d="M40.52 893.17a1.5 1.5 0 0 1-.07-3l10.74-.5a1.5 1.5 0 1 1 .14 3l-10.74.49ZM283.86 1082.79a1.5 1.5 0 0 1-1.49-1.5v-10.75a1.5 1.5 0 0 1 1.5-1.5 1.5 1.5 0 0 1 1.49 1.51v10.75a1.5 1.5 0 0 1-1.5 1.49ZM345.46 637.16a11.51 11.51 0 0 1-1.8-.16 1.5 1.5 0 0 1 .5-3 6 6 0 0 0 2.41 0c.29-.47.31-.75.32-4.73v-3.62c0-.73.19-4.3 1.33-6.06a2.79 2.79 0 0 1 2.41-1.16c2.76-.08 7.84 2 10 4.86a1.5 1.5 0 0 1-2.38 1.83c-1.84-2.39-6.38-3.9-7.64-3.7a14.14 14.14 0 0 0-.74 4.29v3.57c0 4.62 0 5.11-.83 6.41s-2.26 1.47-3.58 1.47Z"/><path class="cls-3" d="M380 590.49c-5-4-8.74.16-13.55 1.42s-4.5-3.52-9-8.11-7.24.42-13 2.13-5.72-.57-10.95-1.9c-3.72-1-5.14 2.44-5.65 4.48a8 8 0 0 0-3.39 1.46c-4.71 3.77 1.64 6.47-3.5 14.27-2.5 3.79 4.58 11 4.9 7.27s2.89-6.19 4.9-8.36a10.3 10.3 0 0 0 .78-1 25.31 25.31 0 0 1 4.43-.24c3.4.32 6.28 2.58 10.41 5.83s7.52 1.74 11.47.32 8.18.93 9.14 3.49a1.27 1.27 0 0 0 .48.57 5.73 5.73 0 0 0-.18 2.31c.62 2.78-.67 3.79-3.27 9.68s2.74 2.12 3.47 1.94 3-3 3.59-7.08 2.76-3 4.26-7a8.63 8.63 0 0 0 .42-3.72 5 5 0 0 1 .92-3c1.51-1.63 5.17-.36 8.42-4.21s-.1-6.5-5.1-10.55ZM345.32 641.83a2.16 2.16 0 0 1-3.18 2c-5.41-2.73-8.77-8.89-7.57-8 .47.35 3.65 2.72 5.89 4 3.03 1.79 4.54 1.11 4.86 2ZM273.12 831.5l8.11-17.45a1.5 1.5 0 0 0-2.72-1.27L271 829l-8.71 2.31L246 860.18a1.5 1.5 0 0 0 .58 2 1.47 1.47 0 0 0 .73.19 1.51 1.51 0 0 0 1.31-.76l12-21.31L271 941.92l4.13 103.63a1.5 1.5 0 0 0 1.5 1.43h.06a1.49 1.49 0 0 0 1.44-1.55L274 941.71 263.17 835.8l1.1-2ZM248.74 797.74a1.49 1.49 0 0 0-1.89-1l-23.25 7.56a1.5 1.5 0 0 0 .46 2.92 1.53 1.53 0 0 0 .47-.07l8.31-2.69-49.26 85-102.16-2.6a1.5 1.5 0 1 0-.08 3l103.06 2.6h.88l51.83-89.4 10.66-3.45a1.51 1.51 0 0 0 .97-1.87Z"/><path class="cls-7" d="M464.58 711.5c-1.48-.48-3.55-.15-9.69 1-6.84 1.33-18.75 3.73-40.56 7.26-33.43 5.42-65.15-47.23-70.42-44.35-27.38 15-35.24-13.11-36.92-17.55-4.61-12.26-92-14.94-110.09-7.54-18.37 7.53-38.9 65.83-38.9 65.83l23.65 12.33 34.19-31.81 19.16 6.49-30.08 73.94 105.3 40.9s15-39.52 18-47.18c0 0 8.48-14 16.5-29.87 15.82 10.88 41.28 20.9 58.28 17.49 48.92-9.83 60.36-17.9 63.6-20.75.57-.48-2.02-26.19-2.02-26.19Z"/><path class="cls-2" transform="rotate(-5.58 534.553 654.73)" d="M474.77 574.26h120.27v161.69H474.77z"/><path class="cls-3" d="m481.56 743-16-163.9 1.49-.15 121.19-11.83 16 163.9-1.49.15Zm-12.73-161.17 15.42 157.93L601 728.37l-15.46-157.93Z"/><path class="cls-3" d="M496.38 627.45a15 15 0 1 1 1.47-.07 14.6 14.6 0 0 1-1.47.07Zm0-26.94a11.45 11.45 0 0 0-1.17 0 12 12 0 0 0 2.33 23.84 12 12 0 0 0-1.16-23.89Z"/><path class="cls-4" d="M514.72 661.58a13.47 13.47 0 1 1-14.72-12.1 13.46 13.46 0 0 1 14.72 12.1Z"/><path class="cls-3" d="M506.05 726.54a15 15 0 1 1 1.47-.07 14.46 14.46 0 0 1-1.47.07Zm0-26.95q-.57 0-1.17.06a11.94 11.94 0 1 0 1.17-.06ZM520.33 602.37a1.5 1.5 0 0 1-.15-3l52.15-5.09a1.5 1.5 0 0 1 .29 3l-52.15 5.09ZM522 619.42a1.5 1.5 0 0 1-.14-3l24.82-2.42a1.5 1.5 0 0 1 .29 3l-24.83 2.42ZM523.63 649.09a1.5 1.5 0 0 1-.14-3l52.15-5.09a1.5 1.5 0 1 1 .29 3l-52.15 5.1ZM525.3 666.14a1.5 1.5 0 0 1-.14-3l24.84-2.41a1.5 1.5 0 1 1 .29 3l-24.83 2.43ZM530.23 703.85a1.5 1.5 0 0 1-.14-3l52.15-5.09a1.5 1.5 0 1 1 .29 3l-52.15 5.1ZM531.9 720.9a1.5 1.5 0 0 1-.15-3l24.84-2.42a1.5 1.5 0 1 1 .29 3l-24.83 2.43ZM500.1 667l-14.28-12.72a1.5 1.5 0 1 1 2-2.24l12.09 10.77L523 638.09a1.5 1.5 0 1 1 2.19 2Z"/><path class="cls-2" d="M480.76 723c-8.07 1-15.19 9-15.19 9l-1.82-18s7.9-1.28 9-4.13 13.63-20.13 14-14.8c.25 3.74-5.19 13.25-5.41 15.42-.12.51-.58 12.51-.58 12.51Z"/><path class="cls-3" d="m464.43 735.61-2.31-22.87 1.39-.22c3.33-.54 7.35-2 7.8-3.17.74-2 10.89-17.39 15-16.77a2.28 2.28 0 0 1 1.9 2.39c.17 2.68-1.83 7.17-3.6 11.13a32.81 32.81 0 0 0-1.82 4.54c0 .5-.33 7.72-.51 12.45l-.05 1.27-1.27.16c-7.41.9-14.18 8.45-14.24 8.53Zm.95-20.39 1.37 13.56c2.65-2.4 7.3-6 12.56-7 .14-3.64.42-10.93.47-11.41.11-1 .82-2.66 2.07-5.47s2.91-6.52 3.28-8.77c-3.07 2.46-10.17 12-11 14.29-1.07 2.81-5.95 4.21-8.75 4.8Zm15.38 7.78Z"/><path class="cls-7" d="m454.47 712.62 3.2 30.43 11-6.57-3.13-25.19-11.07 1.33z"/><path class="cls-3" d="M1626.84 619.1c-1.89-9.1-3-35.9-24.28-43.32 14.88-13.32-12.73-24.93-19.69-17.71-6.37 6.6-1.48 13.22.3 15.22-5 .51-8.79.09-15.84 6.71-13.65 12.82-5.91 34.27-5.4 43s4.3 49.68 4.3 49.68l69.32 14.94s1.14-20.94-8.71-68.52Z"/><path class="cls-4" d="m1582 572.6.1 2s16.2 2.64 21.32 2.77l.48-2.06s-18.8-1.69-21.9-2.71Z"/><path class="cls-2" d="m1589.02 949.67-1.5 33.37 18.14-1.62 1.24-33.45-17.88 1.7z"/><path class="cls-3" d="m1586 984.69 1.63-36.39 20.88-2-1.35 36.49Zm4.51-33.65-1.36 30.36 15.11-1.35 1.13-30.43Z"/><path class="cls-7" d="M1586.57 975.62s-27.55-4.24-28.3 7.65 0 11.12 0 11.12h47.53l.72-14s-17.38 2.98-19.95-4.77Z"/><path class="cls-2" d="m1503.8 844-1.5 33.37 18.14-1.62 1.24-33.45-17.88 1.7z"/><path class="cls-3" d="m1500.73 879 1.63-36.39 20.88-2-1.35 36.49Zm4.51-33.65-1.36 30.36 15.11-1.35 1.13-30.43Z"/><path class="cls-7" d="M1501.35 870s-27.55-4.24-28.3 7.65 0 11.12 0 11.12h47.53l.72-14s-17.38 2.93-19.95-4.77Z"/><path class="cls-3" d="M1472 886.29h49.39v2.74H1472z"/><path class="cls-7" d="m1579.52 777.4 4.66 180.42 27 2.81s10-137.64 20.8-162.52c13-30-4.13-63.54-4.13-63.54l-51.41 5.43a13.16 13.16 0 0 1-1.49 5.71c-1.85 2.9-37.81 14.12-70.18 42.79-6.07 5.38-4.81 38.42-4.81 64.95l25.16.6 5.93-43 48.9-17.21Z"/><path class="cls-6" d="M1597.94 644.05c9.43 2.34 47.7 13 31.94 79.32l-2.34 2.77.89 8.41-49.66 14.38-1.88-8.28s-3.59-.95-9-8.09-6.65-25-6.65-25l.27-40.74s4.81-11.33 7.93-14.11c7.72-6.95 18.44-11.16 28.5-8.66Z"/><path class="cls-3" d="M1557.22 991.96h49.39v2.74h-49.39z"/><path class="cls-2" d="M1484.68 686.59s-16-5.83-15.72-3.34 15 6.61 15 7c-.11.58-8.12-1.36-8.62.36-.68 2.38 11 2.21 17.51 2.43s18.42 3.72 18.42 3.72l-4.57-7.42s-7.55-3.49-8.6-5.69-6.88-14.83-6.78-10.55a51.46 51.46 0 0 0 1 8c.08.42-1.38.51-1.74.27-3.58-2.4-14.63-10.05-14.83-7.45-.24 3.06 11 8.88 10.85 9.11-.65.79-12.5-7.63-15.92-6.44-4.91 1.7 14.35 10.13 14.35 10.13Z"/><path class="cls-3" d="m1514.57 699.25-3.75-1.1c-.11 0-11.79-3.45-18-3.66l-3.22-.08c-9.74-.22-14-.59-15.34-2.37a2.14 2.14 0 0 1-.34-1.89 2.23 2.23 0 0 1 1.44-1.5c-5.72-2.18-7.69-3.58-7.85-5.26a1.93 1.93 0 0 1 .75-1.73c.29-.22.87-.67 3.18-.42q-3.15-2.31-3.09-3.94a2.37 2.37 0 0 1 1.8-2.14c1.14-.4 2.68-.16 4.53.51a3.39 3.39 0 0 1-.46-1.87 2 2 0 0 1 1.13-1.7c1.6-.77 4.38.16 15.14 7.41a46.39 46.39 0 0 1-.65-6.43c0-1.76.86-2.24 1.4-2.36 1.45-.35 2.48 0 8 11.74l.24.49c.48 1 4.46 3.4 7.87 5l.41.19Zm-29.51-8c1.66.06 3.29.1 4.57.13l3.25.08c4.39.15 11 1.69 15.09 2.76l-2.33-3.79c-2.26-1.07-7.8-3.88-8.91-6.22l-.24-.5c-1.48-3.13-2.58-5.32-3.39-6.84.2 1.57.44 3 .62 3.9a1.69 1.69 0 0 1-.76 1.75 3.43 3.43 0 0 1-3.29.05l-.8-.54a101 101 0 0 0-10.47-6.47 50.08 50.08 0 0 0 7.28 5.07c1.91 1.16 2.2 1.34 2.33 2.1l.12.68-.44.53c-1 1.26-2.28.58-6.39-1.69-2.23-1.23-7-3.88-9.3-4.29 2.06 1.75 7.9 4.85 13.22 7.2h.13l.21.1a1.5 1.5 0 1 1-1.21 2.74l-.25-.11a111.09 111.09 0 0 0-10.64-3.31c2.76 1.22 6.57 2.52 8.22 3.08 3.29 1.13 4 1.36 3.74 2.72a1.78 1.78 0 0 1-.36.9Z"/><path class="cls-6" d="M1615.16 683.74s-2.39 27.51-23 53.37c-9.64 12.12-29.11 26.43-45.66 40.4L1534.1 765l40.2-39.26 10.17-51Z"/><path class="cls-6" d="M1573.66 658.19s-4.73-6.12-9 2.7c-5.16 10.7-18.43 28.91-21.66 30.53s-42.72-8.1-42.72-8.1l-6.28 16.53s26.9 9.76 44.3 17.12 39.7-24.54 39.7-24.54Z"/><path class="cls-3" d="M1569.31 732a1.5 1.5 0 0 1-1-2.59l4.66-4.41 9.78-49.11a1.5 1.5 0 0 1 2.94.58l-10 50.05-5.34 5.07a1.51 1.51 0 0 1-1.04.41ZM1546.55 779a1.5 1.5 0 0 1-1-2.64l43.61-36.84c3.11-4.07 14.84-37.19 22-58.65a1.5 1.5 0 1 1 2.84 1c-1.86 5.57-18.31 54.5-22.63 59.71l-.18.19-43.73 36.93a1.49 1.49 0 0 1-.91.3ZM1562.09 716.3a1.51 1.51 0 0 1-1.44-1.06c-5.38-17.74-1.38-44-1.21-45.09a1.5 1.5 0 1 1 3 .46c0 .27-4.06 26.68 1.12 43.76a1.49 1.49 0 0 1-1 1.87 1.59 1.59 0 0 1-.47.06Z"/><path class="cls-2" d="M1600.18 646.17c1.27-1.25-2.27-26.21-2.27-26.21l-22 4.34s-.26 24.09-1 28c-.01-.02 14.23 4.7 25.27-6.13Z"/><path class="cls-3" d="M1582.47 654.84a27.21 27.21 0 0 1-8-1.14l-1.25-.41.26-1.3c.6-3.08.92-21 1-27.71v-1.22l24.74-4.88.22 1.57c3.64 25.71 2.41 26.91 1.83 27.49a26.17 26.17 0 0 1-18.8 7.6Zm-5.91-3.66c3.47.82 13.82 2.32 22.34-5.86.35-2.11-.82-13.19-2.25-23.58l-19.24 3.8c-.06 4.53-.3 20.11-.85 25.64Zm22.56-6.08Z"/><path class="cls-2" d="M1598 626.34c3.49-1.9 9.67-5.83 10.2-10.14s-4.44-4.23-6-3.68c-1 .37 2.53-23.81 2.53-23.81l-33.17-5.42s-7.38 21.5-7.23 33.54 5.38 15.68 14.07 16.83a20.52 20.52 0 0 0 10.58-1.2Z"/><path class="cls-3" d="M1581.5 635.37a25 25 0 0 1-3.31-.22c-10.77-1.43-15.22-6.73-15.37-18.3-.15-12.16 7-33.16 7.31-34.05l.41-1.19 35.88 5.85-.22 1.47c-1.29 8.71-2.51 18.31-2.69 21.84a6.73 6.73 0 0 1 4.59 1.22 4.58 4.58 0 0 1 1.58 4.4c-.58 4.69-6.29 8.71-11 11.26a1.5 1.5 0 1 1-1.43-2.63c5.67-3.09 9.11-6.37 9.43-9 .14-1.06-.21-1.47-.48-1.69a4.56 4.56 0 0 0-3.54-.4l-.8.28-.71-.55c-.75-.61-1.45-1.19 1.85-23.71l-30.45-5c-1.52 4.66-6.87 21.79-6.75 31.83.15 11.4 5 14.33 12.77 15.36a19.21 19.21 0 0 0 9.82-1.1 1.5 1.5 0 1 1 1.13 2.78 21.37 21.37 0 0 1-8.02 1.55Z"/><path class="cls-3" d="M1571.18 608.88h-.33a1.5 1.5 0 0 1-1.14-1.79l.29-1.09a1.5 1.5 0 1 1 2.93.65l-.24 1.08a1.5 1.5 0 0 1-1.51 1.15ZM1585.41 611.91a1.22 1.22 0 0 1-.32 0 1.49 1.49 0 0 1-1.14-1.78l.24-1.08a1.5 1.5 0 0 1 2.93.65l-.24 1.07a1.51 1.51 0 0 1-1.47 1.14ZM1593.47 607.75a1.46 1.46 0 0 1-.84-.26c-2.11-1.44-5.94-2.06-7.23-2.17a1.5 1.5 0 0 1 .26-3c.23 0 5.47.51 8.66 2.68a1.5 1.5 0 0 1-.85 2.74Z"/><path class="cls-3" d="M1577 617.05a1.69 1.69 0 0 1-.38 0c-5.09-1.33-5.22-2.65-5.27-3.29a2.86 2.86 0 0 1 1.21-2.33 13.44 13.44 0 0 0 3.27-4.81c.57-1.29.64-2.25.21-2.85-.91-1.27-4.07-1.44-5.46-1.32a1.5 1.5 0 1 1-.27-3c.61-.06 6-.45 8.16 2.54 1.09 1.52 1.13 3.47.11 5.81a16.38 16.38 0 0 1-3.67 5.5 18.8 18.8 0 0 0 2.47.82 1.5 1.5 0 0 1 1.07 1.83 1.48 1.48 0 0 1-1.45 1.1ZM1582 808.71h-.12a1.49 1.49 0 0 1-1.54-1.46l-.72-29a1.5 1.5 0 1 1 3-.08l.73 29a1.5 1.5 0 0 1-1.35 1.54ZM1564.77 588.85s35.66 7.59 36.72 23.9c0 0 3.85-1.4 5.1-.87a4 4 0 0 1 2 1.46l5.84-24.9-42.67-6.66ZM1580.06 620.36c.36.85-3.29 3.27-5.64 2.81-5.91-1.15-6.43-6.53-5.31-5.48a11.75 11.75 0 0 0 6 2.89c3.82.42 4.53-1.18 4.95-.22Z"/><path class="cls-5" d="M1535.94 924.05 1405.47 632a.68.68 0 0 1 .35-.91l51.24-22.89a.69.69 0 0 1 .91.34l130.48 292.06Z"/><path class="cls-2" d="m1407.05 573-.57 24.28-.79 34a.71.71 0 0 0 1 .66l50.48-22.55a.71.71 0 0 0 .17-1.18l-44.34-37.9a3.62 3.62 0 0 0-5.95 2.69Z"/><path class="cls-3" d="M1459.34 607.92c-.27-.61-45.33-38.76-45.33-38.76a5.13 5.13 0 0 0-8.46 3.78s-1.75 59-1.45 59.66l130.47 292.06.61 1.37 55.25-24.68Zm-51.35-11c2.78-1.71 17.61-8.67 21.58-10.53l24.91 21.29-47.23 21.09Zm118 301.06-118.38-264.87 14.19-6.34 117.87 264.85Zm16.46-7.62-117.91-264.81 14.86-6.64 117.77 264.62Zm-100.31-272.67 15.24-6.81 118 264.19-15.51 7.2Z"/><path class="cls-2" d="M1539.74 779c3-5.67 12.12-9.41 12.12-9.41l-12.44-6.77s-3.45 5.63-5.87 5.52-16.53-.07-12.79 1.79a51.33 51.33 0 0 0 7.4 2.85.46.46 0 0 1 .06.86c-3.84 1.95-17.83 13.25-15.17 15.54 5.02 4.3 20.12 2.12 26.69-10.38Z"/><path class="cls-3" d="M1519.9 792.9a12 12 0 0 1-7.83-2.39 2.54 2.54 0 0 1-.83-2.29c.46-3.81 9.67-11.37 14.33-14.52a45.82 45.82 0 0 1-5.48-2.23c-1.61-.81-1.51-1.92-1.4-2.36.34-1.29 1.49-1.92 7.41-2.2 3.19-.16 6.47-.13 7.52-.08.8 0 3-2.32 4.5-4.8l.74-1.22 16.47 9-2.92 1.2c-.09 0-8.67 3.6-11.36 8.72a24.9 24.9 0 0 1-17.21 12.82 21.24 21.24 0 0 1-3.94.35Zm-5.66-4.5c1.86 1.41 5.37 1.87 9.06 1.16a21.86 21.86 0 0 0 15.11-11.26c2.15-4.09 7-7.17 10.15-8.81l-8.65-4.7c-1.38 2-3.93 5.18-6.43 5-1.9-.08-6.19 0-9.22.21 1.7.67 3.32 1.19 4.34 1.5a2 2 0 0 1 .29 3.64c-3.81 1.96-14.07 10.69-14.65 13.26Zm25.5-9.41Z"/><path class="cls-6" d="m1550.77 750.48-16.67 14.49 11.59 11.67 18.4-16.24-13.32-9.92z"/><path class="cls-3" d="M1134.64 183.47V26.39h170.17v107.12H1184.6Zm3-154.08v146.84l45.72-45.72h118.45V29.39Z"/><path class="cls-3" d="M1277.32 54.32h-49.71a1.5 1.5 0 0 1 0-3h49.71a1.5 1.5 0 0 1 0 3ZM1277.32 77.42h-49.71a1.5 1.5 0 0 1 0-3h49.71a1.5 1.5 0 0 1 0 3ZM1278.29 100.51h-49.71a1.5 1.5 0 0 1 0-3h49.71a1.5 1.5 0 0 1 0 3ZM1182.55 105.78a29.86 29.86 0 1 1 29.86-29.86 29.9 29.9 0 0 1-29.86 29.86Zm0-56.72a26.86 26.86 0 1 0 26.86 26.86 26.89 26.89 0 0 0-26.86-26.86Z"/><path class="cls-3" d="M1194.51 89.38a1.51 1.51 0 0 1-1.06-.44l-22.63-22.62a1.51 1.51 0 0 1 2.13-2.13l22.62 22.63a1.49 1.49 0 0 1 0 2.12 1.51 1.51 0 0 1-1.06.44Z"/><path class="cls-3" d="M1170.93 89a1.45 1.45 0 0 1-1.06-.44 1.49 1.49 0 0 1 0-2.12l22.74-22.74a1.5 1.5 0 1 1 2.12 2.12L1172 88.6a1.48 1.48 0 0 1-1.07.4Z"/></g></g></svg>