<svg xmlns="http://www.w3.org/2000/svg" viewBox="0 0 460.72 395.03">
  <defs>
    <style>
      .cls2{fill:#cce1f7}.cls3{fill:#3b73ab}.cls4{fill:#00528a}.cls5,.cls9{fill:#01305a}.cls6{fill:#fff}.cls7{fill:#ff7c78}.cls9{opacity:.2}.cls11{fill:#ffc0ad}.cls12{fill:#fda084}.cls13{fill:#d84e5a}.cls14{fill:#ff7972}
    </style>
  </defs>
  <g >
    <g id="abs" data-name="abs">
      <g id="objects">
        <path d="M209.9 89.39c-15.39-55.82-84.73-73.8-124.46-32.08l-1.71 1.82c-57 61.93-30.06 214.54 88.83 253.22s242.56-32 249.51-95.09-47.9-83-133-65.33c-48.07 9.98-69.59-27.79-79.17-62.54Z" class="cls2"/>
        <path d="M329.86 102.24c-15.91 2.59-20.32 16.69-8 26.68 4.06 3.31 9.86 6.05 18.12 7.42 31.46 5.22 48.16-8.7 35.55-26.75-7.83-11.14-29.91-9.91-45.67-7.35ZM40.71 196.43c-9.88-12.72-24.37-9.85-27.27 5.72-.95 5.15-.59 11.56 2.16 19.46 10.48 30.12 30.7 38.12 40.51 18.4 6.05-12.16-5.59-30.96-15.4-43.58ZM257.44 74.09l1.65-8.42-7.89-1.55a19.27 19.27 0 0 0-1-6.17l6.51-4.37-4.79-7.13-6.23 4.18a19.21 19.21 0 0 0-6.39-4.3l1.55-7.89-8.42-1.65-1.6 8.13a19.42 19.42 0 0 0-5.13 1l-4.37-6.51-7.13 4.79 4.19 6.23a19.21 19.21 0 0 0-4.3 6.39l-6.9-1.35-1.66 8.42 7.15 1.4a19.12 19.12 0 0 0 1.51 6.51l-6.27 4.2 4.78 7.13 6.51-4.37a19.36 19.36 0 0 0 6.28 3.64l-1.56 8 8.42 1.6 1.65-8.63a19.26 19.26 0 0 0 5.46-1.44l4.18 6.23 7.13-4.79-4.37-6.51a18.92 18.92 0 0 0 2.86-4.37Zm-21.16-3.37a7.87 7.87 0 1 1 2.14-10.92 7.88 7.88 0 0 1-2.14 10.92ZM209.82 35.36l.9-4.6-4.31-.85a10.55 10.55 0 0 0-.57-3.37l3.55-2.39-2.61-3.9-3.41 2.29a10.44 10.44 0 0 0-3.49-2.35l.85-4.31-4.61-.88-.87 4.45a10.36 10.36 0 0 0-2.8.54l-2.39-3.55-3.9 2.56 2.29 3.4a10.44 10.44 0 0 0-2.35 3.49l-3.77-.74-.91 4.61 3.91.76a10.62 10.62 0 0 0 .83 3.56l-3.41 2.28 2.62 3.9 3.56-2.39a10.48 10.48 0 0 0 3.43 2l-.85 4.34 4.6.91.92-4.71a10.26 10.26 0 0 0 3-.79l2.28 3.41 3.9-2.62-2.39-3.56a10.5 10.5 0 0 0 1.56-2.38Zm-11.57-1.84a4.3 4.3 0 1 1 1.18-6 4.3 4.3 0 0 1-1.18 6ZM441.38 58.89l.91-4.61-4.29-.84a10.34 10.34 0 0 0-.57-3.38l3.57-2.38-2.62-3.9-3.4 2.29a10.54 10.54 0 0 0-3.49-2.35l.84-4.32-4.6-.9-.91 4.5a10.51 10.51 0 0 0-2.81.54l-2.38-3.55-3.9 2.61L420 46a10.58 10.58 0 0 0-2.35 3.5l-3.78-.74-.9 4.6 3.9.77a10.62 10.62 0 0 0 .83 3.55l-3.4 2.29 2.62 3.89 3.55-2.39a10.61 10.61 0 0 0 3.43 2l-.85 4.34 4.61.9.92-4.7a10.86 10.86 0 0 0 3-.79l2.29 3.4 3.89-2.62-2.39-3.56a10.39 10.39 0 0 0 1.57-2.44ZM429.82 57a4.3 4.3 0 1 1 1.17-6 4.31 4.31 0 0 1-1.17 6ZM47.71 116.11l.91-4.61-4.32-.84a10.55 10.55 0 0 0-.57-3.37l3.55-2.39-2.61-3.9-3.4 2.29a10.58 10.58 0 0 0-3.5-2.35l.85-4.32-4.62-.9-.87 4.45a10.51 10.51 0 0 0-2.8.54L28 97.16l-3.89 2.61 2.28 3.41a10.44 10.44 0 0 0-2.39 3.49l-3.77-.74-.9 4.6 3.9.77a10.56 10.56 0 0 0 .83 3.55l-3.4 2.29 2.6 3.86 3.56-2.38a10.77 10.77 0 0 0 3.43 2L29.4 125l4.6.9.93-4.7a10.28 10.28 0 0 0 3-.79l2.28 3.4 3.9-2.61-2.39-3.56a10 10 0 0 0 1.56-2.39Zm-11.56-1.85a4.3 4.3 0 1 1 1.17-6 4.3 4.3 0 0 1-1.17 6ZM228 345.1c-76.29 0-143-3.33-179.17-8.29a3.09 3.09 0 0 0-1.27 6c24.7 7 59.67 7.53 82 9.94 38.51 4.15 94.5 3 98.43 16.42s4.32 27.63-34.93 25.63c-42.59-2.17-35.5-25.63-35.5-25.63C118 370.33 24 361.09 13.64 345.1c-10.28-15.81 8.56-19.47 9-19.55 15.91-8 101.78-14.16 205.34-14.16 114.86 0 208 7.54 208 16.85S342.83 345.1 228 345.1Z" class="cls2"/>
        <path d="M85.44 296.25c-9.16-9.23-29.16-30.87-41.77-55.43-18.08-35.25-36.22-32.1-39.78-19.64-9.2 32.23 45 67.25 67.49 80.19Z" class="cls3"/>
        <path d="M80.49 298.05c-15.78-11.83-29.13-25.84-38.19-36.4a270.89 270.89 0 0 1-19.51-25.44.86.86 0 1 0-1.45.94A266.6 266.6 0 0 0 41 262.76c8.91 10.44 22 24.24 37.54 36ZM83.17 283.84c-4.24-8.46-12.28-26.2-15.27-44.27-4.45-27-17-28.76-22-21.31-13.66 20.45 19.1 58.06 29.48 69.19Z" class="cls4"/>
        <path d="M80.21 285.22A171.61 171.61 0 0 1 62.6 253a184 184 0 0 1-7.45-20.85.6.6 0 0 0-1.16.32 185.66 185.66 0 0 0 7.5 21 172.52 172.52 0 0 0 17.61 32.3Z" class="cls5"/>
        <path d="M383.35 159.2c8.44-9.89 26.77-33 37.5-58.41 15.39-36.51 33.71-34.73 38.15-22.57 11.6 31.45-39.83 70.44-61.28 85Z" class="cls3"/>
        <path d="M388.43 160.62c14.85-13 27.1-28 35.35-39.16a271.84 271.84 0 0 0 17.54-26.83.87.87 0 1 1 1.53.83 272.88 272.88 0 0 1-17.65 27c-8.15 11.08-20.19 25.8-34.78 38.72ZM384.69 146.66c3.59-8.76 10.28-27 11.9-45.3C399 74.1 411.43 71.41 417 78.46c15.14 19.37-14.66 59.33-24.23 71.21Z" class="cls4"/>
        <path d="M387.74 147.8a171.2 171.2 0 0 0 15.14-33.46A183.87 183.87 0 0 0 408.75 93a.61.61 0 0 1 .71-.48.6.6 0 0 1 .47.71A184.51 184.51 0 0 1 404 114.7a173.6 173.6 0 0 1-15.14 33.53Z" class="cls5"/>
        <path d="M127 55.84c1.58-14.74.35-29-7-25.47s-4.76 28 5.22 44.13l2.08 6.31c-7.07-11.9-21.17-22-27-18.2s4.29 9.59 14.32 13.39c7.63 2.91 11.95 6.57 14 8.64l9.84 29.77c-11.25-18.8-33.53-34.68-42.69-28.72s6.74 15.23 22.64 21.29c12 4.59 18.88 10.34 22.1 13.64l2 5.93 3.25-.55L134 90.6a42.32 42.32 0 0 1 5.44-12c5.77-9 10.32-19.7 3.47-19.28-5.95.37-10.73 12.69-11 24.9l-4-12.25a61.5 61.5 0 0 1-.91-16.13Z" class="cls4"/>
        <path d="M432.76 230.79c4-14.28 10.37-27.06 15.89-21.09s-5.9 27.77-21.14 39.09l-4.26 5.09c11-8.44 27.79-12.6 31.78-7s-7.49 7.35-18.22 7.2c-8.16-.11-13.53 1.69-16.17 2.87l-20.13 24c17.4-13.32 44-19.85 50.28-10.93s-11.88 11.66-28.9 11.43c-12.87-.18-21.36 2.63-25.57 4.51l-4 4.79c-.94-.57-1.88-1.14-2.81-1.72l23.95-28.59a42 42 0 0 0-.6-13.2c-2-10.54-2.32-22.12 3.89-19.2 5.39 2.53 5.29 15.75 1.06 27.21l8.29-9.89a61.52 61.52 0 0 0 6.66-14.57Z" class="cls3"/>
        <path d="M99.09 208.44h16.46c-8.9-1.47-30.95-10.93-32.91-29.92-2.5-24-11.06-23.74-25.48-26.25s-18.4 1.59-27.56-17.08-29.6-21-29.6-21 18.63 20.33 15.06 35.77 8.79 21.61 18.68 23.56 7.52 15.21 11.26 23.75c1.71 3.89 8.74 7.93 15.86 11.17Z" class="cls4"/>
        <path d="M63.43 184.77c.72 7.21 4.86 15.77 11.08 22.91.22.25.44.51.68.76h1.87c-.54-.56-1-1.12-1.52-1.66-5.94-6.78-10.06-15.32-10.74-22.14-1.09-10.87-9.49-18.27-27.23-24C27.27 157.3 24 144.73 24 144.6a.69.69 0 0 0-1.33.33c.14.55 3.46 13.44 14.5 17 17.13 5.55 25.24 12.59 26.26 22.84Z" class="cls5"/>
        <path d="M90.62 208.44h34.6v-.1a44.84 44.84 0 0 0 1.64-10.6c.42-12.12.62-42.53-7.21-50.32-9.84-9.79-29.56-13.61-27-28.39S93.38 83.81 70 80.49 28.44 40.43 28.44 40.43s-7.68 29.63 13.32 52.34 13.18 26 9 47.4-9.24 33.1 22.81 49.44a35.63 35.63 0 0 1 17.05 18.83Z" class="cls3"/>
        <path d="M72.81 117.46c-1.54 27.71 4.25 43.33 18.75 50.66 9.11 4.6 18.68 14.86 25 26.77a76.32 76.32 0 0 1 5.58 13.55h2.13a77.87 77.87 0 0 0-5.9-14.5c-6.59-12.45-16.26-22.79-25.87-27.64-13.68-6.91-19.12-21.94-17.63-48.73 1-17.23-15.16-28.74-15.85-29.23a1 1 0 0 0-1.42.25 1 1 0 0 0 .23 1.41c.17.13 15.88 11.38 14.98 27.46ZM292.44 153.59h16.86l17.09-11.14c4.2-6.6 7.88-13.82 7.19-18-1.51-9.2-10.75-19.05-3.52-26.07s14.21-18.94 2.79-29.94S326 30.23 326 30.23 310.11 43.36 312.62 64s-3.06 19.37-13.77 29.35-18.05 14.4-7 35.91c4.15 8.04 3.3 16.74.59 24.33Z" class="cls4"/>
        <path d="M311.33 124c3.33 6.42 4.54 15.86 3.23 25.23l-.15 1-1.57 1q.21-1.14.36-2.22c1.25-9 .07-18.32-3.08-24.41-5-9.7-2-20.49 9.71-35 6.81-8.42 2.67-20.73 2.63-20.85a.68.68 0 0 1 1.29-.45c.19.53 4.44 13.15-2.86 22.16-11.34 14.08-14.29 24.41-9.56 33.54Z" class="cls5"/>
        <path d="M355.92 153.59a35.34 35.34 0 0 1 6.72-4.41c32-16.33 27-28.06 22.8-49.43s-12.06-24.69 8.95-47.41S407.72 0 407.72 0s-18.24 36.74-41.59 40.06-25.3 23.78-22.7 38.55-17.12 18.6-27 28.39c-7.12 7.08-7.59 32.86-7.31 46.59Z" class="cls3"/>
        <path d="M320.09 153.59c6.3-11.54 15.62-21.41 24.5-25.9 14.51-7.32 20.29-23 18.75-50.66-.89-16.08 14.82-27.33 15-27.44a1 1 0 0 0-1.17-1.67c-.69.48-16.8 12-15.85 29.23 1.49 26.78-3.95 41.81-17.63 48.72-9.61 4.86-19.28 15.19-25.86 27.64v.08Z" class="cls4"/>
        <rect width="335.32" height="207.92" x="62.37" y="99.52" class="cls5" rx="13.5"/>
        <path d="M382.79 122.22v162.51a8.65 8.65 0 0 1-8.65 8.66H85.92a8.63 8.63 0 0 1-5.35-1.85 9.54 9.54 0 0 1-1.09-1 8.61 8.61 0 0 1-2.22-5.79V122.22a8.66 8.66 0 0 1 8.66-8.66h288.22a8.58 8.58 0 0 1 4.38 1.19 8.74 8.74 0 0 1 3 2.89 8.62 8.62 0 0 1 1.27 4.58Z" class="cls6"/>
        <path d="M182.13 235.37h-11.81v15.24h-29.08v-15.24H95.15v-19l37.71-54.61h30.73l-33.52 50.42h12.06v-13.63h28.19v13.59h11.81ZM186.32 206.17c0-29.46 16.76-46.48 40.26-46.48s40.25 17 40.25 46.48-16.76 46.48-40.25 46.48-40.26-17.02-40.26-46.48Zm50.41 0c0-17.15-4.31-22.48-10.15-22.48s-10.16 5.33-10.16 22.48 4.31 22.47 10.16 22.47 10.15-5.33 10.15-22.47ZM360.29 235.37h-11.81v15.24H319.4v-15.24h-46.1v-19l37.7-54.65h30.73l-33.53 50.42h12.07v-13.59h28.19v13.59h11.81Z" class="cls7"/>
        <path d="M429 300.21v1.15a26.31 26.31 0 0 1-26.31 26.32H57.36a26.31 26.31 0 0 1-26.31-26.32v-1.15Z" class="cls5"/>
        <path fill="#01305a" d="M185.43 300.21v.26c0 2.08 1.39 3.77 3.11 3.77h81.24c1.73 0 3.12-1.69 3.12-3.77v-.26Z" style="mix-blend-mode:screen"/>
        <path d="M382.79 122.22v9.59H77.26v-9.59a8.68 8.68 0 0 1 8.66-8.66h288.22a8.66 8.66 0 0 1 8.65 8.66Z" class="cls9"/>
        <rect width="163.55" height="4.85" x="146.19" y="120.73" class="cls6" rx=".75"/>
        <path d="M107.14 123.15V125a.68.68 0 0 1-1 .58l-1.55-.9-1.56-.9a.67.67 0 0 1 0-1.16l1.56-.9 1.55-.9a.68.68 0 0 1 1 .58ZM115.23 123.15V125a.68.68 0 0 0 1 .58l1.55-.9 1.56-.9a.67.67 0 0 0 0-1.16l-1.56-.9-1.55-.9a.68.68 0 0 0-1 .58Z" class="cls5"/>
        <path d="M381.23 117.26H78.83a8.63 8.63 0 0 1 7.09-3.7h288.22a8.61 8.61 0 0 1 7.09 3.7Z" class="cls9"/>
        <path fill="#01305a" d="M320.25 279.51H135.68a6.53 6.53 0 0 1-6.53-6.53 6.53 6.53 0 0 1 6.53-6.53h184.57a6.53 6.53 0 0 1 6.53 6.53 6.53 6.53 0 0 1-6.53 6.53Z" opacity=".1"/>
        <path d="M345.41 248.34a78.93 78.93 0 0 1-4.14 7.09c-9.9 15-17.27 11.78-21.24 7.16a20.76 20.76 0 0 1-3.13-5 21.5 21.5 0 0 1-1.73-5.85l1.84.43c2.18 1 5.79 2.38 8.47 2a4.92 4.92 0 0 0 1-.25c2.41-.91 5.68-5.64 7.89-9.23 1.45-2.36 2.45-4.23 2.45-4.23Z" class="cls11"/>
        <path d="M345.41 248.34a78.93 78.93 0 0 1-4.14 7.09 51.85 51.85 0 0 1-6.93-10.74c1.45-2.36 2.45-4.23 2.45-4.23ZM327.62 254.67s-2 6.13-10.72 3a21.5 21.5 0 0 1-1.73-5.85l1.84.43c2.18 1 5.79 2.38 8.47 2Z" class="cls12"/>
        <path d="M408.91 270.3c-2 11.54-11.38 3.06-12.19-5.95a59.19 59.19 0 0 1-.2-6.09c0-1.86.12-3.65.25-5.28 0-.32.05-.62.08-.92.35-3.93.84-6.68.84-6.68l6.13-7.54s.72 2.11 1.63 5.37c.85 3 1.86 7 2.63 11.17.23 1.26.44 2.55.61 3.83a41.26 41.26 0 0 1 .22 12.09Z" class="cls11"/>
        <path d="M405.45 243.21c-1.82 3.34-4.81 7.78-8.68 9.77 0-.32.05-.62.08-.92.35-3.93.84-6.68.84-6.68l6.13-7.54s.72 2.16 1.63 5.37Z" class="cls12"/>
        <path d="M408.69 258.21c-2.22 1.34-9.49.71-12.17.05 0-2.22.16-4.34.33-6.2l11.23 2.32c.23 1.26.44 2.55.61 3.83Z" class="cls12"/>
        <path d="M344.15 219.62s-8.88 15.68-10.34 21c0 0 6.07 10.14 11.57 11.26l2-6.91s.26-21.65-3.23-25.35Z" class="cls3"/>
        <path d="m363.66 211.56-19.51 8.06 8.63 66.84s26.85 3.77 40.73 0v-66.84l-19-8.48Z" class="cls3"/>
        <path d="M359.67 248a31.52 31.52 0 0 0 14.27 8.46.41.41 0 0 0 .53-.35.41.41 0 0 0-.3-.45 30.68 30.68 0 0 1-13.89-8.24.41.41 0 0 0-.71.22.43.43 0 0 0 .1.36ZM359.84 241.63a.32.32 0 0 0 .05.19 13.18 13.18 0 0 0 .74 1.17 16.82 16.82 0 0 0 9.6 6.5h.1a.38.38 0 0 0 .1-.75 15.73 15.73 0 0 1-9.87-7.33.38.38 0 0 0-.72.22ZM360.54 224.25a.38.38 0 0 0 .45.35 27.3 27.3 0 0 0 10.74-4.75 25.79 25.79 0 0 0 5.21-4.92.37.37 0 0 0-.07-.53.39.39 0 0 0-.54.07 27.51 27.51 0 0 1-15.49 9.37.38.38 0 0 0-.3.41Z" class="cls4"/>
        <path d="m330.58 329 2.09-10.76h-7.15l-1.75 10.16a8.45 8.45 0 0 0 6.81.6Z" class="cls11"/>
        <path d="M325.68 328.88s-1.59-2.08-2.83-2-10.73 7.83-14 8.5-2.61 3.08-2 4.3 26.18-.76 26.18-.76.61-7.62-.25-9.94-4.53.42-7.1-.1Z" class="cls4"/>
        <path d="M320.45 334.26a.44.44 0 0 0 .35-.05.46.46 0 0 0 .17-.63 7.1 7.1 0 0 0-2.42-2.46 3.2 3.2 0 0 0-3.26.18.46.46 0 0 0 .56.74 2.25 2.25 0 0 1 2.29-.1 6.22 6.22 0 0 1 2 2.11.47.47 0 0 0 .31.21Z" class="cls6"/>
        <path d="M321.8 333a.46.46 0 0 0 .52-.68 7.08 7.08 0 0 0-2.42-2.47 3.2 3.2 0 0 0-3.25.19.46.46 0 1 0 .56.74 2.24 2.24 0 0 1 2.29-.1 6.15 6.15 0 0 1 2 2.11.47.47 0 0 0 .3.21ZM318.6 335.33a.46.46 0 0 0 .36-.05.45.45 0 0 0 .16-.62 6.92 6.92 0 0 0-2.42-2.47 3.14 3.14 0 0 0-3.25.19.46.46 0 0 0-.09.64.47.47 0 0 0 .65.09 2.24 2.24 0 0 1 2.29-.1 6.24 6.24 0 0 1 2 2.11.43.43 0 0 0 .3.21Z" class="cls6"/>
        <path d="M363 279.76s-12.23-30.38-19.84-29.18c-11.77 1.86-19.64 38-18.68 71.74l8.08.46s9-31.77 10.66-40.1c0 0 6.23 21.62 20.26 18.61 10.4-2.23 3.63-12.86-.48-21.53Z" class="cls7"/>
        <path d="m331.61 321.39-1-.18c0-.12 2.17-11.95 4.77-23.89 5.32-24.38 7.31-25.52 8-25.89a1.36 1.36 0 0 1 1.28-.11c1.33.58 2 3.42 3 7.73 1.63 7 3.87 16.49 10.05 20.48l-.55.85c-6.52-4.22-8.81-14-10.49-21.1-.8-3.42-1.56-6.66-2.43-7-.05 0-.15-.07-.37.06-2.74 1.53-8.87 30.17-12.26 49.05Z" class="cls13"/>
        <path d="m323.69 319.84 9.9.83.19.02-.54 3.28-9.73-.68.18-3.45z" class="cls13"/>
        <path d="M359.88 301.45s14.22 2.73 33.08-.67a35 35 0 0 0-10.83-19.34l-25.43 1.83c-1.6 6.01-.44 12.07 3.18 18.18Z" class="cls7"/>
        <path d="M355.82 326.58a30.23 30.23 0 0 0-4.29-.68c-.92.06-6.78 7.23-8.83 7.73-3.74.91-3.48 6.79-1.17 7 6.66.54 17.87-2.76 17.87-2.76s.71-7.59.15-9.94-1.85-.73-3.73-1.35Z" class="cls4"/>
        <path d="m357.8 327.09 2.48-9.66h-7.14l-1.61 9.32s2.34 1.61 6.27.34Z" class="cls11"/>
        <path d="M350.62 333.27a.45.45 0 0 0 .35-.09.45.45 0 0 0 .1-.64 7 7 0 0 0-2.67-2.19 3.16 3.16 0 0 0-3.21.53.46.46 0 0 0 0 .65.45.45 0 0 0 .65 0 2.26 2.26 0 0 1 2.27-.34 6.22 6.22 0 0 1 2.24 1.88.45.45 0 0 0 .27.2Z" class="cls6"/>
        <path d="M351.83 331.82a.45.45 0 0 0 .35-.08.46.46 0 0 0 .1-.64 7.09 7.09 0 0 0-2.67-2.2 3.15 3.15 0 0 0-3.21.54.45.45 0 0 0 0 .65.46.46 0 0 0 .65 0 2.25 2.25 0 0 1 2.26-.33 6.3 6.3 0 0 1 2.25 1.87.45.45 0 0 0 .27.19ZM348.9 334.53a.48.48 0 0 0 .35-.08.46.46 0 0 0 .1-.65 7.19 7.19 0 0 0-2.67-2.19 3.16 3.16 0 0 0-3.21.53.46.46 0 0 0 0 .65.45.45 0 0 0 .65 0 2.28 2.28 0 0 1 2.27-.34 6.32 6.32 0 0 1 2.24 1.88.45.45 0 0 0 .27.2Z" class="cls6"/>
        <path d="M391.22 301.29a11.86 11.86 0 0 1-5 0 11.51 11.51 0 0 1-1.48-.42c-9.47-3.36-13.75-18.23-13.75-18.23-1.63 8.33-11 40.08-11 40.08l-1.46-.2-1-.13-5.53-.69c-1.08-32.65 7.18-69.27 18.94-71.12 7.61-1.2 19.84 29.18 19.84 29.18 4.06 8.67 10.83 19.3.44 21.53Z" class="cls7"/>
        <path d="M386.19 301.33a11.51 11.51 0 0 1-1.48-.42c-3.47-5.58-5.28-13.38-6.73-19.66-1.16-5-2.25-9.72-3.68-10.53a.83.83 0 0 0-.69-.06c-1.22.4-4.09 4.44-9.62 27-2.64 10.76-4.82 21.49-5.49 24.87-.14.69-.22 1.08-.22 1.1l-1-.19s.07-.39.2-1c.66-3.32 2.86-14.13 5.52-25 6.49-26.5 9.34-27.44 10.28-27.75a1.83 1.83 0 0 1 1.5.14c1.82 1 2.81 5.29 4.17 11.18 1.54 6.59 3.46 14.87 7.24 20.32Z" class="cls13"/>
        <path d="m351.3 319.4 9.77 1.78.19.04-.86 3.21-9.62-1.62.52-3.41z" class="cls13"/>
        <path d="m393.51 219.62 12.65 18.32s-5.62 10.59-11.12 11.7c0 0-5.73-10-6.41-15.13s2.9-14.45 4.88-14.89Z" class="cls3"/>
        <path d="M357.24 191.27c0 7.11 4.38 12 11.49 12s12.06-5.27 12.06-12.38-4.21-12.49-11.32-12.49c-8.47.01-12.23 5.76-12.23 12.87Z" class="cls5"/>
        <path d="M357.66 187.35s-5.3-5.24-3.32-7.71 4.57-.12 5.35-2.48 1.1-5.39 4.31-4.15 3.37 3.26 6.44 1.46 2.4 1.23 5.09 2.58 4.58 1.13 4.15 3.71 2.58 3.12 1.35 6-2.69 1.42-2.69 1.42Z" class="cls5"/>
        <path d="M358.84 194.33s-2-2.63-3.45-.45.61 8.61 4.21 7Z" class="cls12"/>
        <path d="M358.81 198.93a.31.31 0 0 1-.29-.22 4.68 4.68 0 0 0-2.64-2.8.31.31 0 0 1-.17-.39.3.3 0 0 1 .39-.18 5.27 5.27 0 0 1 3 3.2.32.32 0 0 1-.21.38Z" class="cls14"/>
        <path d="M356.74 197.93a.34.34 0 0 1-.17-.05.31.31 0 0 1-.09-.42 2.85 2.85 0 0 1 1.14-.92.3.3 0 0 1 .4.15.31.31 0 0 1-.15.41 2.2 2.2 0 0 0-.88.69.3.3 0 0 1-.25.14Z" class="cls14"/>
        <path d="M379.19 194.33s2-2.63 3.45-.45-.61 8.61-4.2 7Z" class="cls12"/>
        <path d="M379.22 198.93a.3.3 0 0 0 .29-.22 4.71 4.71 0 0 1 2.64-2.8.31.31 0 0 0 .17-.39.3.3 0 0 0-.39-.18 5.27 5.27 0 0 0-3 3.2.31.31 0 0 0 .21.38Z" class="cls14"/>
        <path d="M381.3 197.93a.33.33 0 0 0 .16-.05.31.31 0 0 0 .09-.42 2.76 2.76 0 0 0-1.14-.92.3.3 0 0 0-.4.15.31.31 0 0 0 .15.41 2.2 2.2 0 0 1 .88.69.31.31 0 0 0 .26.14Z" class="cls14"/>
        <path d="M373.88 206.37v6.4s-1.91 3.26-4.49 3.48-4.87-2.81-4.87-2.81v-6.62Z" class="cls11"/>
        <path d="M373.88 206.37v2.84c-1.73 1.92-4.81 2.4-9.36 1.73v-4.12Z" class="cls12"/>
        <path d="M357.78 194.13a40 40 0 0 0 .52 4.21c.86 4.72 2.79 9.35 6.95 10.84 9.43 3.37 12.8-4.72 14.14-9.43.15-.52.28-1.1.4-1.73.22-1.12.38-2.37.51-3.63.16-1.53.26-3.08.32-4.44a6.66 6.66 0 0 0-4.26-6.54c-3.86-1.48-9.74-2.66-15.3.5a6.67 6.67 0 0 0-3.39 5.68c-.02 1.28-.01 2.85.11 4.54Z" class="cls11"/>
        <path d="M357.78 194.13a40 40 0 0 0 .52 4.21c.86 4.72 2.79 9.35 6.95 10.84 9.43 3.37 12.8-4.72 14.14-9.43.15-.52.28-1.1.4-1.73.22-1.12.38-2.37.51-3.63h-1.37c-.29.87-1.82 6.22-2.32 7-1.07-2.57-6.51-.86-6.51-.86a3.48 3.48 0 0 1-1 .15 3.28 3.28 0 0 1-1-.16s-5.38-1.78-6.49.67c-.5-.77-2.26-6.21-2.58-6.79Zm11.22 7.54c6.15-.83 5.19 2.48 5.19 2.48a10.56 10.56 0 0 1-1.73 1.32 7.1 7.1 0 0 1-3.62 1c-.95 0-1.21.16-3.59-1.14a5.66 5.66 0 0 1-1.27-1c-.06-.62-1.11-3.72 5.02-2.66Z" class="cls5"/>
        <path d="M365 195.17c0 .68-.35 1.23-.78 1.23s-.79-.55-.79-1.23.35-1.24.79-1.24.78.55.78 1.24ZM374.24 195.14c0 .68-.35 1.24-.79 1.24s-.78-.56-.78-1.24.35-1.23.78-1.23.79.55.79 1.23ZM360.8 192.14s2.58-1.95 5.09-1.61l.12 1.3s-3.35.64-4.82 1.77a2.26 2.26 0 0 1-.39-1.46ZM376.88 192.14s-2.58-1.95-5.08-1.61l-.13 1.3s3.36.64 4.82 1.77a2.26 2.26 0 0 0 .39-1.46Z" class="cls5"/>
        <path d="M369.12 200a3.34 3.34 0 0 0 1.1-.23.3.3 0 0 0 .17-.39.31.31 0 0 0-.4-.17 1.83 1.83 0 0 1-1.22.11.32.32 0 0 1-.15-.28 43.4 43.4 0 0 1 .19-4.65.31.31 0 1 0-.61-.05 44.52 44.52 0 0 0-.18 4.76.94.94 0 0 0 .44.75 1.36 1.36 0 0 0 .66.15Z" class="cls12"/>
        <path d="M368.71 202.18a1.77 1.77 0 0 0-.14 3.54h.51a1.77 1.77 0 0 0-.12-3.54Z" class="cls6"/>
        <path d="M380.3 194.39h-1.38c.16-1.39.37-3.82-.76-4.17-3.59-1.1 1.06-3.64-.56-4.9s-5.65-.73-8.45-.82a59.49 59.49 0 0 0-8.46.21c-1.1.25-.5 2.08-.09 3.5s-1.36 3-1.65 4.45a6.6 6.6 0 0 0 0 1.73h-1.15c-.13-1.79-.15-3.45-.13-4.8a6.67 6.67 0 0 1 3.39-5.68c5.56-3.16 11.43-2 15.3-.5a6.66 6.66 0 0 1 4.26 6.53c-.06 1.37-.16 2.92-.32 4.45Z" class="cls5"/>
        <path d="M443.09 300.73c-1.7 6.67-6.48 11.72-13.81 14.62a34.82 34.82 0 0 1-5.42 1.64l.17-.22a26.27 26.27 0 0 0 2.88-5.09c4.83-1.75 10.33-5.21 12.07-12 1.67-6.53-1-16.29-6.88-24.88-4.64-6.8-15.16-18.55-33.57-20.82-16.08-2-26.52.45-35.73 2.61-7.83 1.83-15.22 3.56-24.27 2a107.26 107.26 0 0 1-16.25-4.34c-8.28-2.74-13.75-4.55-22.44-1-14.65 6-21.18 30.88-21.25 31.13l-4.11-1.05c.28-1.11 7.12-27.2 23.75-34 10.14-4.16 16.87-1.93 25.38.89a105 105 0 0 0 15.65 4.19c8.2 1.43 14.86-.13 22.57-1.93 9.56-2.24 20.39-4.77 37.22-2.69a50.42 50.42 0 0 1 21.77 8 54.17 54.17 0 0 1 14.79 14.63c6.61 9.68 9.48 20.58 7.48 28.31Z" class="cls4"/>
        <path d="m238.25 323.66 9.54-30.13a24.38 24.38 0 0 1 30.59-15.89 24.39 24.39 0 0 1 15.89 30.6l-9.54 30.13Z" class="cls7"/>
        <path d="M313.06 252.26a34.71 34.71 0 0 1 2.48-4.45c.84-1.3 2.78-1.94 3-.38.16 1.23-.72 2.16-.89 3.36 0 0 .43-.68 1.39-2.46.87-1.6 2.06-1.48 2.23-.27s-.17 1.1-.45 2c-.38 1.16-.92 2.6-.92 2.6a11.49 11.49 0 0 1 1.83-3.59c.65-.88 1.3-1.85 2.26-.49.48.68-.15 2.54-.67 4.53 0 0 1-2.67 2.37-3.35 1.05-.54 1.59-.07 1.18 1.4a34.76 34.76 0 0 1-1.26 3.54c-.4 1.12-1.87 2.72-3 2.35s-1.41-1.19-2.21-1.24-2.06 0-2.6-.48a2.79 2.79 0 0 0-2-.63c-.97-.06-2.8-1.23-2.74-2.44ZM395.58 254.11a34.74 34.74 0 0 1 1.75-4.78c.63-1.42 2.22-2.43 2.67-.92.36 1.19-.13 2.33-.12 3.54 0 0 .32-.74 1-2.64.61-1.72 1.81-1.79 2.17-.61s0 1.11-.14 2c-.2 1.2-.51 2.71-.51 2.71a11.2 11.2 0 0 1 1.26-3.83c.5-1 1-2 2.15-.83.58.6.24 2.53 0 4.57 0 0 .25-2.44 1.46-3.32.95-.7 1.93-.66 1.75.86a33.62 33.62 0 0 1-.7 3.68c-.22 1.17-1.43 3-2.63 2.8s-1.59-1-2.38-.89-2 .33-2.65-.07a2.8 2.8 0 0 0-2.09-.32c-.88.12-2.86-.75-2.99-1.95Z" class="cls11"/>
        <path d="M233.54 352.79a3 3 0 0 1-3 3h-11.95v-6h11.95a3 3 0 0 1 3 3ZM233.54 374.12a3 3 0 0 1-.88 2.12 3 3 0 0 1-2.12.88h-11.95v-6h11.95a3 3 0 0 1 3 3Z" class="cls4"/>
        <path d="M218.59 349.79h5.45v6h-5.45zM218.59 371.12h5.45v6h-5.45z" class="cls5"/>
        <path d="m171.16 359.94-.16 4.75C121.46 363 83.05 359.34 56.82 354c-22.49-4.61-36.57-10.55-43.06-18.14a16.57 16.57 0 0 1-4.12-13.19c1-8.16 8.26-14.19 21.61-18a25.78 25.78 0 0 0 1 4.66c-9 2.58-17.05 6.85-17.91 13.89a11.76 11.76 0 0 0 3 9.52c5.69 6.67 19.28 12.24 40.4 16.58 26.01 5.32 64.15 8.9 113.42 10.62Z" class="cls4"/>
        <path d="M218.59 387.83H187a24.38 24.38 0 0 1-24.38-24.37A24.38 24.38 0 0 1 187 339.08h31.61ZM435.41 172.6v16.17a3.87 3.87 0 0 1-3.87 3.87h-29.35l-8.87 3.18a1.13 1.13 0 0 1-1.43-1.47l3.35-8.66V172.6a3.88 3.88 0 0 1 3.88-3.87h32.42a3.87 3.87 0 0 1 3.87 3.87Z" class="cls7"/>
        <path d="M401.57 180.09h-.77c0-.65-.23-1-.69-1s-.65.21-.65.61a.55.55 0 0 0 .1.34l.39.42a2.5 2.5 0 0 1 .44.6 3.54 3.54 0 0 1 .15.94h-.76a1.69 1.69 0 0 0-.13-.74 1.57 1.57 0 0 0-.41-.48 4.17 4.17 0 0 1-.43-.48 1.14 1.14 0 0 1-.16-.63 1.15 1.15 0 0 1 .43-1 1.79 1.79 0 0 1 1.85-.1 1.17 1.17 0 0 1 .54.63 2.82 2.82 0 0 1 .1.89Zm-.91 2.93a.45.45 0 0 1-.17.36.65.65 0 0 1-.39.12.52.52 0 0 1-.35-.14.45.45 0 0 1-.15-.34c0-.29.18-.44.53-.44s.53.15.53.42ZM403.5 183c0 .35-.2.52-.6.52s-.55-.17-.55-.52.2-.49.59-.49.56.14.56.49Zm-.2-2.82s0 .24-.05.6l-.13 1.21h-.41l-.18-1.81v-1.73h.77ZM405.29 179.68v1.72a.15.15 0 0 1 0 .07v.39a.76.76 0 0 0 0 .16v.2h.05a.7.7 0 0 0 .31 0h.14v1.19h-.44a1.3 1.3 0 0 1-.27 0 1.33 1.33 0 0 1-1-1.25v-.62a1.48 1.48 0 0 1 0-.21v-.23a1.69 1.69 0 0 0 0-.23c0-.6-.06-1.48-.18-2.62l1.17-.12c.14.62.19 1.12.22 1.55Z" class="cls6"/>
        <path d="M406.42 180.49a.58.58 0 0 1 .12-.14.77.77 0 0 1 .58-.27 1.63 1.63 0 0 1 .8.3c.42.25.84.47 1.26.67s.83.37 1.25.52l-.18 1.16a2.52 2.52 0 0 0-.91.11l-.48.17-.51.15-.52.14-.28.07-.28.06h-1.51v-1.18h.85a3.35 3.35 0 0 0 .47-.05l.44-.1.58-.16H408.31l-.42-.22-.41-.23-.1-.06-.12-.08a2.18 2.18 0 0 1-.25.28l-.91-.72c.16-.22.27-.36.32-.42Zm.78 3.74h1.17l-.05.95a4.59 4.59 0 0 0-.52 0 1.6 1.6 0 0 0-.39 0h-.1ZM413.45 183.5a.44.44 0 0 1 0 .1v.09a2.33 2.33 0 0 1-.41.76 1.86 1.86 0 0 1-.67.54 3.23 3.23 0 0 1-.68.26l-.65.17-.3-1.15.38-.09.51-.15.19-.09.12-.06a.6.6 0 0 0 .08-.08l.07-.08.07-.1a.41.41 0 0 0 .05-.09h-.59a1.48 1.48 0 0 1-.65-.33 1 1 0 0 1-.34-.71v-.07a2.57 2.57 0 0 1 .11-.6 2.85 2.85 0 0 1 .26-.82 1.21 1.21 0 0 1 .69-.6.85.85 0 0 1 .26-.05.9.9 0 0 1 .65.28 1.14 1.14 0 0 1 .2.23 1.46 1.46 0 0 1 .17.3l.15.31.12.28c0 .1.07.2.1.3l.07.22h.14v1.19Z" class="cls6"/>
        <path d="M413.48 182.31h.68a2.16 2.16 0 0 0 .3 0 1.14 1.14 0 0 0 .73-.37v-.09l.09-.11v-.2a1 1 0 0 0-.2-.32 4.35 4.35 0 0 0-.31-.35c-.13-.12-.26-.24-.4-.35s-.38-.31-.52-.43-.23-.21-.29-.27a.49.49 0 0 1-.19-.39.63.63 0 0 1 0-.19.5.5 0 0 1 .1-.22.79.79 0 0 1 .19-.17l2.79-1.4.62 1-2.08 1 .28.23.32.27a2.54 2.54 0 0 1 .89 1.7 1.4 1.4 0 0 1-.12.58 1.86 1.86 0 0 1-.38.53 1.91 1.91 0 0 1-.47.39 2.27 2.27 0 0 1-.55.25 4.88 4.88 0 0 1-1.39.13h-.11ZM420.89 179.68c0 .49.05.91.05 1.24v.48a.15.15 0 0 1 0 .07v.39a.76.76 0 0 0 0 .16v.2h.05a.7.7 0 0 0 .31 0h.14v1.19H421a1.3 1.3 0 0 1-.27 0 1.33 1.33 0 0 1-1-1.25v-.62a1.48 1.48 0 0 1 0-.21 1.77 1.77 0 0 1 0-.23v-.23c0-.6-.06-1.48-.18-2.62l1.18-.12c.08.62.13 1.12.16 1.55Z" class="cls6"/>
        <path d="M422 180.49a.58.58 0 0 1 .12-.14.77.77 0 0 1 .58-.27 1.63 1.63 0 0 1 .8.3c.42.25.84.47 1.26.67s.83.37 1.25.52l-.18 1.16a2.52 2.52 0 0 0-.91.11l-.48.17-.51.15-.52.14-.28.07-.28.06h-1.5v-1.18h.84a3.35 3.35 0 0 0 .47-.05l.44-.1.58-.16H423.89l-.42-.22-.41-.23-.1-.06-.12-.08a2.18 2.18 0 0 1-.25.28l-.91-.72Zm.78 3.74h1.17l-.05.95a4.59 4.59 0 0 0-.52 0 1.6 1.6 0 0 0-.39 0h-.1ZM429.05 183.5a.44.44 0 0 1 0 .1v.09a2.33 2.33 0 0 1-.41.76 1.86 1.86 0 0 1-.67.54 3.23 3.23 0 0 1-.68.26l-.65.17-.3-1.15.38-.09.51-.15.19-.09.12-.06a.6.6 0 0 0 .08-.08l.07-.08.07-.1a.41.41 0 0 0 .05-.09h-.59a1.54 1.54 0 0 1-.65-.33 1 1 0 0 1-.34-.71v-.07a2.57 2.57 0 0 1 .11-.6 2.87 2.87 0 0 1 .25-.69 1.21 1.21 0 0 1 .69-.6.85.85 0 0 1 .26-.05.9.9 0 0 1 .65.28 1.14 1.14 0 0 1 .2.23 1.46 1.46 0 0 1 .17.3l.15.31.12.28c0 .1.07.2.1.3l.07.22h.14v1.19Z" class="cls6"/>
        <path d="M429.08 182.31h.68a2.16 2.16 0 0 0 .3 0 1.14 1.14 0 0 0 .73-.37v-.09l.09-.11v-.14a.14.14 0 0 1 0-.06 1 1 0 0 0-.2-.32 4.35 4.35 0 0 0-.31-.35c-.13-.12-.26-.24-.4-.35s-.38-.31-.52-.43-.23-.21-.29-.27a.49.49 0 0 1-.19-.39.63.63 0 0 1 0-.19.5.5 0 0 1 .1-.22.79.79 0 0 1 .19-.17l2.79-1.4.62 1-2.08 1 .28.23.32.27a2.54 2.54 0 0 1 .89 1.7 1.4 1.4 0 0 1-.12.58 1.86 1.86 0 0 1-.38.53 1.91 1.91 0 0 1-.47.39 2.27 2.27 0 0 1-.55.25 4.88 4.88 0 0 1-1.39.13h-.11Z" class="cls6"/>
        <path d="M287.16 74.2a6.61 6.61 0 1 1 6.61 6.61 6.62 6.62 0 0 1-6.61-6.61Zm2.07 0a4.54 4.54 0 1 0 4.54-4.54 4.55 4.55 0 0 0-4.54 4.54ZM265.06 45.88a6.61 6.61 0 1 1 6.61 6.61 6.62 6.62 0 0 1-6.61-6.61Zm2.08 0a4.54 4.54 0 1 0 4.53-4.53 4.54 4.54 0 0 0-4.53 4.53Z" class="cls7"/>
        <path d="M267.14 77.52a1 1 0 0 0 1-1v-4.61a1 1 0 0 0-2.07 0v4.58a1 1 0 0 0 1.07 1.03ZM267.14 85.52a1 1 0 0 0 1-1v-4.6a1 1 0 1 0-2.07 0v4.57a1 1 0 0 0 1.07 1.03ZM260.72 79.24h4.11a1 1 0 0 0 0-2.08h-4.11a1 1 0 0 0 0 2.08ZM269.45 79.24h4.1a1 1 0 1 0 0-2.08h-4.1a1 1 0 1 0 0 2.08Z" class="cls3"/>
        <path d="M295.05 47.06a1 1 0 0 0 1-1v-4.61a1 1 0 1 0-2.07 0V46a1 1 0 0 0 1.07 1.06ZM295.05 55.06a1 1 0 0 0 1-1v-4.61a1 1 0 1 0-2.07 0V54a1 1 0 0 0 1.07 1.06ZM288.63 48.77h4.1a1 1 0 1 0 0-2.07h-4.1a1 1 0 1 0 0 2.07ZM297.36 48.77h4.1a1 1 0 1 0 0-2.07h-4.1a1 1 0 1 0 0 2.07Z" class="cls4"/>
        <path d="M96.08 28.91a6.61 6.61 0 1 1 6.61 6.61 6.61 6.61 0 0 1-6.61-6.61Zm2.07 0a4.54 4.54 0 1 0 4.54-4.54 4.53 4.53 0 0 0-4.54 4.54Z" class="cls7"/>
        <path d="M70.65 41.35A6.62 6.62 0 1 1 77.26 48a6.62 6.62 0 0 1-6.61-6.65Zm2.08 0a4.54 4.54 0 1 0 4.53-4.54 4.53 4.53 0 0 0-4.53 4.54Z" class="cls3"/>
        <path d="M66.85 59.14a1 1 0 0 0 1-1v-4.61a1 1 0 0 0-2.08 0v4.57a1 1 0 0 0 1.08 1.04ZM66.85 67.14a1 1 0 0 0 1-1v-4.61a1 1 0 0 0-2.08 0v4.58a1 1 0 0 0 1.08 1.03ZM60.43 60.85h4.11a1 1 0 1 0 0-2.07h-4.11a1 1 0 1 0 0 2.07ZM69.16 60.85h4.11a1 1 0 1 0 0-2.07h-4.11a1 1 0 1 0 0 2.07Z" class="cls7"/>
        <path d="M85.44 16.37a1 1 0 0 0 1-1v-4.61a1 1 0 0 0-2.08 0v4.57a1 1 0 0 0 1.08 1.04ZM85.44 24.37a1 1 0 0 0 1-1v-4.61a1 1 0 1 0-2.08 0v4.57a1 1 0 0 0 1.08 1.04ZM79 18.08h4.11a1 1 0 1 0 0-2.07H79a1 1 0 1 0 0 2.07ZM87.75 18.08h4.11a1 1 0 0 0 0-2.07h-4.11a1 1 0 1 0 0 2.07Z" class="cls4"/>
      </g>
    </g>
  </g>
</svg>
