<svg xmlns="http://www.w3.org/2000/svg" viewBox="0 0 432.43 414.36"><defs><style>.cls-1{fill:#e0e0e0;}.cls-2{fill:#fafafa;}.cls-3{fill:#ebebeb;}.cls-4{fill:#f5f5f5;}.cls-5{fill:#fff;}.cls-6{fill:#263238;}.cls-7{fill:#e8505b;}.cls-8{opacity:0.24;}.cls-9{opacity:0.3;}.cls-10{fill:#455a64;}.cls-11{fill:#ffbe9d;}.cls-12{fill:#eb996e;}</style></defs><g id="Layer_2" data-name="Layer 2"><g id="Background_Complete" data-name="Background Complete"><rect class="cls-1" x="82.39" y="340.42" width="7.52" height="56.3" transform="translate(-282.41 454.72) rotate(-90)"/><path class="cls-2" d="M65.68,365.12c.19,0,.35,1.58.35,3.52s-.16,3.53-.35,3.53-.36-1.58-.36-3.53S65.48,365.12,65.68,365.12Z"/><path class="cls-2" d="M64.45,365c.2,0,.35,1.57.35,3.52s-.15,3.52-.35,3.52-.35-1.57-.35-3.52S64.25,365,64.45,365Z"/><path class="cls-2" d="M110,365.12c.2,0,.36,1.58.36,3.52s-.16,3.53-.36,3.53-.35-1.58-.35-3.53S109.76,365.12,110,365.12Z"/><path class="cls-2" d="M108.73,365c.19,0,.35,1.57.35,3.52s-.16,3.52-.35,3.52-.36-1.57-.36-3.52S108.53,365,108.73,365Z"/><path class="cls-2" d="M101.37,368.8c0,.19-6.45.35-14.4.35s-14.4-.16-14.4-.35,6.45-.36,14.4-.36S101.37,368.6,101.37,368.8Z"/><rect class="cls-1" x="78.39" y="378.04" width="15.04" height="56.3" transform="translate(-320.28 492.1) rotate(-90)"/><path class="cls-2" d="M114.78,409.48s-.09.07-.3.18-.52.25-.94.43a16.68,16.68,0,0,1-3.82,1.09,9.92,9.92,0,0,1-6.19-.88,8.17,8.17,0,0,1-2.94-2.67,6.2,6.2,0,0,1-1-4.33,4.57,4.57,0,0,1,1-2.24A3,3,0,0,1,103,400a3.41,3.41,0,0,1,2.39,1.29,4.66,4.66,0,0,1,1.09,2.56,6.86,6.86,0,0,1-1.94,5.34,8.59,8.59,0,0,1-5.41,2.64,14.24,14.24,0,0,1-6.28-.78,11.48,11.48,0,0,1-5.49-3.69,6,6,0,0,1-1.28-3.24,4.23,4.23,0,0,1,1.2-3.38,2.74,2.74,0,0,1,1.76-.78,3.26,3.26,0,0,1,1.84.52,4.88,4.88,0,0,1,2.07,3,7.06,7.06,0,0,1-2.22,6.62,11.06,11.06,0,0,1-6.34,2.58,15.61,15.61,0,0,1-6.57-.64,9.08,9.08,0,0,1-5-3.89,6.66,6.66,0,0,1-.62-6,3.13,3.13,0,0,1,2.29-1.94,3.64,3.64,0,0,1,2.84.68A4.71,4.71,0,0,1,78.64,406a8.73,8.73,0,0,1-2.84,4,12.77,12.77,0,0,1-7.72,3A12.33,12.33,0,0,1,62,411.61a12.09,12.09,0,0,1-3.19-2.36c-.31-.34-.54-.6-.68-.79a1.19,1.19,0,0,1-.2-.29,14.4,14.4,0,0,0,4.19,3.19,12.13,12.13,0,0,0,6,1.24,12.44,12.44,0,0,0,7.42-3,8.35,8.35,0,0,0,2.64-3.77A4.17,4.17,0,0,0,77,401.4a3,3,0,0,0-2.37-.55,2.48,2.48,0,0,0-1.84,1.59,6,6,0,0,0,.61,5.39A8.44,8.44,0,0,0,78,411.42a15,15,0,0,0,6.28.59,10.4,10.4,0,0,0,5.94-2.41,6.39,6.39,0,0,0,2-5.94,4.19,4.19,0,0,0-1.75-2.6,2.17,2.17,0,0,0-2.75.17,3.5,3.5,0,0,0-1,2.82,5.34,5.34,0,0,0,1.13,2.87A10.93,10.93,0,0,0,93,410.39a13.65,13.65,0,0,0,6,.77,8,8,0,0,0,5-2.42,6.27,6.27,0,0,0,1.82-4.84c-.14-1.66-1.4-3.27-2.92-3.37a2.45,2.45,0,0,0-2,.88,4,4,0,0,0-.93,2,5.71,5.71,0,0,0,.91,4,7.77,7.77,0,0,0,2.75,2.56,9.83,9.83,0,0,0,6,1,17.88,17.88,0,0,0,3.8-1C114.34,409.65,114.77,409.46,114.78,409.48Z"/><rect class="cls-3" x="75.38" y="359.96" width="26.1" height="51.27" transform="translate(-297.17 474.02) rotate(-90)"/><path class="cls-1" d="M71.31,373.44c.19,0,.35,5.66.35,12.63s-.16,12.63-.35,12.63S71,393.05,71,386.07,71.11,373.44,71.31,373.44Z"/><path class="cls-1" d="M75.2,373.12c.19,0,.35,5.58.35,12.47s-.16,12.47-.35,12.47-.36-5.59-.36-12.47S75,373.12,75.2,373.12Z"/><path class="cls-1" d="M108.27,372.28c.19,0,.35,5.88.35,13.13s-.16,13.13-.35,13.13-.36-5.88-.36-13.13S108.07,372.28,108.27,372.28Z"/><path class="cls-1" d="M103.7,372.63c.19,0,.35,5.73.35,12.79s-.16,12.8-.35,12.8-.36-5.73-.36-12.8S103.5,372.63,103.7,372.63Z"/><path class="cls-3" d="M379.69,315.57c5.32-2.74,11.57-3.1,17.48-2.12,3.17.52,6.47,1.47,8.63,3.85s2.56,6.57.09,8.62c-1.48,1.22-3.53,1.4-5.45,1.38-4.62-.05-9.74-.87-13.43,1.91-2.11,1.59-3.51,4.22-6,5s-5.24-.69-6.54-2.91a10.15,10.15,0,0,1-.74-7.51A11.45,11.45,0,0,1,379.69,315.57Z"/><path class="cls-3" d="M367.51,292.06c3.25,4.64,9.57,3.11,12.5.27s4.17-6.94,5.29-10.85c2.58-9,5.17-18.34,3.26-27.45a15.19,15.19,0,0,0-3.51-7.46,8,8,0,0,0-7.54-2.51c-3.19.84-5.17,4-6.6,6.93a65.44,65.44,0,0,0-6.47,28.07c0,4.53.52,9.27,3.07,13"/><path class="cls-3" d="M358.59,298.72c3.53-4.18,4.2-10.29,2.63-15.54s-5.12-9.71-9.21-13.35a49.4,49.4,0,0,0-16.49-9.73,17.51,17.51,0,0,0-7.41-1.26,7.8,7.8,0,0,0-6.22,3.76c-1.74,3.31-.07,7.33,1.73,10.6a125.87,125.87,0,0,0,10.82,16.49c3.25,4.18,7,8.31,11.91,10.2s10.09,1.67,12.71-1.76"/><path class="cls-1" d="M367.29,362.09a10.44,10.44,0,0,0,.3-2.11c.15-1.54.33-3.47.56-5.76a84.44,84.44,0,0,1,1.29-8.44,65,65,0,0,1,3.07-10,37,37,0,0,1,5.09-9,19.06,19.06,0,0,1,6.43-5.34,17.88,17.88,0,0,1,5.42-1.69,9.88,9.88,0,0,0,2.1-.31,10.68,10.68,0,0,0-2.14,0,16.38,16.38,0,0,0-5.64,1.47,18.94,18.94,0,0,0-6.79,5.4,35.74,35.74,0,0,0-5.28,9.2,61.05,61.05,0,0,0-3,10.12,73.35,73.35,0,0,0-1.13,8.55c-.18,2.45-.25,4.43-.28,5.8A10.2,10.2,0,0,0,367.29,362.09Z"/><path class="cls-1" d="M367.69,357.66a4.17,4.17,0,0,0,.06-1c0-.74,0-1.66,0-2.8,0-2.43,0-5.94.12-10.28.22-8.69,1-18,2.41-31.2,1.37-12.39,3.2-26.8,5.14-36.17.41-2.13.83-4.05,1.23-5.73s.69-3.13,1-4.31.48-2,.65-2.72a5.63,5.63,0,0,0,.18-1,3.57,3.57,0,0,0-.34.91c-.22.71-.49,1.59-.82,2.68s-.73,2.61-1.15,4.29-.9,3.58-1.35,5.71a317,317,0,0,0-5.41,33.56c-1.44,13.2-2.09,25.22-2.15,33.92-.05,4.35,0,7.88.15,10.31.07,1.13.13,2.06.17,2.8A4.27,4.27,0,0,0,367.69,357.66Z"/><path class="cls-1" d="M367.75,334.48a18.75,18.75,0,0,0,0-2.93c-.11-1.88-.37-4.59-.9-7.92a104.22,104.22,0,0,0-2.57-11.54,94.94,94.94,0,0,0-4.83-13.65,72.68,72.68,0,0,0-14.17-22.07,35.08,35.08,0,0,0-3.34-3.1c-.51-.43-1-.87-1.42-1.21s-.9-.61-1.29-.89a16.91,16.91,0,0,0-2.47-1.57c-.14.19,3.49,2.32,8.07,7.19a76.88,76.88,0,0,1,13.82,22,107.71,107.71,0,0,1,4.85,13.53,117.56,117.56,0,0,1,2.75,11.43c.6,3.29.95,6,1.16,7.84A18.12,18.12,0,0,0,367.75,334.48Z"/><polygon class="cls-3" points="343.79 371.85 346.12 403.67 386.99 403.67 389.32 371.85 343.79 371.85"/><rect class="cls-3" x="339.84" y="359.3" width="54.35" height="12.54"/><polygon class="cls-1" points="339.84 402.45 339.84 405.93 342.4 405.93 393.3 405.93 393.3 402.45 339.84 402.45"/><polygon class="cls-1" points="344.9 411.66 342.4 405.54 391.35 405.54 388.43 411.66 344.9 411.66"/><path class="cls-4" d="M388.56,382.25a2.29,2.29,0,0,1-.19.29c-.17.21-.37.48-.61.81l-2.39,3-.1.13-.1-.14-5.85-8.09h.33l-5.76,8.15-.18.26-.2-.24-6.83-8.13h.39c-.12.14-.24.31-.37.47l-6.11,7.66-.21.25-.18-.26-5.77-8.16.34,0-7.1,8.08-.12.15-.1-.16-2.22-3.74c-.24-.4-.42-.73-.57-1a1.55,1.55,0,0,1-.18-.36,2,2,0,0,1,.24.32l.63,1,2.33,3.66-.22,0,7-8.18.17-.21.16.22,5.82,8.12h-.4l6.1-7.67c.13-.16.26-.32.37-.47l.2-.25.2.24,6.81,8.15h-.38l5.82-8.11.17-.24.16.24,5.73,8.18h-.21c1.05-1.25,1.87-2.25,2.48-3,.27-.31.49-.56.66-.77S388.55,382.24,388.56,382.25Z"/><path class="cls-4" d="M389.89,371.64c0,.14-10.25.25-22.88.25s-22.88-.11-22.88-.25,10.24-.26,22.88-.26S389.89,371.49,389.89,371.64Z"/><path class="cls-1" d="M156.83,40.16a.9.9,0,0,1-.24-.07l-.66-.26-2.52-1-9.25-4-30.4-13.25-1.06-.46h.22L83.13,33.85l-9,3.79-2.46,1a6.2,6.2,0,0,1-.87.32,6.48,6.48,0,0,1,.83-.42L74,37.44l9-3.94L112.7,20.6l.11,0,.11.05,1.06.46,30.34,13.39,9.17,4.12L156,39.72l.64.32A.85.85,0,0,1,156.83,40.16Z"/><rect class="cls-1" x="8.96" y="35.79" width="195.29" height="146.23"/><rect class="cls-2" x="15.79" y="42.59" width="182.37" height="133.42"/><path class="cls-1" d="M56.07,100.88s.19,22.4,1.33,29.23l28.09-1.33s-2.46-22-1.51-27.9Z"/><path class="cls-5" d="M69.91,104.05h.41a6.65,6.65,0,0,1,1.17.06,5.8,5.8,0,0,1,3.73,2.06,6.83,6.83,0,0,1,1.34,2.71,6.52,6.52,0,0,1-.29,3.47,9.94,9.94,0,0,1-.79,1.73,17.11,17.11,0,0,0-.9,1.76,15.14,15.14,0,0,0-1.14,4v.1h-.09l-2.77,0-2.91,0h-.11v-.11a8.28,8.28,0,0,0-1.35-3.83c-.34-.58-.71-1.12-1-1.67a14.79,14.79,0,0,1-1-1.61,5.43,5.43,0,0,1-.44-3.42,7.29,7.29,0,0,1,1.09-2.8,5.34,5.34,0,0,1,1.82-1.64,6.74,6.74,0,0,1,1.73-.67,8.38,8.38,0,0,1,1.15-.19h.3l-.3,0a9.78,9.78,0,0,0-1.13.23,7.26,7.26,0,0,0-1.69.68,5.5,5.5,0,0,0-1.77,1.63,7.33,7.33,0,0,0-1,2.75,5.23,5.23,0,0,0,.44,3.31,17.08,17.08,0,0,0,1,1.59c.35.54.72,1.08,1.06,1.66a8.4,8.4,0,0,1,1.39,3.94l-.11-.1,2.91,0,2.78,0-.11.09a15.37,15.37,0,0,1,1.16-4,17.32,17.32,0,0,1,.92-1.77,11.21,11.21,0,0,0,.78-1.7,6.32,6.32,0,0,0,.31-3.38,6.77,6.77,0,0,0-1.29-2.65,5.68,5.68,0,0,0-1.89-1.52,6.37,6.37,0,0,0-1.75-.56,7.09,7.09,0,0,0-1.15-.09h-.41Z"/><path class="cls-5" d="M71.35,119.65a.66.66,0,0,1,0-.09l0-.26c0-.23-.09-.57-.15-1-.13-.87-.32-2.13-.44-3.7,0-.4-.06-.81-.07-1.24a11.92,11.92,0,0,1,0-1.34,3.61,3.61,0,0,1,.32-1.41A2.14,2.14,0,0,1,72,109.54a1.45,1.45,0,0,1,1.53.29,1.06,1.06,0,0,1,.32.77,1.42,1.42,0,0,1-.28.81,2,2,0,0,1-.68.54,4.06,4.06,0,0,1-.83.28,11.4,11.4,0,0,1-3.56.12,3.61,3.61,0,0,1-.85-.25,2.19,2.19,0,0,1-.7-.5,1.59,1.59,0,0,1-.41-.75,1.25,1.25,0,0,1,.1-.83,1.06,1.06,0,0,1,.59-.57,1,1,0,0,1,.79,0,1.57,1.57,0,0,1,.6.51,2.06,2.06,0,0,1,.3.7,9,9,0,0,1,.14,1.43l.14,2.58c.08,1.57.14,2.84.18,3.72,0,.44,0,.78,0,1v.36a.62.62,0,0,0,0-.09c0-.07,0-.15,0-.27s0-.57-.06-1c0-.88-.13-2.15-.22-3.72,0-.79-.09-1.65-.14-2.57a7.7,7.7,0,0,0-.15-1.42,1.8,1.8,0,0,0-.28-.67,1.39,1.39,0,0,0-.57-.48.93.93,0,0,0-.73,0,1.13,1.13,0,0,0-.55.53,1.23,1.23,0,0,0-.09.78,1.56,1.56,0,0,0,.39.71,2.5,2.5,0,0,0,1.5.72,10.4,10.4,0,0,0,1.77.09,10.2,10.2,0,0,0,1.76-.21,3.22,3.22,0,0,0,.81-.27,1.65,1.65,0,0,0,.65-.52,1.3,1.3,0,0,0,.27-.75,1,1,0,0,0-.3-.71,1.36,1.36,0,0,0-1.44-.28,2.07,2.07,0,0,0-1,1,3.69,3.69,0,0,0-.31,1.37c0,.46,0,.91,0,1.34s0,.84.07,1.23c.12,1.57.3,2.83.41,3.71.06.43.11.77.14,1l0,.26A.62.62,0,0,1,71.35,119.65Z"/><path class="cls-5" d="M67.65,119.8a8,8,0,0,1,.08.93c0,.68.07,1.49.12,2.44l0-.06,1.89,2.18-.1,0,2.19-.13-.09,0,1.08-1.33.55-.66,0,.08c0-1.28-.06-2.49-.08-3.6l.12.11-4.09,0H68.09l-.44,0a2.14,2.14,0,0,1,.39,0l1.15-.06,4.16-.16h.12v.11c0,1.11.07,2.32.11,3.6v0l0,0L73,124l-1.1,1.32,0,0h-.06l-2.19.11h-.06l0,0-1.86-2.21,0,0v0q0-1.45,0-2.49C67.64,120.1,67.64,119.79,67.65,119.8Z"/><path class="cls-5" d="M73.3,123s-.08,0-.21-.08l-.57-.23a5.67,5.67,0,0,0-2-.3,5.78,5.78,0,0,0-2,.42L68,123a.92.92,0,0,1-.2.1L68,123a3.9,3.9,0,0,1,.55-.28,5.24,5.24,0,0,1,2-.46,5.48,5.48,0,0,1,2,.33,4.5,4.5,0,0,1,.56.26Z"/><path class="cls-5" d="M73.29,122.09l-.2-.09a5.84,5.84,0,0,0-.57-.22,5.44,5.44,0,0,0-2-.3,5.55,5.55,0,0,0-2,.42c-.24.1-.42.19-.55.26l-.2.1a.61.61,0,0,1,.18-.13,5.11,5.11,0,0,1,.55-.29,5.25,5.25,0,0,1,4-.12,4.64,4.64,0,0,1,.56.25A.79.79,0,0,1,73.29,122.09Z"/><path class="cls-5" d="M73.24,121.26l-.2-.09c-.14-.06-.33-.14-.57-.22a5.54,5.54,0,0,0-3.93.12c-.24.09-.42.19-.55.25a.92.92,0,0,1-.2.1.84.84,0,0,1,.18-.12,4.29,4.29,0,0,1,.55-.29,5.07,5.07,0,0,1,2-.45,5.12,5.12,0,0,1,2,.33,4.64,4.64,0,0,1,.56.25C73.18,121.21,73.25,121.25,73.24,121.26Z"/><path class="cls-3" d="M24.79,64.27S25,86.67,26.12,93.5l28.09-1.33s-2.47-22-1.52-27.9Z"/><path class="cls-5" d="M48.46,73.68a84.34,84.34,0,0,1-9.41.84,82.2,82.2,0,0,1-9.44.29A80.94,80.94,0,0,1,39,74,77.21,77.21,0,0,1,48.46,73.68Z"/><path class="cls-5" d="M48.46,78.42a81,81,0,0,1-9.41.84,79.52,79.52,0,0,1-9.44.29A84,84,0,0,1,39,78.71,82.18,82.18,0,0,1,48.46,78.42Z"/><path class="cls-5" d="M43.69,83.08a26.72,26.72,0,0,1-5.35.6,26.18,26.18,0,0,1-5.39,0,26.32,26.32,0,0,1,5.35-.59A26.65,26.65,0,0,1,43.69,83.08Z"/><path class="cls-3" d="M23.46,130.16s.19,22.4,1.33,29.23l28.09-1.33s-2.47-22-1.52-27.9Z"/><path class="cls-5" d="M47.13,139.57a81.28,81.28,0,0,1-9.41.84,79.55,79.55,0,0,1-9.44.29,80.94,80.94,0,0,1,9.4-.84A82.34,82.34,0,0,1,47.13,139.57Z"/><path class="cls-5" d="M47.13,144.31a79.53,79.53,0,0,1-9.4.85,82.34,82.34,0,0,1-9.45.29,81.28,81.28,0,0,1,9.41-.84A81,81,0,0,1,47.13,144.31Z"/><path class="cls-5" d="M42.36,149a26.72,26.72,0,0,1-5.35.6,26.65,26.65,0,0,1-5.39.05A26.72,26.72,0,0,1,37,149,26.65,26.65,0,0,1,42.36,149Z"/><polygon class="cls-3" points="100.23 70.2 103.01 134.8 183.65 135.78 180.03 71.06 100.23 70.2"/><rect class="cls-4" x="99.29" y="69.74" width="80.11" height="60.49"/><path class="cls-1" d="M179.4,130.23s0-.39,0-1.12,0-1.83,0-3.23c0-2.84,0-7-.06-12.24,0-10.55-.07-25.64-.12-43.9l.23.23L99.3,70h0l.28-.28c0,21.76,0,42.35,0,60.49l-.25-.25,57.79.13,16.43.06,4.37,0,1.13,0h0l-1.11,0-4.32,0-16.37.07-57.95.12H99v-.25c0-18.14,0-38.73,0-60.49v-.27h.28l80.1,0h.23v.22c0,18.32-.09,33.46-.12,44,0,5.25,0,9.37-.06,12.19,0,1.39,0,2.45,0,3.19S179.4,130.23,179.4,130.23Z"/><rect class="cls-4" x="108.96" y="82.56" width="32.47" height="40.87"/><path class="cls-1" d="M141.43,123.43a.77.77,0,0,1,0-.21l0-.58c0-.54,0-1.29,0-2.24,0-2,0-4.81-.06-8.38,0-7.2-.08-17.38-.13-29.46l.25.24-32.47,0,.27-.27h0V93.68q0,5.44,0,10.61c0,6.86,0,13.3,0,19.13l-.22-.22,23.51.11,6.59.06,1.75,0,.62,0-.57,0-1.7,0-6.55.06-23.65.11h-.23v-.23c0-5.83,0-12.27,0-19.13q0-5.16,0-10.61V82.57h0l.28-.28,32.47,0h.25v.25c-.05,12.15-.1,22.38-.13,29.62l-.06,8.33c0,.93,0,1.66,0,2.18,0,.23,0,.41,0,.56A1.23,1.23,0,0,1,141.43,123.43Z"/><rect class="cls-4" x="110.2" y="73.2" width="62.23" height="5.89"/><path class="cls-1" d="M172.43,79.09s0-.14,0-.4,0-.66,0-1.14c0-1,0-2.48-.07-4.35l.11.12c-10.49.09-34.41.16-62.23.16h0c.55-.55.15-.15.28-.27h0v1.5c0,.5,0,1,0,1.49v2.89l-.27-.27,44.11.12,13.24.08,3.61,0h.94l.33,0a.83.83,0,0,1-.29,0l-.91,0-3.54,0-13.18.08-44.31.12h-.27v-.28c0-.93,0-1.9,0-2.89v-3h0l.28-.28h0c27.82,0,51.74.07,62.23.16h.12v.11q0,2.85-.06,4.41c0,.47,0,.84,0,1.12A1.44,1.44,0,0,1,172.43,79.09Z"/><rect class="cls-4" x="145.41" y="82.56" width="27.03" height="24.63"/><path class="cls-1" d="M172.43,107.19s0-.17,0-.48l0-1.34c0-1.2,0-2.89-.06-5,0-4.33-.07-10.45-.12-17.79l.23.23-27,0,.27-.27h0v6.59c0,2.17,0,4.29,0,6.36,0,4.13,0,8,0,11.66l-.24-.24,19.49.12,5.53.06,1.48,0,.52,0a2.56,2.56,0,0,1-.47,0l-1.43,0-5.47.07-19.65.12h-.25v-.24c0-3.62,0-7.53,0-11.66,0-2.07,0-4.19,0-6.36V82.58h0c-.25.24.33-.34.28-.28l27,0h.24v.24c0,7.4-.09,13.57-.12,17.94,0,2.11-.05,3.78-.06,5,0,.54,0,1,0,1.29A2.17,2.17,0,0,1,172.43,107.19Z"/><rect class="cls-4" x="145.41" y="111.05" width="27.03" height="12.38"/><path class="cls-1" d="M172.43,123.43s0-.33,0-.9l0-2.49c0-2.18-.06-5.24-.11-9l.2.2-27,.07.27-.27h0v6.36c0,2.07,0,4.07,0,6l-.26-.26,19.32.13,5.64.07,1.52,0a2.18,2.18,0,0,1,.54,0,2.62,2.62,0,0,1-.48,0l-1.47,0-5.57.07-19.5.13h-.27v-.27q0-2.88,0-6v-6.36h0l.28-.28,27,.08h.21v.2c0,3.8-.08,6.9-.1,9.11,0,1,0,1.83-.05,2.44A5,5,0,0,1,172.43,123.43Z"/><path class="cls-5" d="M140.63,82.63C130.57,96.51,119,109.54,109,123.43"/><path class="cls-1" d="M109,123.43s.07-.17.26-.46l.85-1.25c.74-1.07,1.85-2.6,3.25-4.48,2.79-3.75,6.78-8.83,11.26-14.39S133.09,92.26,136,88.57l3.39-4.37.93-1.18q.33-.4.36-.39a2.55,2.55,0,0,1-.27.45l-.85,1.25c-.74,1.07-1.85,2.61-3.25,4.48-2.79,3.75-6.78,8.83-11.26,14.39s-8.5,10.59-11.37,14.28l-3.39,4.37-.93,1.18A2.72,2.72,0,0,1,109,123.43Z"/><line class="cls-5" x1="108.96" y1="82.56" x2="141.43" y2="123.43"/><path class="cls-1" d="M141.43,123.42c-.12.1-7.49-9-16.45-20.26s-16.14-20.51-16-20.6,7.48,9,16.45,20.26S141.55,123.33,141.43,123.42Z"/><path class="cls-1" d="M103,82.64a5.08,5.08,0,1,1-5.08-5.08A5.08,5.08,0,0,1,103,82.64Z"/><path class="cls-1" d="M186.1,70.31A5.08,5.08,0,1,1,181,65.23,5.08,5.08,0,0,1,186.1,70.31Z"/><rect class="cls-1" x="326.28" y="105.7" width="58.54" height="84.86"/><rect class="cls-4" x="323.35" y="105.7" width="58.54" height="84.86"/><rect class="cls-5" x="330.62" y="114.89" width="44" height="66.48"/><path class="cls-1" d="M374.62,181.36s0-.11,0-.32,0-.54,0-.95c0-.83,0-2.05,0-3.64,0-3.19,0-7.83,0-13.7,0-11.72,0-28.32-.07-47.86l.15.14-44,0h0l.16-.16c0,25.07,0,48.2,0,66.47l-.13-.12,32,.06,8.85,0,2.32,0h.81l-.78,0h-2.3l-8.82,0-32.1.07h-.13v-.13c0-18.27,0-41.4,0-66.47v-.16h44.3v.15c0,19.58-.05,36.22-.07,48,0,5.85,0,10.48,0,13.66,0,1.58,0,2.79,0,3.62,0,.4,0,.71,0,.92Z"/><path class="cls-1" d="M382.05,105.7a10,10,0,0,1-1,1.51c-.68.91-1.65,2.15-2.75,3.49s-2.13,2.52-2.89,3.36a11.39,11.39,0,0,1-1.29,1.32,11.06,11.06,0,0,1,1.12-1.47l2.82-3.42c1.06-1.29,2-2.46,2.81-3.42A11.62,11.62,0,0,1,382.05,105.7Z"/><path class="cls-5" d="M374.84,181.15a54.52,54.52,0,0,0,7.67,9.6"/><path class="cls-1" d="M382.51,190.74a8.36,8.36,0,0,1-1.33-1.21,42.38,42.38,0,0,1-2.9-3.27,43.25,43.25,0,0,1-2.55-3.54,8.3,8.3,0,0,1-.89-1.57,12.15,12.15,0,0,1,1.08,1.44c.64.91,1.55,2.15,2.61,3.47s2.07,2.49,2.81,3.31A11.55,11.55,0,0,1,382.51,190.74Z"/><path class="cls-5" d="M323.34,190.49q3.82-4.74,7.67-9.47"/><path class="cls-1" d="M331,181c.06.06-1.6,2.22-3.71,4.84a60.05,60.05,0,0,1-4,4.63,56.91,56.91,0,0,1,3.71-4.84A60.05,60.05,0,0,1,331,181Z"/><path class="cls-1" d="M323.35,105.7a53.34,53.34,0,0,1,3.72,4.45,55.1,55.1,0,0,1,3.47,4.64,51.14,51.14,0,0,1-3.72-4.45A52.57,52.57,0,0,1,323.35,105.7Z"/><rect class="cls-1" x="346.18" y="128.38" width="14.73" height="41.83"/><rect class="cls-1" x="363.06" y="15.57" width="8.38" height="41.7" transform="translate(-0.19 1.97) rotate(-0.31)"/><rect class="cls-3" x="290.41" y="15.72" width="21.7" height="23.02" transform="translate(-0.14 1.61) rotate(-0.31)"/><rect class="cls-4" x="312" y="15.6" width="21.7" height="23.02" transform="translate(-0.14 1.73) rotate(-0.31)"/><path class="cls-1" d="M290.38,22.13c14.42.12,28.88,0,43.3-.2a.23.23,0,0,0,0-.46q-21.65-.12-43.3.27a.2.2,0,0,0,0,.39Z"/><rect class="cls-3" x="276.86" y="38.4" width="39.43" height="18.76" transform="translate(-0.25 1.59) rotate(-0.31)"/><rect class="cls-4" x="316.11" y="38.19" width="39.43" height="18.76" transform="translate(-0.25 1.8) rotate(-0.31)"/><path class="cls-1" d="M276.84,43.72c26.2.3,52.48,0,78.67-.38a.24.24,0,0,0,0-.47c-26.2-.13-52.48-.12-78.67.46a.2.2,0,0,0,0,.39Z"/><rect class="cls-1" x="262.1" y="57.27" width="152.76" height="6.72"/><rect class="cls-1" x="287.11" y="60.5" width="6.2" height="22.93"/><rect class="cls-1" x="379.68" y="60.5" width="6.2" height="22.93"/><rect class="cls-3" x="371.28" y="0.02" width="8.38" height="57.35" transform="translate(-0.15 2.01) rotate(-0.31)"/><rect class="cls-4" x="379.7" y="10.71" width="13.02" height="46.48" transform="translate(-0.18 2.07) rotate(-0.31)"/><path class="cls-1" d="M392.51,19.63a47.64,47.64,0,0,1-6.51.23,47.52,47.52,0,0,1-6.51-.23,92.25,92.25,0,0,1,13,0Z"/><path class="cls-1" d="M392.51,17.68a48.72,48.72,0,0,1-6.51.22,48.59,48.59,0,0,1-6.51-.22,92.25,92.25,0,0,1,13,0Z"/><path class="cls-1" d="M392.51,50.16a47.64,47.64,0,0,1-6.51.23,47.52,47.52,0,0,1-6.51-.23,92.25,92.25,0,0,1,13,0Z"/><path class="cls-1" d="M392.51,48.21a48.72,48.72,0,0,1-6.51.22,48.59,48.59,0,0,1-6.51-.22,92.25,92.25,0,0,1,13,0Z"/><path class="cls-1" d="M386.21,44c-.13,0-.23-4.69-.23-10.47s.1-10.48.23-10.48.22,4.69.22,10.48S386.33,44,386.21,44Z"/><rect class="cls-3" x="392.65" y="22.09" width="14.17" height="35.08"/><path class="cls-2" d="M400.14,48.07A3,3,0,0,1,397,44.92a2.72,2.72,0,0,1,1.15-2.37l.32.44a2.3,2.3,0,0,0-.93,1.93,2.63,2.63,0,0,0,5.26,0,2.28,2.28,0,0,0-.94-1.93l.33-.44a2.76,2.76,0,0,1,1.14,2.37A3,3,0,0,1,400.14,48.07Z"/><path class="cls-2" d="M402.5,41.68,402,41.4a3.63,3.63,0,0,0,.75-2.24c0-1.32-.47-1.84-1.17-1.84-1.82,0-.48,4.13-2.93,4.13-.94,0-1.71-.79-1.71-2.36a3.84,3.84,0,0,1,.61-2.14l.48.27a3.25,3.25,0,0,0-.56,1.88c0,1.22.5,1.76,1.17,1.76,1.87,0,.55-4.14,2.93-4.14,1,0,1.7.87,1.7,2.46A3.88,3.88,0,0,1,402.5,41.68Z"/><path class="cls-2" d="M402.5,36l-.47-.28a3.66,3.66,0,0,0,.75-2.25c0-1.31-.47-1.84-1.17-1.84-1.82,0-.48,4.14-2.93,4.14-.94,0-1.71-.79-1.71-2.37a3.84,3.84,0,0,1,.61-2.14l.48.28a3.25,3.25,0,0,0-.56,1.88c0,1.21.5,1.75,1.17,1.75,1.87,0,.55-4.13,2.93-4.13,1,0,1.7.87,1.7,2.46A3.88,3.88,0,0,1,402.5,36Z"/><circle class="cls-1" cx="375.19" cy="9.79" r="2.41"/><rect class="cls-1" x="374.44" y="16.42" width="1.49" height="34.12"/></g><g id="Floor"><path class="cls-6" d="M432.43,413.34c0,.14-96.59.26-215.71.26S1,413.48,1,413.34s96.57-.27,215.73-.27S432.43,413.19,432.43,413.34Z"/></g><g id="Hourglass"><path class="cls-2" d="M117.8,69.55c-16,25.25-15,60.24,2.54,84.48,11.69,16.15,29.22,27,43.14,41.25s24.5,35.31,17.15,53.85c-7.48,18.87-29.39,26.55-45.79,38.5A86.56,86.56,0,0,0,114,405.86H284.38s29.94-57.06-8.55-100.54-59.16-44.19-57.74-72.7,21.38-37.78,32.79-48.47,67-35.64,34.21-114.6Z"/><path class="cls-6" d="M117.8,69.55l2.93,0,8.64,0,33.26-.05,122.46-.09h.13l0,.11a157.11,157.11,0,0,1,6.35,18.46,106.44,106.44,0,0,1,3.62,20,79.25,79.25,0,0,1-1.08,21.17,68.07,68.07,0,0,1-7.7,20.58,74.49,74.49,0,0,1-6.42,9.31,86.2,86.2,0,0,1-7.85,8.4,115.84,115.84,0,0,1-8.91,7.54c-3.1,2.4-6.34,4.67-9.5,7.06-1.58,1.2-3,2.54-4.54,3.88s-3.07,2.58-4.65,3.84c-3.15,2.52-6.33,5-9.33,7.8a49.87,49.87,0,0,0-14,20.07,49,49,0,0,0-2.66,12.27c-.09,1.06-.23,2.11-.27,3.17s-.08,2.12,0,3.18a35.59,35.59,0,0,0,.64,6.34,28.83,28.83,0,0,0,5.12,11.67,64.34,64.34,0,0,0,8.83,9.57c6.48,5.92,13.34,11.57,19.91,17.66s13,12.47,19.2,19.19a116.48,116.48,0,0,1,8.86,10.54A74.29,74.29,0,0,1,288,323.14a78.34,78.34,0,0,1,7.34,27,99.14,99.14,0,0,1-1.66,28.41A117.18,117.18,0,0,1,290,392.52,102.51,102.51,0,0,1,284.61,406l-.07.14H113.82l-.07-.11a87.89,87.89,0,0,1-14.27-40.23,84.86,84.86,0,0,1,5.9-40.61A88.44,88.44,0,0,1,127.9,293a102.56,102.56,0,0,1,15.38-11.22c5.32-3.31,10.69-6.36,15.76-9.7a72.11,72.11,0,0,0,13.88-11.29,38,38,0,0,0,8.58-14.88,37.1,37.1,0,0,0,.68-16.61A54.48,54.48,0,0,0,176.91,214a75.28,75.28,0,0,0-8.58-13A103.67,103.67,0,0,0,158,190.16c-7.21-6.64-14.6-12.45-21.24-18.42-3.33-3-6.48-6-9.39-9.07a84.86,84.86,0,0,1-7.78-9.59,73.34,73.34,0,0,1-9.75-20.21,75.66,75.66,0,0,1-3.32-19.14c-.14-1.49-.08-3-.08-4.37s0-2.82.13-4.17.2-2.67.3-4,.37-2.52.54-3.72A71,71,0,0,1,114,76.29a27.94,27.94,0,0,1,1.54-3l1.23-2.08c.65-1.12,1-1.68,1-1.68l-1,1.71-1.19,2.09a28.82,28.82,0,0,0-1.52,3,71.73,71.73,0,0,0-6.6,21.21c-.17,1.21-.37,2.44-.52,3.72s-.2,2.6-.3,4-.1,2.74-.11,4.16,0,2.87.09,4.36A75.34,75.34,0,0,0,110,132.8a73,73,0,0,0,9.74,20.12,83.31,83.31,0,0,0,7.77,9.55c2.9,3.08,6,6.07,9.38,9,6.64,6,14,11.75,21.26,18.4a103.48,103.48,0,0,1,10.43,10.86,74.79,74.79,0,0,1,8.63,13.08,54.64,54.64,0,0,1,5.32,15.38,37.43,37.43,0,0,1-.68,16.78,38.23,38.23,0,0,1-8.66,15.05,72.62,72.62,0,0,1-13.94,11.36c-5.09,3.36-10.46,6.42-15.77,9.72a102.08,102.08,0,0,0-15.31,11.18,88,88,0,0,0-22.39,32A84.29,84.29,0,0,0,100,365.72a87.5,87.5,0,0,0,14.2,40l-.2-.11H284.38l-.23.14a101.58,101.58,0,0,0,5.38-13.38,116.15,116.15,0,0,0,3.64-13.88,98.5,98.5,0,0,0,1.65-28.26,77.52,77.52,0,0,0-7.29-26.85,74.05,74.05,0,0,0-7.09-11.84A116.51,116.51,0,0,0,271.62,301q-9.25-10.08-19.17-19.17c-6.56-6.09-13.41-11.73-19.9-17.66a65.09,65.09,0,0,1-8.91-9.65,29.45,29.45,0,0,1-5.19-11.87,37.47,37.47,0,0,1-.65-6.42c-.05-1.07,0-2.14,0-3.21s.18-2.13.26-3.19a49.48,49.48,0,0,1,2.7-12.39,50.28,50.28,0,0,1,14.13-20.26c3-2.77,6.21-5.29,9.36-7.81,1.58-1.26,3.13-2.52,4.64-3.83s3-2.69,4.56-3.89c3.18-2.4,6.41-4.66,9.5-7.06a115.17,115.17,0,0,0,8.89-7.51,85.33,85.33,0,0,0,7.81-8.35,75.8,75.8,0,0,0,6.39-9.25,67.71,67.71,0,0,0,7.66-20.44A78.83,78.83,0,0,0,294.83,108a106.63,106.63,0,0,0-3.59-20,158.88,158.88,0,0,0-6.32-18.42l.17.12L162.7,69.65l-33.28-.05-8.66,0Z"/><path class="cls-7" d="M278.29,115.85c25.1,4.12-14.47,48.58-36.88,66.12-13,10.16-26.9,21.17-33.06,36.46-7,17.33-1.81,36.82-5.19,54.26a2.42,2.42,0,0,1-4.8-.51c.16-11.45-.14-22.89-2-34.16-2.69-16-8.83-31.8-20-43.51-9.15-9.56-21.14-15.91-30.89-24.85-14.24-13-28.87-29.89-30.3-49.15,0,0,27.34-22,42.52-19.24,17.74,3.25,35.2,30.61,62.68,27.48C239.49,126.56,249.18,111.06,278.29,115.85Z"/><path class="cls-7" d="M280.52,353.79c-.63-6.27-2.31-13.38-7.88-16.34-3.37-1.79-7.48-1.59-11.18-.62s-7.17,2.65-10.83,3.74a35.54,35.54,0,0,1-22.17-.7c-6.81-2.5-12.65-7-19-10.58s-13.72-6.21-20.76-4.45c-12.14,3-18.46,17.63-30.46,21.16-5.34,1.57-11.07.69-16.49-.54s-10.87-2.81-16.42-2.6c-4.36.17-8.89,1.67-11.94,4.65l0,0-.08.1a11.17,11.17,0,0,0-1.38,1.61c-3.72,5-4.32,11.64-3.17,17.7,1.28,6.78,4.45,13.05,7.85,19.06,4,7.08,8.56,14.13,15.18,18.85,8.18,5.82,18.45,1.8,28.46,2.59,23.33,1.84,48.43,3.1,71.77,1.29,12.33-.95,23.88.38,33.66-7.18,6.88-5.32,11.36-13.34,13.52-21.77S281.39,362.45,280.52,353.79Z"/><g class="cls-8"><path d="M236.48,341.77c-1.31,2-1.88,4.72-.6,6.77s3,3.91,3.53,6.25c.87,3.69-1.35,7.29-3,10.69a34.06,34.06,0,0,0-3.31,19.73,26.82,26.82,0,0,0,9.79,17.23c2.37,1.83,5.45,3.25,8.31,2.36,2.69-.85,4.42-3.58,5-6.34s.09-5.62-.26-8.42a130.58,130.58,0,0,1,1-39.07c.38-2.16.74-4.61-.62-6.32a7.34,7.34,0,0,0-3.59-2c-5.2-1.73-10.81.19-16.2-.83"/></g><path class="cls-6" d="M101.45,413.6s-.47-7.83,9.73-12.18H290.43s9.35,4.73,10.5,12Z"/><path class="cls-6" d="M286.64,70.51l-.29.13L117.8,69.55s-.6-.38-1.49-1.08a6.39,6.39,0,0,1,4-11.42l163.6,1.32C290.64,58.42,292.74,67.62,286.64,70.51Z"/><g class="cls-8"><path d="M259.66,134.8c.34.65-.93,2.06-3.34,4.2s-6,5.09-10.46,8.72a137.26,137.26,0,0,1-17,12A68.19,68.19,0,0,1,217.23,165a53.36,53.36,0,0,1-6.69,1.85,43.43,43.43,0,0,1-7.23.94,38.63,38.63,0,0,1-14.53-2,52.78,52.78,0,0,1-11.68-6c-3.36-2.23-6.25-4.43-9-6.53s-5.2-4.15-7.42-6.06c-8.85-7.67-13.51-13.31-12.61-14.4s7.2,2.46,17,8.46l8,4.9c2.87,1.74,5.94,3.66,9.08,5.44a50.84,50.84,0,0,0,9.85,4.45,31.15,31.15,0,0,0,10.84,1.28c7.68-.39,15.13-3.1,21.58-6.21s12.29-6.77,17.35-9.6a87.66,87.66,0,0,1,12.52-6.11C257.41,134.38,259.33,134.18,259.66,134.8Z"/></g><path class="cls-7" d="M198.48,293.58a2.8,2.8,0,1,1-.14.05"/><path class="cls-6" d="M138.2,162.7a5.23,5.23,0,0,1-.6-.6c-.4-.45-.95-1-1.63-1.79s-1.6-1.72-2.53-2.89l-3.18-4c-1.09-1.54-2.32-3.19-3.56-5l-1.83-2.91c-.31-.5-.64-1-.94-1.52l-.88-1.63a67.4,67.4,0,0,1-6.21-15,62.89,62.89,0,0,1-2.36-16c0-1.24.07-2.46.09-3.64,0-.59,0-1.17.08-1.74s.12-1.14.18-1.69c.13-1.1.21-2.17.36-3.18s.36-2,.53-2.92c.28-1.86.78-3.5,1.13-5,.19-.72.34-1.4.53-2s.38-1.16.55-1.66l.77-2.3a5.23,5.23,0,0,1,.3-.79,4.34,4.34,0,0,1-.2.82c-.17.58-.39,1.35-.68,2.33l-.5,1.67c-.17.62-.31,1.3-.49,2-.32,1.46-.79,3.09-1,5-.16.93-.32,1.89-.49,2.9s-.21,2.08-.33,3.17c-.05.55-.11,1.11-.17,1.68s0,1.14-.06,1.73c0,1.17-.08,2.38-.07,3.62a63.26,63.26,0,0,0,2.38,15.88,68.82,68.82,0,0,0,6.13,14.86q.44.83.87,1.62c.29.53.62,1,.92,1.53l1.8,2.91c1.22,1.83,2.43,3.49,3.49,5s2.2,2.81,3.12,4,1.79,2.12,2.45,2.93l1.56,1.86A4.76,4.76,0,0,1,138.2,162.7Z"/><path class="cls-6" d="M128.71,311.26a1.34,1.34,0,0,1,.18-.33l.6-.94,1-1.52.63-1c.25-.33.54-.66.83-1l2-2.39c.77-.83,1.65-1.69,2.58-2.64a69,69,0,0,1,6.86-5.77c5.31-4,12.16-8,19.58-12.69a113.68,113.68,0,0,0,11.23-7.91,52.71,52.71,0,0,0,10.07-10.65,50.37,50.37,0,0,0,8.15-26.83,63.41,63.41,0,0,0-3.84-22.79,84.88,84.88,0,0,0-6.62-14.21c-.93-1.6-1.69-2.83-2.21-3.65l-.59-.94a3.55,3.55,0,0,1-.19-.34,2.21,2.21,0,0,1,.24.31l.63.91c.55.81,1.34,2,2.29,3.61a81.32,81.32,0,0,1,6.8,14.19,63.31,63.31,0,0,1,4,22.92,54.16,54.16,0,0,1-.55,6.75,49.56,49.56,0,0,1-1.47,6.91,47.06,47.06,0,0,1-6.18,13.46,53.25,53.25,0,0,1-10.18,10.75,115.12,115.12,0,0,1-11.29,7.92C155.72,288,148.86,292,143.55,296a73.41,73.41,0,0,0-6.88,5.69c-.93.93-1.82,1.78-2.6,2.59l-2,2.36c-.3.36-.59.68-.84,1l-.65.95-1,1.49-.64.91Z"/><path class="cls-6" d="M119.41,328.93a2.87,2.87,0,0,1-.22.46l-.72,1.27c-.32.55-.7,1.22-1.08,2s-.9,1.7-1.32,2.75c-.22.52-.46,1.06-.7,1.63s-.44,1.18-.68,1.8c-.48,1.23-.86,2.6-1.3,4a54.34,54.34,0,0,0-1.76,19.22c.17,1.48.29,2.89.55,4.2.11.65.2,1.29.33,1.89l.4,1.72c.22,1.11.55,2.08.79,2.95s.48,1.6.7,2.19.34,1,.47,1.38a1.81,1.81,0,0,1,.13.5,2.17,2.17,0,0,1-.23-.46c-.15-.36-.33-.81-.56-1.35a21.29,21.29,0,0,1-.79-2.17c-.27-.87-.62-1.84-.87-3-.14-.55-.28-1.13-.43-1.73s-.24-1.24-.37-1.9c-.28-1.31-.42-2.73-.6-4.23a52.31,52.31,0,0,1,1.78-19.39c.45-1.44.85-2.81,1.36-4,.25-.63.45-1.24.71-1.81s.5-1.1.74-1.62c.44-1.05,1-1.94,1.39-2.73a19.84,19.84,0,0,1,1.17-2l.8-1.22C119.29,329.06,119.39,328.92,119.41,328.93Z"/><path class="cls-6" d="M243,353s-.06.06-.2.15l-.62.39L239.79,355,238,356c-.66.36-1.39.7-2.17,1.1-1.58.76-3.32,1.72-5.38,2.5l-3.2,1.31c-1.11.45-2.32.79-3.54,1.22-2.43.89-5.13,1.52-7.94,2.25a93.33,93.33,0,0,1-37.61,1c-2.85-.59-5.58-1.08-8.06-1.84-1.24-.36-2.46-.64-3.6-1l-3.26-1.14c-2.09-.67-3.89-1.55-5.5-2.22-.8-.36-1.55-.66-2.22-1l-1.82-.95-2.5-1.33-.64-.35a.87.87,0,0,1-.21-.14s.09,0,.24.09l.66.31,2.54,1.24,1.83.91c.68.31,1.44.6,2.24.94,1.61.65,3.41,1.5,5.51,2.14l3.25,1.11c1.14.37,2.36.64,3.6,1,2.47.74,5.18,1.21,8,1.78a94.81,94.81,0,0,0,37.42-1c2.8-.72,5.49-1.34,7.92-2.2,1.22-.41,2.42-.75,3.53-1.18l3.2-1.28c2.06-.75,3.81-1.69,5.39-2.42.78-.38,1.52-.71,2.18-1.06l1.78-1,2.47-1.37.65-.35Z"/><path class="cls-6" d="M253.47,141.32s-.06.08-.21.2l-.66.54-2.55,2c-2.22,1.76-5.44,4.31-9.51,7.35a137.5,137.5,0,0,1-14.87,9.83,68.08,68.08,0,0,1-9.58,4.41A43.67,43.67,0,0,1,205,168.15a42,42,0,0,1-21.24-4.42,72.06,72.06,0,0,1-8.21-4.88c-2.44-1.73-4.67-3.39-6.64-5-4-3.18-7.06-5.87-9.22-7.71L157.25,144l-.63-.57-.21-.21a1.33,1.33,0,0,1,.24.17l.67.53,2.53,2.06c2.2,1.79,5.34,4.44,9.32,7.57,2,1.58,4.21,3.22,6.66,4.92A73,73,0,0,0,184,163.3a42,42,0,0,0,21,4.33,43.8,43.8,0,0,0,10.93-2.42,68.2,68.2,0,0,0,9.52-4.35,143.81,143.81,0,0,0,14.89-9.71c4.08-3,7.33-5.5,9.6-7.21l2.61-2,.69-.5Z"/><g class="cls-8"><path d="M163.28,361.36c4.74-3.66,11.4-2.77,17.26-1.54s11.76,3.24,17.69,2.41c4.47-.63,8.57-2.83,13-3.78s9.76-.25,12.21,3.54a95,95,0,0,1-60.13-.63"/></g></g><g id="Character"><path class="cls-7" d="M328.65,334.22l-21.53-24.11-.22,29.31,6.48,18.8L249,369.4l-2.73-50.83-4.64-39a10.59,10.59,0,0,1,6.64-11.11l17.73-7,25,4.58L301,269.83a27.62,27.62,0,0,1,10.94,7.62L342.16,312"/><path class="cls-5" d="M305.61,304.34a32.58,32.58,0,0,0,3.63-.25,14.76,14.76,0,0,0,12.11-11.17,33.49,33.49,0,0,0,.55-3.6,3.28,3.28,0,0,1,.09,1,12.05,12.05,0,0,1-.28,2.69,14.44,14.44,0,0,1-12.41,11.45,12.89,12.89,0,0,1-2.71.07A2.9,2.9,0,0,1,305.61,304.34Z"/><path class="cls-6" d="M307.49,338.17c.15,0,.19-10.15.09-22.67s-.31-22.68-.46-22.68S306.93,303,307,315.5,307.34,338.18,307.49,338.17Z"/><path class="cls-7" d="M305.13,345.63,266.21,330a8.91,8.91,0,0,1-5.55-7.58l-2.85-37.32s.34-15.87-9.58-16.64l-5.64,2.22c-7.29,3.87-9.09,14.48-8.1,22.68,1.41,11.64,2,28.11,3.58,38.22,1.29,8.27,6,15.54,14.11,17.67l47.94,10.37Z"/><path class="cls-6" d="M258.37,290.75a5.11,5.11,0,0,1,.12.86c.06.61.15,1.43.25,2.46.2,2.19.48,5.27.82,9.05s.72,8.38,1.16,13.43c.1,1.26.21,2.56.32,3.88a30,30,0,0,0,.5,4,6.64,6.64,0,0,0,1.94,3.5,13.24,13.24,0,0,0,3.59,2.23c10.73,4.65,20.62,8.48,27.8,11.17l8.53,3.14,2.32.86a4.39,4.39,0,0,1,.79.33,4.8,4.8,0,0,1-.83-.23l-2.35-.77c-2-.67-5-1.68-8.58-3-7.23-2.61-17.13-6.38-27.9-11a13.4,13.4,0,0,1-3.73-2.34,7.14,7.14,0,0,1-2.08-3.75,29.3,29.3,0,0,1-.49-4.07c-.11-1.32-.21-2.62-.31-3.88-.39-5-.75-9.6-1-13.44s-.5-6.88-.66-9.07q-.1-1.54-.15-2.46A5.22,5.22,0,0,1,258.37,290.75Z"/><path class="cls-6" d="M236.07,311a2.5,2.5,0,0,1,.07.5l.13,1.44c.12,1.33.27,3.12.46,5.3s.49,4.89.88,7.83a75.41,75.41,0,0,0,1.75,9.45,14.13,14.13,0,0,0,1.9,4.51,26.23,26.23,0,0,0,2.91,3.57,25,25,0,0,0,6.23,4.68,23.5,23.5,0,0,0,6.84,2.24,2.46,2.46,0,0,1-.51,0,10.84,10.84,0,0,1-1.44-.18,19.28,19.28,0,0,1-5.06-1.71,24.22,24.22,0,0,1-6.4-4.67,25.83,25.83,0,0,1-3-3.62,14.67,14.67,0,0,1-2-4.66,70.46,70.46,0,0,1-1.73-9.53c-.36-2.95-.6-5.62-.76-7.86s-.25-4.06-.3-5.31c0-.58,0-1.06,0-1.45A1.71,1.71,0,0,1,236.07,311Z"/><path class="cls-6" d="M252.71,337.16a5.71,5.71,0,0,1,.71-2.08,13.36,13.36,0,0,1,7.9-6.74,5.81,5.81,0,0,1,2.16-.38c0,.09-.8.25-2,.73a15.24,15.24,0,0,0-4.41,2.62,15.52,15.52,0,0,0-3.29,3.95C253.08,336.41,252.79,337.19,252.71,337.16Z"/><path class="cls-5" d="M260.37,308.78a.92.92,0,0,1,.24.11l.7.36a25,25,0,0,0,2.78,1.18,22,22,0,0,0,10.91.93,21.54,21.54,0,0,0,13.56-8.43,17.87,17.87,0,0,0,3.55-8.81,11.93,11.93,0,0,0-.52-5,10.08,10.08,0,0,0-2.8-4.29,8.45,8.45,0,0,0-4.57-2.22,5.45,5.45,0,0,0-4.58,1.28,3,3,0,0,0-.9,2.08,3.67,3.67,0,0,0,.76,2.14,5.86,5.86,0,0,0,4,2.06A16.3,16.3,0,0,0,298,284.45a16.22,16.22,0,0,0,2.94-5.51,17.34,17.34,0,0,0,.74-4.68,17.79,17.79,0,0,0-.22-3c-.06-.32-.11-.57-.14-.78a1.27,1.27,0,0,1,0-.26,12.57,12.57,0,0,1,.6,4,16.89,16.89,0,0,1-.66,4.77,16.34,16.34,0,0,1-2.93,5.66,16.65,16.65,0,0,1-14.9,6,6.34,6.34,0,0,1-4.28-2.25,4,4,0,0,1-.86-2.43,3.46,3.46,0,0,1,1-2.44,6,6,0,0,1,5-1.44,9,9,0,0,1,4.85,2.35,10.66,10.66,0,0,1,2.94,4.51,12.5,12.5,0,0,1,.54,5.2,18.31,18.31,0,0,1-3.67,9.06,21.53,21.53,0,0,1-24.93,7.4A16,16,0,0,1,260.37,308.78Z"/><path class="cls-5" d="M234.87,298.82a3.67,3.67,0,0,1,.64-.8,15.06,15.06,0,0,1,2.1-1.82,17.66,17.66,0,0,1,8.61-3.06,16.63,16.63,0,0,1,5.08.22,15.47,15.47,0,0,1,3.91,1.37,17.84,17.84,0,0,1,2.38,1.45,3.36,3.36,0,0,1,.78.66c-.06.08-1.22-.8-3.32-1.78a16.4,16.4,0,0,0-8.77-1.4,18.58,18.58,0,0,0-8.46,2.84C235.89,297.78,234.94,298.9,234.87,298.82Z"/><path class="cls-5" d="M241.1,272.14a16.27,16.27,0,0,0,3.15,2.29,11.23,11.23,0,0,0,4,1.17,10,10,0,0,0,9.06-3.75,11.21,11.21,0,0,0,2-3.67,16,16,0,0,0,.61-3.84,3.43,3.43,0,0,1,.13,1.06,9.64,9.64,0,0,1-.39,2.89,11,11,0,0,1-2,3.86,10.26,10.26,0,0,1-9.5,3.93,11.28,11.28,0,0,1-4.13-1.33,9.9,9.9,0,0,1-2.32-1.77A3.2,3.2,0,0,1,241.1,272.14Z"/><path class="cls-5" d="M275,333.5a3.65,3.65,0,0,1,.08-.73,7.86,7.86,0,0,1,.69-2,11.08,11.08,0,0,1,5.82-5.06,17.11,17.11,0,0,1,11.45-.41c2.06.62,4.42,1.37,6,3.38a3.6,3.6,0,0,1,.44,3.66,5.78,5.78,0,0,1-2.77,2.62,8.7,8.7,0,0,1-3.69.91,5.36,5.36,0,0,1-3.54-1.1,4.54,4.54,0,0,1-1.58-3.2,8.12,8.12,0,0,1,.53-3.38,15.14,15.14,0,0,1,8-8.12,15.65,15.65,0,0,1,7.66-1.31,10.89,10.89,0,0,1,2.8.59c0,.06-1-.27-2.82-.39a16.09,16.09,0,0,0-7.49,1.45,15.86,15.86,0,0,0-4.37,3,14.06,14.06,0,0,0-3.35,5,7.54,7.54,0,0,0-.49,3.17,4,4,0,0,0,1.42,2.85,4.8,4.8,0,0,0,3.2,1,8.11,8.11,0,0,0,3.46-.86,5.27,5.27,0,0,0,2.54-2.36,3.11,3.11,0,0,0-.38-3.15,7.13,7.13,0,0,0-2.61-2.07,18.7,18.7,0,0,0-3.07-1.15,16.94,16.94,0,0,0-11.18.29,11.11,11.11,0,0,0-5.78,4.81A10.69,10.69,0,0,0,275,333.5Z"/><path class="cls-5" d="M249.1,347.56c0-.1,1.48-.23,3.73-1a18.6,18.6,0,0,0,11.94-13.21c.57-2.32.55-3.82.65-3.82a3.51,3.51,0,0,1,.05,1.05,15.17,15.17,0,0,1-.34,2.85A17.93,17.93,0,0,1,253,346.88a16.28,16.28,0,0,1-2.8.63A3.65,3.65,0,0,1,249.1,347.56Z"/><path class="cls-5" d="M236.48,318.55a1.6,1.6,0,0,1,.47-.19c.32-.1.78-.25,1.39-.4a16.58,16.58,0,0,1,5.31-.54,11.16,11.16,0,0,1,3.6.89,8.27,8.27,0,0,1,3.36,2.64,6.88,6.88,0,0,1,1.31,4.54,5.5,5.5,0,0,1-.77,2.43,3.88,3.88,0,0,1-2,1.71,2.7,2.7,0,0,1-2.63-.52,3.52,3.52,0,0,1-.91-2.43,10.42,10.42,0,0,1,.92-4.63,10.15,10.15,0,0,1,5.68-5.39,10.37,10.37,0,0,1,5.29-.52,9,9,0,0,1,1.41.36c.31.11.47.18.46.2s-.67-.21-1.9-.36a10.54,10.54,0,0,0-5.13.67,9.83,9.83,0,0,0-5.37,5.24,10.07,10.07,0,0,0-.85,4.41,3,3,0,0,0,.76,2.07,2.17,2.17,0,0,0,2.11.4,3.36,3.36,0,0,0,1.76-1.48,5,5,0,0,0,.7-2.21,6.46,6.46,0,0,0-1.19-4.21,7.94,7.94,0,0,0-3.15-2.53,10.78,10.78,0,0,0-3.46-.91,17.79,17.79,0,0,0-5.22.36C237.17,318.41,236.5,318.59,236.48,318.55Z"/><g class="cls-9"><path d="M294,341.18c-4.17-2.35-8.24-4.16-12.59-6.14s-8.62-4.51-11.47-8.35c-5.37-7.24-4.76-17.69-10.25-24.84q.54,7.22,1.07,14.41c.33,4.41-.34,8.76,2.49,11.75,2.39,2.53,7.05,4.46,10.35,5.55,6.63,2.18,13.77,5.43,20.4,7.62"/></g><path class="cls-7" d="M361.58,396s32.57,9,33.88,9.47c2,.69,1.63,7.88-1.42,7.77-1.45,0-25,.88-28,.69s-12-3.73-12-3.73Z"/><path class="cls-6" d="M375.15,408.46a28.68,28.68,0,0,1,1.44-3.5,30.05,30.05,0,0,1,2.3-3,7.23,7.23,0,0,0-3.74,6.5Z"/><path class="cls-6" d="M371.75,406.92c.16,0,.49-1.52,1.36-3.22s1.89-2.89,1.78-3a6.14,6.14,0,0,0-2.27,2.76A6.26,6.26,0,0,0,371.75,406.92Z"/><path class="cls-6" d="M368.57,406.06a22,22,0,0,1,.76-3.44,21.36,21.36,0,0,1,1.78-3,4.91,4.91,0,0,0-2.29,2.84A5,5,0,0,0,368.57,406.06Z"/><path class="cls-6" d="M369.15,401.86a5.94,5.94,0,0,0,.35-2.43,11.8,11.8,0,0,0-.33-2.65,11.13,11.13,0,0,0-.49-1.52,1.75,1.75,0,0,0-.52-.79.86.86,0,0,0-1.12,0,1.43,1.43,0,0,0-.43.92,6.34,6.34,0,0,0,0,.86,6.87,6.87,0,0,0,.2,1.6,9.85,9.85,0,0,0,1,2.49,6.89,6.89,0,0,0,1.46,2c.08-.05-.47-.81-1.12-2.14a10.81,10.81,0,0,1-.85-2.42,7.16,7.16,0,0,1-.16-1.49c0-.5,0-1.13.3-1.37a.31.31,0,0,1,.43,0,1.47,1.47,0,0,1,.36.57,12.58,12.58,0,0,1,.92,4C369.21,400.92,369.06,401.84,369.15,401.86Z"/><path class="cls-6" d="M369.11,401.52a4.66,4.66,0,0,0-2.1-.33,8.73,8.73,0,0,0-2.31.28,4.87,4.87,0,0,0-1.34.49,1.37,1.37,0,0,0-.73,1.49,1.63,1.63,0,0,0,1.17,1.16,3,3,0,0,0,1.46,0,5.75,5.75,0,0,0,2.12-1,5.59,5.59,0,0,0,1.51-1.5,17.34,17.34,0,0,0-1.73,1.18,5.73,5.73,0,0,1-2,.86,2.6,2.6,0,0,1-1.21,0,1.11,1.11,0,0,1-.79-.78.86.86,0,0,1,.48-.91,5.26,5.26,0,0,1,1.18-.46,11.17,11.17,0,0,1,2.2-.38C368.29,401.48,369.09,401.61,369.11,401.52Z"/><path class="cls-6" d="M380.16,408.8a17.29,17.29,0,0,1,.64-2.93,17.11,17.11,0,0,1,1.59-2.55c-.05-.14-1.41.64-2.1,2.34A3.71,3.71,0,0,0,380.16,408.8Z"/><path class="cls-6" d="M357.43,410.31a7,7,0,0,0,1.26.59,26.92,26.92,0,0,0,3.62,1.12,51.59,51.59,0,0,0,12.44,1.18c4.88-.05,9.28-.27,12.47-.4l3.77-.2a6.51,6.51,0,0,0,1.38-.15,6.3,6.3,0,0,0-1.39-.06l-3.77,0-12.46.25a58.31,58.31,0,0,1-12.35-1C359.28,411,357.47,410.21,357.43,410.31Z"/><path class="cls-6" d="M356.47,411.05c0,.08.93-.45,2.44-1.11a11.37,11.37,0,0,1,6.16-1,9.81,9.81,0,0,1,5.33,3.17,22.43,22.43,0,0,0,1.87,1.92,9.77,9.77,0,0,0-1.59-2.18,13,13,0,0,0-2.16-2,7.76,7.76,0,0,0-3.36-1.43,10.8,10.8,0,0,0-6.42,1.22A8.48,8.48,0,0,0,356.47,411.05Z"/><path class="cls-7" d="M327,387s-30.82,20.18-31.92,21c-1.66,1.25.24,7.23,3.12,6.19,1.36-.49,27.22-7.68,30-8.76s10.27-7.19,10.27-7.19Z"/><path class="cls-6" d="M317.86,403a5.83,5.83,0,0,0-2.06-3.3,5.89,5.89,0,0,0-3.48-1.76,32.11,32.11,0,0,1,3.11,2.16A29.64,29.64,0,0,1,317.86,403Z"/><path class="cls-6" d="M320.63,400.5a8.17,8.17,0,0,0-4.87-5c-.08.14,1.27,1,2.6,2.32S320.48,400.57,320.63,400.5Z"/><path class="cls-6" d="M323.4,398.72a6.09,6.09,0,0,0-4.38-5.41,23,23,0,0,1,2.61,2.36A21.68,21.68,0,0,1,323.4,398.72Z"/><path class="cls-6" d="M321.57,394.89c.08,0-.34-.88-.69-2.31a12.66,12.66,0,0,1-.37-2.55,11.15,11.15,0,0,1,0-1.52,1.2,1.2,0,0,1,.17-.65.31.31,0,0,1,.42-.1c.35.14.53.74.7,1.21a7.83,7.83,0,0,1,.3,1.47,10.57,10.57,0,0,1-.08,2.56c-.21,1.47-.5,2.35-.42,2.38a6.36,6.36,0,0,0,.8-2.31,9.65,9.65,0,0,0,.2-2.68,7.66,7.66,0,0,0-.29-1.58,7.31,7.31,0,0,0-.3-.81,1.46,1.46,0,0,0-.7-.74.86.86,0,0,0-1.08.29,1.78,1.78,0,0,0-.25.92,12,12,0,0,0,0,1.58,11.29,11.29,0,0,0,.5,2.63A5.79,5.79,0,0,0,321.57,394.89Z"/><path class="cls-6" d="M321.51,394.56c0,.08.76-.29,2-.59a10.45,10.45,0,0,1,2.21-.3,4.88,4.88,0,0,1,1.27.08.85.85,0,0,1,.74.72,1.1,1.1,0,0,1-.53,1,2.54,2.54,0,0,1-1.14.39,5.93,5.93,0,0,1-2.17-.22,13,13,0,0,0-2-.59,6.19,6.19,0,0,0,1.9,1,5.81,5.81,0,0,0,2.33.35,3,3,0,0,0,1.39-.44,1.65,1.65,0,0,0,.77-1.47,1.38,1.38,0,0,0-1.15-1.19,5,5,0,0,0-1.42-.06,8.89,8.89,0,0,0-2.29.43A4.63,4.63,0,0,0,321.51,394.56Z"/><path class="cls-6" d="M302.13,413.12s.52-.32.76-1.2a4.6,4.6,0,0,0-.58-3.34,12.11,12.11,0,0,0-1-1.54,5.71,5.71,0,0,0-1-1.12,1.85,1.85,0,0,0-1-.42c-.26,0-.39.06-.39.09a2.79,2.79,0,0,1,1.12.62,7.05,7.05,0,0,1,.89,1.12,16.38,16.38,0,0,1,1,1.51,4.74,4.74,0,0,1,.68,3A12.78,12.78,0,0,1,302.13,413.12Z"/><path class="cls-6" d="M313.2,404.85a4.69,4.69,0,0,0-3.8-4.55,8.91,8.91,0,0,1,3.8,4.55Z"/><path class="cls-6" d="M335.31,399.38a11.72,11.72,0,0,0-1.36.93,39.23,39.23,0,0,1-3.8,2.33,49.8,49.8,0,0,1-6,2.68c-2.34.88-5,1.7-7.72,2.5-5.55,1.59-10.57,3.05-14.19,4.14l-4.28,1.32a10.22,10.22,0,0,0-1.55.55,9.1,9.1,0,0,0,1.61-.35l4.33-1.15c3.65-1,8.68-2.39,14.23-4,2.77-.8,5.4-1.64,7.74-2.55a44.64,44.64,0,0,0,6-2.81,31.69,31.69,0,0,0,3.74-2.5A8.47,8.47,0,0,0,335.31,399.38Z"/><path class="cls-6" d="M336.45,399.79a8.71,8.71,0,0,0-2.61-.69,10.75,10.75,0,0,0-6.48.79,7.84,7.84,0,0,0-2.77,2.38,13.6,13.6,0,0,0-1.45,2.58,10,10,0,0,0-.85,2.56,20.47,20.47,0,0,0,1.2-2.39,9.71,9.71,0,0,1,4.12-4.64,11.33,11.33,0,0,1,6.18-.9A26.35,26.35,0,0,0,336.45,399.79Z"/><path class="cls-6" d="M391.06,337.82s9.25,3.3,9.28,13.67c.08,19.86-40.12,41.75-40.12,41.75l-53.5-35.45-3.35-1.35S375.59,329.31,391.06,337.82Z"/><path class="cls-10" d="M333.82,375.7a9.56,9.56,0,0,0,1.4-.95c.87-.63,2.12-1.58,3.66-2.76,3.06-2.37,7.23-5.72,11.71-9.57S359,355,361.82,352.29c1.4-1.34,2.52-2.43,3.29-3.2a9,9,0,0,0,1.14-1.24,10.93,10.93,0,0,0-1.29,1.08l-3.4,3.07c-2.87,2.6-6.85,6.16-11.33,10s-8.6,7.24-11.59,9.68c-1.45,1.17-2.64,2.15-3.55,2.89A10,10,0,0,0,333.82,375.7Z"/><path class="cls-10" d="M376,345.25a10.5,10.5,0,0,0-5.16.46,10.65,10.65,0,0,0-4.58,2.41c.09.14,2-1.1,4.74-1.88S376,345.41,376,345.25Z"/><path class="cls-10" d="M371.35,342.12a6.39,6.39,0,0,0-3.17,2.38,6.47,6.47,0,0,0-1.67,3.6c.16.06.74-1.61,2.09-3.26S371.44,342.26,371.35,342.12Z"/><path class="cls-6" d="M394,405c0-.06-.64-.19-1.38.42a5,5,0,0,0-1.54,3.11,6.05,6.05,0,0,0,.48,3.42c.38.81.8,1.2.85,1.16a9.11,9.11,0,0,0-.49-1.3,6.93,6.93,0,0,1-.3-3.21,5.36,5.36,0,0,1,1.26-2.89C393.45,405.1,394,405.08,394,405Z"/><polygon class="cls-10" points="378.76 305.38 359.7 353.68 277.67 355.01 276.15 350.58 304.9 349.53 318.72 306.69 378.76 305.38"/><path class="cls-3" d="M340.44,326.29a3.66,3.66,0,0,1,3.95.42,3.19,3.19,0,0,1,.77,3.5,3.47,3.47,0,0,1-3,2.07,3.14,3.14,0,0,1-3.14-2.07c-.37-1.3.05-3.24,1.38-3.92"/><path class="cls-6" d="M365.28,395.65S289.7,346.08,286.61,345s-10.58-5.93-18.05-3.86-14.19,8.76-17.54,18.56c-1.92,5.6-2.82,15.16-3.25,22.32a33.16,33.16,0,0,0,7.75,23.61,21.17,21.17,0,0,0,9.42,6.69c.79.24,1.61.45,2.45.64a35.56,35.56,0,0,0,37-15.54l1.76-2.69s49.45,18.17,50.22,17.91Z"/><path class="cls-10" d="M271.78,382l.41.18,1.24.49,4.79,1.84L296,391.23c7.56,2.83,16.62,6.18,26.79,9.88s21.43,7.75,33.47,11.83l.21.07.11-.2c1.89-3.61,3.88-7.42,5.91-11.28,1-2,2.05-3.93,3-5.75l.11-.22-.21-.14-57.65-36.6L290.46,347.9l-4.7-2.93-1.23-.75-.43-.25a4.84,4.84,0,0,0,.4.29l1.2.8,4.65,3,17.23,11.07,57.56,36.74-.1-.35-3,5.75c-2,3.86-4,7.67-5.9,11.27l.33-.13c-12-4.06-23.3-8.1-33.48-11.76l-26.83-9.77-17.86-6.55-4.82-1.75-1.26-.45A3.46,3.46,0,0,0,271.78,382Z"/><path class="cls-6" d="M279.62,206c1.29-3.48,4.14-5,7.75-5.87a11.61,11.61,0,0,1,10.37,2.67c1.83,1.68,3.17,4,5.43,5,3.73,1.68,8.5-.78,12,1.28a5.28,5.28,0,0,1-3.4,9.78c2.43,1.15,2.88,4.8,1.21,6.9s-4.76,2.67-7.35,1.94a14.82,14.82,0,0,1-6.55-4.5c-1.82-2-3.42-4.16-5.4-6a11.44,11.44,0,0,0-7.12-3.38c-3.63-.14-7,2.3-8.89,5.4s-2.62,6.76-3.15,10.35-.93,7.27-2.32,10.63c-.16.39-.4.83-.81.92-.61.12-1.05-.55-1.29-1.11a53.32,53.32,0,0,1-4.26-20.31c-.05-4,.41-7.82,2.92-11s8.3-5.15,10.83-2.77"/><path class="cls-11" d="M271.1,222.09l-5.56,40.37a12.12,12.12,0,0,0,11,13.73h0a12.13,12.13,0,0,0,13.07-10.44c.41-3,.77-5.58.83-5.89,0,0,10.41.45,12.55-9.62,1-4.87,2.35-15.06,3.44-24.3a19.17,19.17,0,0,0-15.3-21l-1-.2C279.49,203.23,272.29,211.42,271.1,222.09Z"/><path class="cls-12" d="M290.44,259.72A23.88,23.88,0,0,1,278,253.35s1.66,7.89,11.91,9Z"/><path class="cls-6" d="M302.09,232.11a1.47,1.47,0,0,1-1.68,1.18,1.4,1.4,0,0,1-1.22-1.6,1.47,1.47,0,0,1,1.68-1.18A1.4,1.4,0,0,1,302.09,232.11Z"/><path class="cls-6" d="M303.23,230.46c-.22.15-1.15-.88-2.7-1.18s-2.85.24-3,0,.19-.41.76-.67a4.08,4.08,0,0,1,2.42-.25,3.83,3.83,0,0,1,2.1,1.18C303.24,230,303.33,230.39,303.23,230.46Z"/><path class="cls-6" d="M286.77,229.6a1.47,1.47,0,0,1-1.68,1.17,1.41,1.41,0,0,1-1.23-1.59,1.47,1.47,0,0,1,1.68-1.18A1.4,1.4,0,0,1,286.77,229.6Z"/><path class="cls-6" d="M287.92,227.7c-.22.15-1.15-.87-2.7-1.18s-2.85.24-3,0,.19-.4.76-.67a4,4,0,0,1,2.42-.24,3.83,3.83,0,0,1,2.11,1.17C287.93,227.26,288,227.63,287.92,227.7Z"/><path class="cls-6" d="M291.25,240.33a10.64,10.64,0,0,1,2.61,0c.41,0,.8,0,.92-.22a2.07,2.07,0,0,0,0-1.23c-.18-1-.37-2.12-.57-3.25-.77-4.62-1.24-8.39-1.06-8.42s1,3.69,1.73,8.32c.18,1.13.36,2.22.52,3.25a2.3,2.3,0,0,1-.11,1.6,1,1,0,0,1-.76.45,2.46,2.46,0,0,1-.69,0A10.28,10.28,0,0,1,291.25,240.33Z"/><path class="cls-6" d="M286.47,240.49c.26,0-.08,1.72,1.12,3.21s3,1.65,3,1.89-.46.25-1.22.12a4.33,4.33,0,0,1-2.53-1.49,3.73,3.73,0,0,1-.83-2.66C286.09,240.84,286.36,240.46,286.47,240.49Z"/><path class="cls-6" d="M289.53,221.7c-.23.39-1.74-.12-3.61-.26s-3.43.06-3.6-.37c-.07-.2.27-.55.94-.84a6,6,0,0,1,2.8-.39,6.09,6.09,0,0,1,2.7.87C289.37,221.11,289.64,221.51,289.53,221.7Z"/><path class="cls-6" d="M303.55,225.85c-.34.3-1.33-.28-2.62-.55s-2.42-.24-2.59-.66c-.08-.2.16-.52.71-.76a3.79,3.79,0,0,1,2.25-.15,3.74,3.74,0,0,1,1.95,1.13C303.63,225.31,303.71,225.71,303.55,225.85Z"/><path class="cls-11" d="M270.43,229.73c-.16-.11-6.53-3.44-7.69,3.5s6.06,6.68,6.1,6.48S270.43,229.73,270.43,229.73Z"/><path class="cls-12" d="M267.16,236.73s-.13.06-.35.12a1.2,1.2,0,0,1-.91-.13,3,3,0,0,1-.94-2.92,4,4,0,0,1,.63-1.67,1.38,1.38,0,0,1,1.06-.78.63.63,0,0,1,.66.45c.06.21,0,.34,0,.36s.17-.09.16-.39a.82.82,0,0,0-.2-.48,1,1,0,0,0-.64-.29,1.71,1.71,0,0,0-1.44.87,4.13,4.13,0,0,0-.75,1.86c-.18,1.41.31,2.84,1.27,3.3a1.31,1.31,0,0,0,1.14,0C267.12,236.89,267.18,236.74,267.16,236.73Z"/><path class="cls-6" d="M308.94,224.27a14.89,14.89,0,0,1-12.37-5.51c-2-2.57-3.33-5.94-6.22-7.51a8.38,8.38,0,0,0-6.45-.39,16.14,16.14,0,0,0-5.62,3.42c.92,5.52-1.53,11-3.92,16a2.86,2.86,0,0,1-1.13,1.44c-.94.46-2.06-.27-2.63-1.16a8.73,8.73,0,0,1-1-4.88,29.11,29.11,0,0,1,2.3-11.18,19.7,19.7,0,0,1,7.27-8.69A18.64,18.64,0,0,1,293,203.56a22.91,22.91,0,0,1,12.11,7.27,13.45,13.45,0,0,1,3.27,5.73"/></g><g id="Plant"><path class="cls-6" d="M29.08,387.16a2.8,2.8,0,0,1,.18-.42l.56-1.21a30.34,30.34,0,0,0,1.67-4.83c1.1-4.3,1.48-10.87-.15-18.68a98.49,98.49,0,0,0-3.46-12.54c-1.47-4.45-3.17-9.18-4.56-14.28a55.47,55.47,0,0,1-2.25-16.42c.21-5.81,1.93-11.61,3.82-17.38s3.84-11.43,4.43-17.11a26.13,26.13,0,0,0-3.14-15.81c-2.51-4.61-5.65-8.56-8-12.64a44,44,0,0,1-4.82-12.15,45.35,45.35,0,0,1-.3-18.83,35.59,35.59,0,0,1,2-6.65,3,3,0,0,1-.11.44l-.4,1.28a44.87,44.87,0,0,0-.73,23.66,43.69,43.69,0,0,0,4.83,12c2.35,4,5.51,8,8.06,12.63a26.6,26.6,0,0,1,3.24,16.12c-.59,5.78-2.56,11.47-4.44,17.24s-3.59,11.51-3.8,17.22a54.89,54.89,0,0,0,2.19,16.25c1.37,5.08,3.06,9.81,4.5,14.27a98.82,98.82,0,0,1,3.41,12.62c1.59,7.86,1.13,14.5-.05,18.82a27,27,0,0,1-1.78,4.82c-.26.51-.47.9-.62,1.19A1.68,1.68,0,0,1,29.08,387.16Z"/><path class="cls-7" d="M21.37,259.87s-4.79-15.3,3.8-24.26a.53.53,0,0,1,.91.26C26.54,238.4,27.11,246.09,21.37,259.87Z"/><path class="cls-6" d="M24.24,240.7a14.34,14.34,0,0,1-.33,2.83c-.31,1.94-.68,4.23-1.09,6.75L21.75,257a14.54,14.54,0,0,1-.51,2.79,12.16,12.16,0,0,1,.09-2.84c.16-1.75.47-4.16.9-6.8s.89-5,1.27-6.73A12.86,12.86,0,0,1,24.24,240.7Z"/><path class="cls-7" d="M27,296s2.93-15.76,14.71-19.67a.54.54,0,0,1,.68.66C41.6,279.4,38.51,286.47,27,296Z"/><path class="cls-6" d="M38.49,280.36a14,14,0,0,1-1.61,2.35l-4.12,5.46-4.1,5.46a14.1,14.1,0,0,1-1.76,2.23,12.06,12.06,0,0,1,1.41-2.47c1-1.47,2.35-3.46,4-5.59s3.14-4,4.27-5.35A12.75,12.75,0,0,1,38.49,280.36Z"/><path class="cls-7" d="M23.81,335.51S22,319.58,32.17,312.42a.53.53,0,0,1,.84.43C33,315.42,32.07,323.09,23.81,335.51Z"/><path class="cls-6" d="M30.28,317.25a13.46,13.46,0,0,1-.86,2.71c-.68,1.85-1.47,4-2.36,6.42l-2.33,6.42a14.46,14.46,0,0,1-1,2.64,12.67,12.67,0,0,1,.63-2.77c.49-1.69,1.25-4,2.18-6.5s1.84-4.76,2.53-6.37A12.22,12.22,0,0,1,30.28,317.25Z"/><path class="cls-7" d="M32.68,375.3s-1.21-16,9.18-22.78a.53.53,0,0,1,.83.46C42.56,355.54,41.38,363.17,32.68,375.3Z"/><path class="cls-6" d="M39.8,357.27a13.6,13.6,0,0,1-.95,2.68c-.75,1.82-1.62,4-2.59,6.33l-2.57,6.33a15.16,15.16,0,0,1-1.12,2.61,12.11,12.11,0,0,1,.73-2.75c.55-1.67,1.39-3.94,2.41-6.42s2-4.69,2.75-6.27A13.5,13.5,0,0,1,39.8,357.27Z"/><path class="cls-7" d="M14.49,246.42S.28,239,0,226.6a.53.53,0,0,1,.83-.46C2.94,227.6,8.79,232.63,14.49,246.42Z"/><path class="cls-6" d="M3,230.86a13.33,13.33,0,0,1,1.77,2.22l4,5.54,4,5.53a14.53,14.53,0,0,1,1.62,2.33,11.78,11.78,0,0,1-1.95-2.07c-1.13-1.35-2.61-3.27-4.18-5.44s-2.92-4.18-3.87-5.65A13,13,0,0,1,3,230.86Z"/><path class="cls-7" d="M29.75,279.29s-14.63-6.55-15.67-18.91a.53.53,0,0,1,.8-.51C17.08,261.2,23.23,265.87,29.75,279.29Z"/><path class="cls-6" d="M17.29,264.45a14.21,14.21,0,0,1,1.9,2.11l4.34,5.29,4.35,5.27a14.5,14.5,0,0,1,1.75,2.23,11.79,11.79,0,0,1-2.07-2c-1.21-1.27-2.8-3.1-4.5-5.17s-3.17-4-4.2-5.41A12.22,12.22,0,0,1,17.29,264.45Z"/><path class="cls-7" d="M21.33,316s-10-12.49-5.33-24a.53.53,0,0,1,.94-.09C18.29,294.07,21.64,301,21.33,316Z"/><path class="cls-6" d="M17,297.06a14.13,14.13,0,0,1,.73,2.75c.42,1.93.91,4.19,1.46,6.68s1,4.75,1.47,6.68A15.67,15.67,0,0,1,21.2,316a11.22,11.22,0,0,1-1-2.68c-.5-1.68-1.09-4-1.65-6.65s-1-5-1.28-6.73A13,13,0,0,1,17,297.06Z"/><path class="cls-7" d="M31.29,359.09s-14.53-6.79-15.35-19.17a.53.53,0,0,1,.81-.49C18.92,340.79,25,345.56,31.29,359.09Z"/><path class="cls-6" d="M19.07,344.05a14,14,0,0,1,1.87,2.14l4.25,5.36,4.26,5.34a15.68,15.68,0,0,1,1.72,2.26,12,12,0,0,1-2.05-2c-1.18-1.3-2.75-3.15-4.4-5.25s-3.11-4-4.12-5.47A13.77,13.77,0,0,1,19.07,344.05Z"/><path class="cls-6" d="M60.22,296.05a1.35,1.35,0,0,1,0,.35c0,.28,0,.62,0,1,0,1-.1,2.26-.17,3.89-.19,3.41-.45,8.18-.76,13.88h0v0c-1,5.81-4,12.24-8,18.48-2.91,4.6-6,8.78-8.59,12.67A90.37,90.37,0,0,0,36.27,357a44.71,44.71,0,0,0-3,7.82c-.26,1-.45,1.71-.56,2.22a4.31,4.31,0,0,1-.21.77,4,4,0,0,1,.09-.8c.07-.52.23-1.27.45-2.25a41.91,41.91,0,0,1,2.86-7.94,85.22,85.22,0,0,1,6.37-10.78c2.61-3.92,5.65-8.1,8.55-12.68,3.95-6.21,6.88-12.55,8-18.25v0c.4-5.7.73-10.46,1-13.87.13-1.62.24-2.92.31-3.88.05-.41.08-.74.11-1A1.12,1.12,0,0,1,60.22,296.05Z"/><path class="cls-7" d="M51.57,332.52S57.72,317.71,50,308a.53.53,0,0,0-.93.18C48.37,310.66,47.1,318.28,51.57,332.52Z"/><path class="cls-6" d="M50.45,313.17a13,13,0,0,1,.49,2.8c.22,1.74.46,4.15.65,6.82s.28,5.09.28,6.85a11.53,11.53,0,0,1-.17,2.84,14.76,14.76,0,0,1-.25-2.83c-.13-2-.29-4.27-.46-6.82s-.34-4.85-.47-6.82A14.46,14.46,0,0,1,50.45,313.17Z"/><g class="cls-9"><path d="M51.57,332.52S57.72,317.71,50,308a.53.53,0,0,0-.93.18C48.37,310.66,47.1,318.28,51.57,332.52Z"/></g><path class="cls-7" d="M32.52,368.2s4.93-15.26-3.57-24.3a.53.53,0,0,0-.91.25C27.55,346.68,26.91,354.37,32.52,368.2Z"/><path class="cls-6" d="M29.83,349a12.44,12.44,0,0,1,.71,2.75c.36,1.72.8,4.1,1.21,6.74s.69,5.06.83,6.81a11.6,11.6,0,0,1,.06,2.84,15.37,15.37,0,0,1-.48-2.8c-.29-1.94-.63-4.23-1-6.76s-.73-4.81-1-6.76A14.47,14.47,0,0,1,29.83,349Z"/><g class="cls-9"><path d="M32.52,368.2s4.93-15.26-3.57-24.3a.53.53,0,0,0-.91.25C27.55,346.68,26.91,354.37,32.52,368.2Z"/></g><path class="cls-7" d="M59.4,314.42s13.14-9.2,11.81-21.53a.53.53,0,0,0-.88-.35C68.43,294.26,63.27,300,59.4,314.42Z"/><g class="cls-9"><path d="M59.4,314.42s13.14-9.2,11.81-21.53a.53.53,0,0,0-.88-.35C68.43,294.26,63.27,300,59.4,314.42Z"/></g><path class="cls-6" d="M68.84,297.49a13,13,0,0,1-1.09,2.63c-.75,1.58-1.84,3.75-3.11,6.1s-2.49,4.45-3.44,5.93a11.59,11.59,0,0,1-1.67,2.31,15.92,15.92,0,0,1,1.31-2.52l3.27-6,3.26-6A14.22,14.22,0,0,1,68.84,297.49Z"/><path class="cls-7" d="M37.81,353.07s15.85-2.47,20.09-14.13a.53.53,0,0,0-.64-.7C54.79,339,47.63,341.84,37.81,353.07Z"/><g class="cls-9"><path d="M37.81,353.07s15.85-2.47,20.09-14.13a.53.53,0,0,0-.64-.7C54.79,339,47.63,341.84,37.81,353.07Z"/></g><path class="cls-6" d="M53.74,342a12.55,12.55,0,0,1-2.14,1.88c-1.37,1.09-3.3,2.56-5.48,4.11s-4.2,2.9-5.69,3.81a11.57,11.57,0,0,1-2.52,1.33,16.12,16.12,0,0,1,2.28-1.68l5.59-4,5.57-4A14,14,0,0,1,53.74,342Z"/><polygon class="cls-10" points="22.7 382.23 18.08 413.33 46.88 413.33 43.15 382.23 22.7 382.23"/><path class="cls-6" d="M44.3,391.87a114.71,114.71,0,0,1-11.62.3,114.58,114.58,0,0,1-11.61-.3c0-.17,5.2-.3,11.61-.3S44.3,391.7,44.3,391.87Z"/><path class="cls-6" d="M44.87,394.34c0,.17-5.37.3-12,.3s-12-.13-12-.3,5.37-.3,12-.3S44.87,394.18,44.87,394.34Z"/></g></g></svg>